<svg width="32" height="32" viewBox="0 0 32 32" fill="none" xmlns="http://www.w3.org/2000/svg">
<path d="M5.33341 21.3332V26.6665H10.6667V29.3332H2.66675V21.3332H5.33341ZM29.3334 21.3332V29.3332H21.3334V26.6665H26.6667V21.3332H29.3334ZM10.0001 9.33317C10.0001 12.6469 12.6864 15.3332 16.0001 15.3332C19.3138 15.3332 22.0001 12.6469 22.0001 9.33317H24.6667C24.6667 12.6762 22.7739 15.5772 20.0015 17.0228L20.0001 25.3332H12.0001L12 17.0234C9.22684 15.5781 7.33341 12.6768 7.33341 9.33317H10.0001ZM16.0001 6.6665C17.841 6.6665 19.3334 8.15889 19.3334 9.99984C19.3334 11.8408 17.841 13.3332 16.0001 13.3332C14.1591 13.3332 12.6667 11.8408 12.6667 9.99984C12.6667 8.15889 14.1591 6.6665 16.0001 6.6665ZM10.6667 2.6665V5.33317L5.33341 5.33184V10.6665H2.66675V2.6665H10.6667ZM29.3334 2.6665V10.6665H26.6667V5.33317H21.3334V2.6665H29.3334Z" fill="#327A6D"/>
</svg>
