<svg width="33" height="33" viewBox="0 0 33 33" fill="none" xmlns="http://www.w3.org/2000/svg">
<path d="M5.58317 21.8334V27.1667H10.9165V29.8334H2.9165V21.8334H5.58317ZM29.5832 21.8334V29.8334H21.5832V27.1667H26.9165V21.8334H29.5832ZM10.2498 9.83341C10.2498 13.1471 12.9361 15.8334 16.2498 15.8334C19.5636 15.8334 22.2498 13.1471 22.2498 9.83341H24.9165C24.9165 13.1765 23.0237 16.0774 20.2513 17.523L20.2498 25.8334H12.2498L12.2497 17.5237C9.4766 16.0783 7.58317 13.177 7.58317 9.83341H10.2498ZM16.2498 7.16675C18.0908 7.16675 19.5832 8.65913 19.5832 10.5001C19.5832 12.341 18.0908 13.8334 16.2498 13.8334C14.4089 13.8334 12.9165 12.341 12.9165 10.5001C12.9165 8.65913 14.4089 7.16675 16.2498 7.16675ZM10.9165 3.16675V5.83341L5.58317 5.83208V11.1667H2.9165V3.16675H10.9165ZM29.5832 3.16675V11.1667H26.9165V5.83341H21.5832V3.16675H29.5832Z" fill="#0D562A"/>
</svg>
