<svg width="16" height="17" viewBox="0 0 16 17" fill="none" xmlns="http://www.w3.org/2000/svg">
<path d="M7.99992 15.1668C11.6139 15.1668 14.6666 12.1142 14.6666 8.50016C14.6666 4.88616 11.6139 1.8335 7.99992 1.8335C4.38592 1.8335 1.33325 4.88616 1.33325 8.50016C1.33325 12.1142 4.38592 15.1668 7.99992 15.1668ZM7.99992 3.16683C10.8913 3.16683 13.3333 5.60883 13.3333 8.50016C13.3333 11.3915 10.8913 13.8335 7.99992 13.8335C5.10859 13.8335 2.66659 11.3915 2.66659 8.50016C2.66659 5.60883 5.10859 3.16683 7.99992 3.16683Z" fill="black"/>
<path d="M8.00008 11.8332C8.60075 11.8332 9.72075 11.7212 10.4714 10.9718L9.52875 10.0278C9.23342 10.3232 8.66141 10.4998 8.00008 10.4998C6.91608 10.4998 6.00008 9.58384 6.00008 8.49984C6.00008 7.41584 6.91608 6.49984 8.00008 6.49984C8.66208 6.49984 9.23408 6.6765 9.52875 6.97117L10.4714 6.0285C9.72141 5.2785 8.60075 5.1665 8.00008 5.1665C6.16208 5.1665 4.66675 6.66184 4.66675 8.49984C4.66675 10.3378 6.16208 11.8332 8.00008 11.8332Z" fill="black"/>
</svg>
