<svg width="16" height="17" viewBox="0 0 16 17" fill="none" xmlns="http://www.w3.org/2000/svg">
<path d="M8.00016 15.1668C11.6142 15.1668 14.6668 12.1142 14.6668 8.50016C14.6668 4.88616 11.6142 1.8335 8.00016 1.8335C4.38616 1.8335 1.3335 4.88616 1.3335 8.50016C1.3335 12.1142 4.38616 15.1668 8.00016 15.1668ZM8.00016 3.16683C10.8915 3.16683 13.3335 5.60883 13.3335 8.50016C13.3335 11.3915 10.8915 13.8335 8.00016 13.8335C5.10883 13.8335 2.66683 11.3915 2.66683 8.50016C2.66683 5.60883 5.10883 3.16683 8.00016 3.16683Z" fill="black"/>
<path d="M7.99984 11.8332C8.6005 11.8332 9.7205 11.7212 10.4712 10.9718L9.5285 10.0278C9.23317 10.3232 8.66117 10.4998 7.99984 10.4998C6.91584 10.4998 5.99984 9.58384 5.99984 8.49984C5.99984 7.41584 6.91584 6.49984 7.99984 6.49984C8.66184 6.49984 9.23384 6.6765 9.5285 6.97117L10.4712 6.0285C9.72117 5.2785 8.6005 5.1665 7.99984 5.1665C6.16184 5.1665 4.6665 6.66184 4.6665 8.49984C4.6665 10.3378 6.16184 11.8332 7.99984 11.8332Z" fill="black"/>
</svg>
