<svg width="20" height="21" viewBox="0 0 20 21" fill="none" xmlns="http://www.w3.org/2000/svg">
<path d="M13.3335 10.3398H15.0002V13.6732H13.3335V10.3398Z" fill="#75A69D"/>
<path d="M16.6665 6.17318V4.50651C16.6665 3.58734 15.919 2.83984 14.9998 2.83984H4.1665C2.78817 2.83984 1.6665 3.96151 1.6665 5.33984V15.3398C1.6665 17.174 3.1615 17.8398 4.1665 17.8398H16.6665C17.5857 17.8398 18.3332 17.0923 18.3332 16.1732V7.83984C18.3332 6.92068 17.5857 6.17318 16.6665 6.17318ZM4.1665 4.50651H14.9998V6.17318H4.1665C3.95194 6.16358 3.74934 6.07159 3.6009 5.91636C3.45246 5.76113 3.36961 5.55462 3.36961 5.33984C3.36961 5.12506 3.45246 4.91856 3.6009 4.76333C3.74934 4.6081 3.95194 4.51611 4.1665 4.50651ZM16.6665 16.1732H4.1765C3.7915 16.1632 3.33317 16.0107 3.33317 15.3398V7.68568C3.59484 7.77984 3.87234 7.83984 4.1665 7.83984H16.6665V16.1732Z" fill="#75A69D"/>
</svg>
