<svg width="20" height="21" viewBox="0 0 20 21" fill="none" xmlns="http://www.w3.org/2000/svg">
<path d="M13.3333 10.8398H14.9999V14.1732H13.3333V10.8398Z" fill="#75A69D"/>
<path d="M16.6667 6.67318V5.00651C16.6667 4.08734 15.9192 3.33984 15.0001 3.33984H4.16675C2.78841 3.33984 1.66675 4.46151 1.66675 5.83984V15.8398C1.66675 17.674 3.16175 18.3398 4.16675 18.3398H16.6667C17.5859 18.3398 18.3334 17.5923 18.3334 16.6732V8.33984C18.3334 7.42068 17.5859 6.67318 16.6667 6.67318ZM4.16675 5.00651H15.0001V6.67318H4.16675C3.95218 6.66358 3.74959 6.57159 3.60114 6.41636C3.4527 6.26113 3.36986 6.05462 3.36986 5.83984C3.36986 5.62506 3.4527 5.41856 3.60114 5.26333C3.74959 5.1081 3.95218 5.01611 4.16675 5.00651ZM16.6667 16.6732H4.17675C3.79175 16.6632 3.33341 16.5107 3.33341 15.8398V8.18568C3.59508 8.27984 3.87258 8.33984 4.16675 8.33984H16.6667V16.6732Z" fill="#75A69D"/>
</svg>
