<svg width="412" height="382" viewBox="0 0 412 382" fill="none" xmlns="http://www.w3.org/2000/svg">
<g clip-path="url(#clip0_120_1663)">
<path d="M165.744 293.031C167.41 294.766 169.077 296.503 170.743 298.238C172.773 300.353 175.925 297.073 173.892 294.957C172.227 293.221 170.559 291.485 168.894 289.749C166.863 287.635 163.712 290.917 165.744 293.031Z" fill="#0D562A"/>
<path d="M179.492 307.355C181.157 309.09 182.825 310.827 184.49 312.562C186.521 314.676 189.673 311.395 187.64 309.28C185.975 307.545 184.307 305.808 182.641 304.073C180.611 301.959 177.459 305.24 179.492 307.355Z" fill="#0D562A"/>
<path d="M168.894 312.562C170.559 310.827 172.227 309.09 173.892 307.354C175.923 305.24 172.773 301.957 170.743 304.073C169.077 305.808 167.41 307.545 165.744 309.28C163.713 311.394 166.863 314.678 168.894 312.562Z" fill="#0D562A"/>
<path d="M182.641 298.238C184.307 296.503 185.974 294.766 187.64 293.031C189.671 290.917 186.521 287.634 184.49 289.75C182.825 291.485 181.157 293.222 179.492 294.957C177.461 297.071 180.611 300.355 182.641 298.238Z" fill="#0D562A"/>
<path d="M82.7611 314.279C82.8798 315.273 82.9985 316.268 83.1173 317.264C83.2622 318.476 85.0675 318.242 84.9226 317.03C84.8039 316.035 84.6851 315.041 84.5664 314.045C84.4215 312.832 82.6162 313.066 82.7611 314.279Z" fill="#0D562A"/>
<path d="M83.7388 322.487C83.8575 323.481 83.9763 324.475 84.095 325.471C84.2399 326.684 86.0452 326.45 85.9003 325.237C85.7816 324.243 85.6629 323.249 85.5441 322.253C85.3992 321.04 83.5939 321.274 83.7388 322.487Z" fill="#0D562A"/>
<path d="M79.0718 321.393C80.0269 321.269 80.9819 321.147 81.9352 321.023C83.098 320.872 82.8746 318.992 81.7117 319.142C80.7567 319.266 79.8016 319.389 78.8483 319.513C77.6855 319.663 77.909 321.543 79.0718 321.393Z" fill="#0D562A"/>
<path d="M86.9497 320.374C87.9047 320.25 88.8598 320.128 89.8131 320.003C90.9759 319.853 90.7524 317.973 89.5896 318.123C88.6346 318.247 87.6795 318.37 86.7262 318.494C85.5634 318.644 85.7869 320.524 86.9497 320.374Z" fill="#0D562A"/>
<path d="M80.1561 118.262V114.687C80.1561 112.295 76.5873 112.291 76.5873 114.687C76.5873 115.879 76.5873 117.07 76.5873 118.262C76.5873 120.654 80.1561 120.658 80.1561 118.262Z" fill="#0D562A"/>
<path d="M73.9264 119.41C73.118 118.568 72.3096 117.726 71.4995 116.882C70.8395 116.193 69.6278 116.143 68.9766 116.882C68.3236 117.624 68.2712 118.776 68.9766 119.51C69.7849 120.352 70.5933 121.194 71.4035 122.038C72.0634 122.727 73.2752 122.777 73.9264 122.038C74.5794 121.296 74.6318 120.144 73.9264 119.41Z" fill="#0D562A"/>
<path d="M70.3 124.813H66.8692C64.5732 124.813 64.5697 128.53 66.8692 128.53H70.3C72.596 128.53 72.5995 124.813 70.3 124.813Z" fill="#0D562A"/>
<path d="M71.4035 131.303C70.5951 132.145 69.7867 132.987 68.9765 133.831C68.3166 134.52 68.2659 135.781 68.9765 136.459C69.6889 137.141 70.7941 137.193 71.4995 136.459C72.3079 135.617 73.1163 134.775 73.9264 133.931C74.5864 133.243 74.637 131.981 73.9264 131.303C73.214 130.621 72.1088 130.569 71.4035 131.303Z" fill="#0D562A"/>
<path d="M76.5873 135.081V138.656C76.5873 141.048 80.1561 141.052 80.1561 138.656V135.081C80.1561 132.689 76.5873 132.685 76.5873 135.081Z" fill="#0D562A"/>
<path d="M82.8187 133.933C83.627 134.775 84.4354 135.617 85.2456 136.461C85.9055 137.15 87.1173 137.2 87.7685 136.461C88.4215 135.718 88.4739 134.567 87.7685 133.833C86.9601 132.991 86.1517 132.149 85.3416 131.305C84.6816 130.616 83.4699 130.565 82.8187 131.305C82.1657 132.047 82.1133 133.199 82.8187 133.933Z" fill="#0D562A"/>
<path d="M86.4433 128.53H89.8742C92.1701 128.53 92.1736 124.813 89.8742 124.813H86.4433C84.1474 124.813 84.1439 128.53 86.4433 128.53Z" fill="#0D562A"/>
<path d="M85.3416 122.038C86.15 121.196 86.9584 120.354 87.7685 119.51C88.4285 118.821 88.4791 117.56 87.7685 116.882C87.0561 116.2 85.9509 116.148 85.2456 116.882C84.4372 117.724 83.6288 118.566 82.8187 119.41C82.1587 120.098 82.108 121.36 82.8187 122.038C83.531 122.72 84.6362 122.772 85.3416 122.038Z" fill="#0D562A"/>
<g clip-path="url(#clip1_120_1663)">
<path opacity="0.4" d="M327.102 247.14C340.694 221.192 351.178 190.448 340.799 163.058C326.697 125.842 282.081 111.944 252.751 85.0095C238.614 72.0268 227.296 55.2482 210.034 46.8394C187.515 35.8697 160.248 41.9356 137.714 52.8749C125.279 58.9121 112.913 67.0231 107.011 79.5102C100.468 93.3539 103.151 109.515 102.782 124.82C102.406 140.417 98.6536 155.923 91.8593 169.971C82.4462 189.426 66.9757 207.179 66.044 228.767C65.3038 245.909 74.1325 262.082 84.8567 275.488C105.683 301.521 136.115 321.27 169.414 323.404C188.467 324.626 208.172 320.221 226.382 325.948C234.702 328.565 242.386 333.231 250.979 334.733C280.533 339.897 315.636 269.027 327.102 247.14Z" fill="#EAEAEA"/>
<path opacity="0.4" d="M279.498 71.0526C291.347 78.1741 305.962 80.5659 319.468 77.5922C321.631 77.1152 323.826 76.4774 325.572 75.1174C328.859 72.5564 329.863 67.8674 329.082 63.7789C328.301 59.6904 326.038 56.0552 323.751 52.5757C319.842 46.6265 314.882 40.2781 307.805 39.4441C304.763 39.0855 301.659 39.8281 298.632 39.3545C289.24 37.8862 285.684 26.6813 281.903 17.9664C275.587 3.41054 240.152 -30.5966 245.538 4.0787C249.245 27.9348 257.719 57.9633 279.496 71.0526H279.498Z" fill="#F7F7F7"/>
</g>
<path d="M14.771 246.519V256.254C14.771 257.54 16.6881 257.541 16.6881 256.254V246.519C16.6881 245.233 14.771 245.231 14.771 246.519Z" fill="#0D562A"/>
<path d="M11.059 252.385H20.4035C21.6379 252.385 21.6397 250.386 20.4035 250.386H11.059C9.82462 250.386 9.82288 252.385 11.059 252.385Z" fill="#0D562A"/>
<path d="M253.546 322.017C253.533 323.109 253.476 323.554 253.146 324.638C252.9 325.443 252.519 326.242 251.897 327.121C252.084 326.857 251.791 327.257 251.742 327.315C251.615 327.467 251.487 327.617 251.354 327.764C251.035 328.112 250.694 328.447 250.328 328.741C250.626 328.501 250.008 328.959 250.027 328.947C249.834 329.08 249.635 329.207 249.43 329.326C248.866 329.658 248.711 329.73 248.252 329.894C246.513 330.516 244.906 330.556 243.222 330.044C242.392 329.793 241.999 329.607 241.189 329.078C240.507 328.631 239.868 328.059 239.204 327.224C239.07 327.054 238.853 326.731 238.612 326.312C238.494 326.102 238.38 325.889 238.274 325.672C238.282 325.69 237.968 324.966 238.113 325.335C237.963 324.956 237.842 324.559 237.741 324.163C237.568 323.49 237.537 323.313 237.502 322.791C237.367 320.849 237.724 319.273 238.612 317.72C239.45 316.256 240.604 315.17 242.212 314.367C242.404 314.271 242.764 314.126 243.222 313.986C243.45 313.916 243.683 313.855 243.917 313.802C243.897 313.806 244.671 313.661 244.28 313.718C244.767 313.647 245.268 313.633 245.76 313.645C246.006 313.65 246.254 313.666 246.499 313.69C246.977 313.739 246.439 313.662 246.869 313.752C250.824 314.568 253.5 317.952 253.546 322.013C253.581 324.998 258.034 325.007 258.001 322.013C257.938 316.483 254.626 311.653 249.659 309.741C244.894 307.907 239.208 309.558 235.979 313.617C232.627 317.832 232.051 323.907 234.764 328.652C237.493 333.422 242.857 335.798 248.053 334.752C253.827 333.588 257.931 328.043 258.001 322.013C258.036 319.025 253.581 319.023 253.546 322.013V322.017Z" fill="#0D562A"/>
<path d="M305.742 51.1083H319.535C321.625 51.1083 321.628 47.7236 319.535 47.7236H305.742C303.652 47.7236 303.648 51.1083 305.742 51.1083Z" fill="#0D562A"/>
<path d="M27.5777 193.493C26.5231 191.836 25.4668 190.178 24.4122 188.522C23.1342 186.514 20.0071 188.396 21.2957 190.419C22.3502 192.076 23.4066 193.734 24.4611 195.391C25.7392 197.398 28.8662 195.516 27.5777 193.493Z" fill="#0D562A"/>
<path d="M18.8705 179.82C17.8159 178.163 16.7596 176.505 15.705 174.848C14.427 172.84 11.2999 174.722 12.5885 176.746C13.643 178.402 14.6994 180.061 15.7539 181.717C17.032 183.725 20.159 181.843 18.8705 179.82Z" fill="#0D562A"/>
<path d="M28.1207 177.312C26.5301 178.411 24.9395 179.51 23.3489 180.61C21.4231 181.941 23.2284 185.2 25.17 183.856C26.7606 182.757 28.3511 181.658 29.9417 180.559C31.8675 179.227 30.0622 175.968 28.1207 177.312Z" fill="#0D562A"/>
<path d="M14.9979 186.383C13.4073 187.482 11.8168 188.581 10.2262 189.68C8.30036 191.011 10.1057 194.27 12.0472 192.927C13.6378 191.827 15.2284 190.728 16.819 189.629C18.7448 188.298 16.9395 185.039 14.9979 186.383Z" fill="#0D562A"/>
<path d="M297.527 113.495C297.418 114.054 297.31 114.612 297.202 115.171C297.111 115.641 297.331 116.132 297.797 116.265C298.218 116.385 298.756 116.116 298.847 115.645C298.955 115.085 299.063 114.528 299.171 113.969C299.262 113.499 299.042 113.008 298.576 112.875C298.155 112.754 297.618 113.023 297.527 113.495Z" fill="#0D562A"/>
<path d="M300.514 113.59C300.816 114.065 301.118 114.54 301.422 115.014C301.677 115.414 302.176 115.585 302.59 115.333C302.971 115.101 303.152 114.519 302.896 114.117C302.594 113.642 302.291 113.167 301.988 112.693C301.733 112.293 301.233 112.122 300.82 112.373C300.439 112.606 300.257 113.188 300.514 113.59Z" fill="#0D562A"/>
<path d="M302.674 111.444C303.21 111.558 303.746 111.669 304.282 111.783C304.732 111.877 305.204 111.647 305.331 111.163C305.446 110.724 305.19 110.165 304.736 110.069C304.2 109.955 303.664 109.843 303.128 109.73C302.677 109.635 302.206 109.866 302.078 110.35C301.963 110.789 302.22 111.348 302.674 111.444Z" fill="#0D562A"/>
<path d="M302.763 108.332C303.219 108.017 303.674 107.701 304.13 107.386C304.514 107.121 304.678 106.602 304.436 106.17C304.212 105.774 303.653 105.585 303.267 105.851C302.812 106.165 302.356 106.481 301.9 106.796C301.516 107.061 301.352 107.58 301.595 108.012C301.818 108.409 302.377 108.597 302.763 108.332Z" fill="#0D562A"/>
<path d="M300.704 106.083C300.813 105.524 300.921 104.966 301.029 104.407C301.12 103.937 300.9 103.446 300.434 103.313C300.013 103.193 299.475 103.462 299.384 103.934C299.276 104.493 299.168 105.05 299.06 105.609C298.969 106.08 299.189 106.571 299.655 106.703C300.076 106.824 300.614 106.555 300.704 106.083Z" fill="#0D562A"/>
<path d="M297.719 105.989C297.417 105.514 297.115 105.038 296.811 104.565C296.556 104.165 296.057 103.993 295.643 104.245C295.262 104.477 295.081 105.059 295.337 105.461C295.639 105.936 295.941 106.412 296.245 106.885C296.5 107.285 296.999 107.457 297.413 107.205C297.794 106.973 297.975 106.391 297.719 105.989Z" fill="#0D562A"/>
<path d="M295.559 108.135C295.023 108.021 294.487 107.909 293.951 107.796C293.5 107.701 293.029 107.932 292.902 108.416C292.786 108.855 293.043 109.414 293.497 109.51C294.033 109.623 294.569 109.735 295.105 109.849C295.555 109.943 296.027 109.713 296.154 109.229C296.27 108.79 296.013 108.231 295.559 108.135Z" fill="#0D562A"/>
<path d="M295.468 111.245C295.013 111.559 294.557 111.875 294.101 112.19C293.717 112.456 293.553 112.974 293.796 113.406C294.019 113.803 294.578 113.991 294.964 113.726C295.419 113.411 295.875 113.095 296.331 112.781C296.715 112.515 296.879 111.996 296.636 111.564C296.413 111.168 295.854 110.979 295.468 111.245Z" fill="#0D562A"/>
<path d="M183.134 90.2373C184.148 85.0126 185.163 79.7879 186.177 74.5632C186.325 73.803 186.472 73.0429 186.621 72.2828C186.814 71.2885 186.345 70.2523 185.36 69.971C184.469 69.7159 183.335 70.2838 183.141 71.2833C182.126 76.508 181.112 81.7327 180.098 86.9574C179.949 87.7175 179.802 88.4776 179.654 89.2378C179.46 90.232 179.93 91.2682 180.915 91.5496C181.805 91.8047 182.94 91.2368 183.134 90.2373Z" fill="#0D562A"/>
<path d="M192.234 80.7627C187.219 79.7056 182.205 78.6484 177.189 77.5912C176.459 77.4375 175.729 77.2837 175.001 77.1299C174.046 76.929 173.053 77.4165 172.782 78.4422C172.537 79.3701 173.082 80.5531 174.042 80.754C179.057 81.8112 184.071 82.8684 189.088 83.9255C189.817 84.0793 190.547 84.2331 191.275 84.3868C192.23 84.5878 193.224 84.1003 193.494 83.0745C193.739 82.1467 193.194 80.9637 192.234 80.7627Z" fill="#0D562A"/>
<path d="M369.583 114.269C370.269 110.736 370.956 107.201 371.642 103.668C371.912 102.274 369.859 101.676 369.587 103.077C368.901 106.611 368.214 110.146 367.528 113.679C367.258 115.073 369.311 115.671 369.583 114.269Z" fill="#0D562A"/>
<path d="M374.957 108.676C371.565 107.961 368.174 107.247 364.782 106.53C363.443 106.247 362.87 108.388 364.216 108.671C367.609 109.385 370.999 110.1 374.392 110.816C375.731 111.1 376.304 108.959 374.957 108.676Z" fill="#0D562A"/>
<path d="M80.5315 52.5269C80.9976 50.4003 82.8763 48.8958 85.0064 49.3029C87.0562 49.6944 88.4896 51.8192 88.1003 53.965C87.7109 56.1073 85.6943 57.5838 83.6253 57.1889C81.5546 56.7923 80.1683 54.6779 80.5315 52.5269C80.7672 51.129 78.7139 50.5296 78.4764 51.9363C78.0417 54.5049 78.974 57.0544 81.1076 58.496C83.1906 59.9026 85.9911 59.7401 87.9466 58.1744C89.9405 56.5773 90.8188 53.7099 89.9632 51.2181C89.1217 48.7717 86.927 47.082 84.4232 47.0226C81.5808 46.9544 79.105 49.0828 78.4782 51.9363C78.1726 53.3272 80.2277 53.9213 80.5332 52.5269H80.5315Z" fill="#0D562A"/>
<path d="M392.169 166.312C389.213 165.688 386.256 165.066 383.3 164.442C381.96 164.159 381.388 166.3 382.734 166.583C385.69 167.207 388.648 167.829 391.603 168.452C392.943 168.736 393.515 166.595 392.169 166.312Z" fill="#0D562A"/>
<path d="M310.077 270.843C307.121 270.219 304.163 269.597 301.207 268.973C299.868 268.69 299.295 270.83 300.642 271.114C303.598 271.737 306.555 272.359 309.511 272.983C310.85 273.266 311.423 271.126 310.077 270.843Z" fill="#0D562A"/>
</g>
<g clip-path="url(#clip2_120_1663)">
<path d="M293.047 43.4653H172.798C171.441 43.4653 170.342 44.5633 170.342 45.9178V50.9463C170.342 52.3008 171.441 53.3987 172.798 53.3987H293.047C294.404 53.3987 295.504 52.3008 295.504 50.9463V45.9178C295.504 44.5633 294.404 43.4653 293.047 43.4653Z" fill="#1A1A1A"/>
<path d="M300.388 278.16H166.933C159.776 278.16 159.776 48.4336 166.933 48.4336H300.388C308.494 48.4336 308.494 278.16 300.388 278.16Z" fill="#333333"/>
<path d="M300.388 48.4336H292.088V278.16H300.388C308.494 278.16 308.494 48.4336 300.388 48.4336Z" fill="#4D4D4D"/>
<path d="M166.25 48.4336H174.55V278.16H166.25C158.144 278.16 158.144 48.4336 166.25 48.4336Z" fill="#4D4D4D"/>
<path d="M276.492 66.4878H190.146C188.529 66.4878 187.219 67.7962 187.219 69.4102V201.584C187.219 203.198 188.529 204.506 190.146 204.506H276.492C278.109 204.506 279.419 203.198 279.419 201.584V69.4102C279.419 67.7962 278.109 66.4878 276.492 66.4878Z" fill="#B7CCA1"/>
<path opacity="0.25" d="M174.55 48.4336H172.179V278.16H174.55V48.4336Z" fill="#1A1A1A"/>
<path opacity="0.25" d="M294.481 48.4336H292.084V278.16H294.481V48.4336Z" fill="#1A1A1A"/>
<path d="M146.923 347.44C146.923 347.44 151.475 343.906 154.48 341.365C157.482 338.825 167.467 341.991 167.467 341.991L172.494 343.807C172.494 343.807 175.099 356.342 185.063 357.179C185.226 357.193 185.389 357.2 185.544 357.204C189.7 357.303 192.857 353.454 192.188 349.359L191.006 342.09C190.631 339.786 189.693 337.605 188.273 335.747L182.033 327.566C181.053 326.283 179.683 325.35 178.129 324.912L148.605 316.569L174.398 308.374L182.614 316.668C182.614 316.668 190.018 330.216 198.836 331.015C207.653 331.817 209.515 327.442 209.979 325.46C210.442 323.478 196.751 301.462 195.378 300.621C194.004 299.777 179.69 285.426 179.69 285.426C179.69 285.426 200.018 301.808 210.163 288.914C210.163 288.914 211.472 285.56 202.765 278.927C200.588 277.27 198.507 275.542 196.606 273.885C189.275 267.481 180.437 263.05 170.943 260.873C160.469 258.474 148.562 255.799 147.847 255.862C146.562 255.979 140.665 255.23 138.715 258.644C136.764 262.057 112.5 279.811 112.5 279.811L107.428 347.521L115.406 353.253L146.927 347.44H146.923Z" fill="#FFB078"/>
<path d="M179.994 288.469C179.994 288.469 152.948 289.479 148.601 279.638C144.254 269.793 146.382 280.232 146.382 280.232C146.382 280.232 142.644 290.646 131.317 294.261C131.317 294.261 118.762 288.6 116.05 302.173C113.339 315.746 120.786 340.422 120.786 340.422L179.994 288.472V288.469Z" fill="#E8975D"/>
<path d="M172.087 286.543L157.27 295.306C151.882 298.49 147.306 302.869 143.869 308.088C137.621 317.58 126.786 332.206 120.599 330.079C111.544 326.962 117.958 283.168 117.958 283.168L124.546 253.477L140.931 228.578C141.079 228.349 141.256 228.14 141.447 227.946C143.507 225.857 157.245 209.199 151.139 195.782C148.902 190.87 142.247 189.887 138.817 194.057C138.403 194.562 137.993 195.142 137.596 195.806C132.942 203.577 121.82 217.871 121.08 219.069C120.344 220.267 100.639 242.692 99.4706 245.343C98.3026 247.993 83.4997 292.836 78.7389 299.487C73.9816 306.137 67.2067 385.82 67.2067 385.82L67.3023 435.788L110.769 431.784C110.769 431.784 146.435 410.709 146.488 392.916C146.541 375.124 148.7 352.617 150.406 349.638C152.109 346.659 166.182 327.573 166.182 327.573L172.051 321.584C178.412 315.092 183.392 307.385 186.695 298.925C187.987 295.614 187.445 291.868 185.265 289.059C182.136 285.023 176.486 283.945 172.087 286.546V286.543Z" fill="#FFC9A3"/>
<g clip-path="url(#clip3_120_1663)">
<path d="M215.582 137.165C211.337 136.333 208.139 132.577 208.17 128.104L208.402 94.1731C208.419 91.7251 209.39 89.4268 211.136 87.7068C212.881 85.9868 215.197 85.0483 217.649 85.0649L229.019 85.1436C229.807 85.1497 230.44 85.7907 230.434 86.5774C230.428 87.3641 229.786 87.9967 228.998 87.9906L217.628 87.9119C215.938 87.8998 214.341 88.5461 213.138 89.7324C211.935 90.9188 211.264 92.5003 211.251 94.1904L211.019 128.124C210.995 131.61 213.817 134.464 217.308 134.49L251.298 134.723C254.789 134.746 257.651 131.93 257.675 128.444L257.751 117.175C257.757 116.388 258.399 115.755 259.187 115.761C259.975 115.768 260.609 116.409 260.602 117.195L260.526 128.465C260.491 133.521 256.344 137.606 251.279 137.573L217.289 137.341C216.706 137.336 216.134 137.278 215.581 137.171L215.582 137.165Z" fill="white"/>
<path d="M241.586 104.072C239.803 102.371 236.976 102.437 235.273 104.217C233.57 105.997 233.635 108.818 235.418 110.519C237.201 112.22 240.027 112.154 241.731 110.374C243.434 108.594 243.369 105.772 241.586 104.072ZM245.823 99.6444C243.048 96.9998 239.173 96.1987 235.733 97.2085C234.993 97.4268 234.488 98.1101 234.505 98.8833L234.507 98.9509C234.533 100.082 235.631 100.855 236.72 100.535C239.005 99.8658 241.579 100.397 243.422 102.155C245.279 103.927 245.923 106.493 245.335 108.816C245.077 109.835 245.77 110.848 246.819 110.95L246.885 110.956C247.718 111.038 248.492 110.501 248.698 109.692C249.592 106.189 248.621 102.317 245.823 99.6444ZM249.927 95.3538C246.021 91.6295 240.727 90.2286 235.776 91.1121C234.946 91.259 234.346 91.9865 234.365 92.8273L234.367 92.9006C234.39 93.9464 235.35 94.7096 236.382 94.5259C240.281 93.8254 244.45 94.9269 247.527 97.8616C250.788 100.972 252.042 105.4 251.259 109.524C251.072 110.503 251.778 111.425 252.772 111.523L252.838 111.529C253.72 111.613 254.518 111.011 254.679 110.141C255.661 104.91 254.062 99.297 249.927 95.3538ZM260.366 110.67C261.489 103.762 259.303 96.4313 253.862 91.2431C248.838 86.4501 242.114 84.5115 235.712 85.3729C234.852 85.4883 234.217 86.2329 234.237 87.1002L234.238 87.1616C234.262 88.1697 235.152 88.9467 236.155 88.8103C241.553 88.0764 247.226 89.7112 251.464 93.7514C256.044 98.1209 257.887 104.291 256.941 110.107C256.783 111.076 257.478 111.976 258.458 112.072L258.524 112.078C259.415 112.164 260.226 111.55 260.368 110.67L260.366 110.67Z" fill="white"/>
<path d="M220.783 125.557L219.478 125.549L219.463 127.793L217.072 127.776L217.131 119.333L220.996 119.359C221.761 119.364 222.424 119.497 222.987 119.752C223.549 120.009 223.981 120.372 224.285 120.847C224.586 121.318 224.735 121.872 224.733 122.508C224.729 123.12 224.581 123.651 224.293 124.104C224.004 124.558 223.593 124.911 223.06 125.163L224.867 127.828L222.307 127.809L220.789 125.555L220.783 125.557ZM221.945 121.574C221.698 121.355 221.326 121.245 220.835 121.242L219.507 121.233L219.489 123.704L220.818 123.713C221.308 123.716 221.68 123.613 221.931 123.401C222.183 123.189 222.309 122.887 222.313 122.494C222.316 122.101 222.192 121.793 221.945 121.574Z" fill="white"/>
<path d="M230.382 121.27L230.368 123.126L234.102 123.152L234.091 124.997L230.357 124.971L230.337 127.865L227.946 127.848L228.005 119.405L234.638 119.451L234.624 121.296L230.382 121.267L230.382 121.27Z" fill="white"/>
<path d="M237.691 119.473L240.081 119.49L240.022 127.933L237.632 127.915L237.691 119.473Z" fill="white"/>
<path d="M243.719 119.514L247.718 119.54C248.643 119.547 249.465 119.726 250.18 120.075C250.895 120.427 251.447 120.919 251.838 121.558C252.23 122.196 252.421 122.94 252.415 123.793C252.409 124.644 252.206 125.387 251.807 126.019C251.407 126.651 250.85 127.139 250.128 127.48C249.409 127.822 248.588 127.987 247.659 127.983L243.66 127.956L243.719 119.514ZM247.576 126.077C248.3 126.081 248.882 125.881 249.327 125.473C249.767 125.067 249.991 124.5 249.998 123.777C250.001 123.054 249.787 122.485 249.35 122.072C248.912 121.658 248.333 121.45 247.609 121.444L246.1 121.434L246.067 126.065L247.576 126.074L247.576 126.077Z" fill="white"/>
</g>
<path d="M164.216 121.779L70.4597 274.701C67.4256 279.649 68.9844 286.117 73.9415 289.146L164.594 344.54C169.551 347.569 176.029 346.013 179.063 341.064L272.819 188.143C275.853 183.194 274.294 176.727 269.337 173.697L178.685 118.303C173.728 115.274 167.25 116.831 164.216 121.779Z" fill="#89CCE8"/>
<path d="M162.623 147.049L92.2756 261.789L97.5076 264.986L167.855 150.246L162.623 147.049Z" fill="#297CA9"/>
<path d="M159.951 169.003L110.644 249.426L113.258 251.023L162.565 170.601L159.951 169.003Z" fill="#297CA9"/>
<path d="M166.529 198.114L128.819 259.621L131.434 261.219L169.144 199.712L166.529 198.114Z" fill="#64B4D8"/>
<path d="M159.919 220.822L134.139 262.871L136.754 264.468L162.533 222.42L159.919 220.822Z" fill="#64B4D8"/>
<path d="M165.235 224.074L139.455 266.122L142.07 267.72L167.849 225.671L165.235 224.074Z" fill="#64B4D8"/>
<path d="M161.549 242.019L144.778 269.374L147.392 270.971L164.164 243.616L161.549 242.019Z" fill="#64B4D8"/>
<path d="M172.155 236.649L150.099 272.625L152.713 274.222L174.769 238.247L172.155 236.649Z" fill="#64B4D8"/>
<path d="M178.644 237.993L155.418 275.876L158.032 277.474L181.258 239.591L178.644 237.993Z" fill="#64B4D8"/>
<path d="M178.117 250.776L160.736 279.126L163.351 280.724L180.732 252.374L178.117 250.776Z" fill="#64B4D8"/>
<path d="M179.779 259.994L166.057 282.375L168.671 283.973L182.393 261.591L179.779 259.994Z" fill="#64B4D8"/>
<path d="M186.42 261.09L171.376 285.626L173.991 287.224L189.035 262.687L186.42 261.09Z" fill="#64B4D8"/>
<path d="M195.246 258.619L176.696 288.874L179.311 290.471L197.86 260.217L195.246 258.619Z" fill="#64B4D8"/>
<path d="M199.396 263.777L182.015 292.126L184.629 293.724L202.01 265.374L199.396 263.777Z" fill="#64B4D8"/>
<path d="M238.542 177.168L223.443 201.795L226.057 203.393L241.156 178.766L238.542 177.168Z" fill="#297CA9"/>
<path d="M242.41 180.598L228.263 203.673L230.878 205.271L245.025 182.196L242.41 180.598Z" fill="#297CA9"/>
<path d="M201.057 272.994L187.335 295.376L189.95 296.974L203.672 274.592L201.057 272.994Z" fill="#64B4D8"/>
<path d="M123.421 268.426L105.798 297.171L108.412 298.768L126.035 270.024L123.421 268.426Z" fill="#64B4D8"/>
<path d="M99.3793 281.856L94.7541 289.4L99.5694 292.342L104.195 284.798L99.3793 281.856Z" fill="#297CA9"/>
<path d="M128.74 271.682L111.117 300.426L113.731 302.024L131.355 273.279L128.74 271.682Z" fill="#64B4D8"/>
<path d="M134.058 274.931L116.435 303.675L119.049 305.273L136.672 276.528L134.058 274.931Z" fill="#64B4D8"/>
<path d="M139.376 278.181L121.753 306.926L124.367 308.523L141.991 279.779L139.376 278.181Z" fill="#64B4D8"/>
<path d="M144.696 281.43L132.154 301.886L134.769 303.483L147.31 283.027L144.696 281.43Z" fill="#64B4D8"/>
<path d="M150.017 284.679L137.476 305.135L140.09 306.732L152.632 286.276L150.017 284.679Z" fill="#64B4D8"/>
<path d="M155.338 287.931L142.797 308.387L145.411 309.985L157.953 289.529L155.338 287.931Z" fill="#64B4D8"/>
<path d="M160.658 291.183L143.034 319.928L145.649 321.525L163.272 292.781L160.658 291.183Z" fill="#64B4D8"/>
<path d="M165.979 294.432L148.356 323.177L150.97 324.774L168.593 296.03L165.979 294.432Z" fill="#64B4D8"/>
<path d="M171.3 297.685L153.677 326.429L156.291 328.027L173.915 299.282L171.3 297.685Z" fill="#64B4D8"/>
<path d="M176.613 300.934L158.99 329.679L161.604 331.276L179.227 302.532L176.613 300.934Z" fill="#64B4D8"/>
<path d="M181.934 304.187L164.311 332.931L166.925 334.529L184.549 305.784L181.934 304.187Z" fill="#64B4D8"/>
<path d="M119.303 258.753L119.884 257.809L116.252 255.59L115.682 256.519C115.629 256.604 115.555 256.661 115.459 256.682C115.364 256.703 115.272 256.689 115.187 256.64C115.102 256.59 115.045 256.512 115.024 256.417C115.003 256.322 115.017 256.23 115.066 256.145L116.011 254.601L120.259 257.194L120.634 256.58L119.353 255.795C119.271 255.746 119.215 255.671 119.19 255.572C119.165 255.477 119.179 255.385 119.233 255.3C119.286 255.215 119.36 255.159 119.456 255.138C119.551 255.117 119.643 255.131 119.728 255.18L121.317 256.152C121.402 256.205 121.459 256.279 121.48 256.375C121.501 256.47 121.487 256.562 121.438 256.647L119.916 259.127C119.863 259.212 119.788 259.265 119.689 259.286C119.59 259.308 119.498 259.293 119.413 259.24C119.328 259.187 119.279 259.117 119.254 259.021C119.229 258.926 119.247 258.834 119.3 258.749L119.303 258.753Z" fill="#297CA9"/>
<path d="M124.231 252.099L122.517 254.894L120.39 253.593C120.22 253.487 120.11 253.339 120.061 253.145C120.011 252.95 120.04 252.767 120.142 252.6L121.286 250.735L119.788 249.819L118.443 252.014C118.39 252.102 118.316 252.155 118.22 252.18C118.125 252.201 118.033 252.187 117.948 252.134C117.863 252.081 117.806 252.007 117.785 251.911C117.76 251.816 117.774 251.724 117.831 251.636L119.176 249.441C119.282 249.272 119.431 249.162 119.625 249.113C119.82 249.063 120.004 249.091 120.171 249.194L121.668 250.109C121.841 250.215 121.951 250.367 121.997 250.561C122.043 250.756 122.015 250.94 121.909 251.113L120.765 252.979L122.277 253.901L123.615 251.721C123.664 251.639 123.739 251.583 123.838 251.558C123.933 251.533 124.025 251.547 124.11 251.6C124.195 251.653 124.248 251.728 124.273 251.827C124.294 251.925 124.28 252.014 124.231 252.099Z" fill="#297CA9"/>
<path d="M122.946 244.671L124.1 245.377C124.369 245.54 124.535 245.759 124.599 246.024C124.892 245.971 125.154 246.01 125.377 246.148L126.581 246.883C126.751 246.985 126.857 247.134 126.903 247.332C126.949 247.526 126.921 247.71 126.814 247.883L125.484 250.056C125.43 250.141 125.356 250.198 125.261 250.219C125.165 250.243 125.073 250.226 124.988 250.176C124.903 250.127 124.846 250.049 124.825 249.954C124.804 249.858 124.818 249.766 124.868 249.682L126.195 247.515L124.992 246.78C124.907 246.727 124.815 246.713 124.715 246.734C124.616 246.756 124.542 246.809 124.489 246.893L123.731 248.13C123.678 248.215 123.604 248.272 123.508 248.293C123.413 248.314 123.321 248.303 123.232 248.247C123.144 248.19 123.091 248.12 123.07 248.024C123.045 247.929 123.062 247.837 123.112 247.752L123.873 246.508C123.923 246.427 123.937 246.335 123.916 246.236C123.894 246.137 123.838 246.063 123.753 246.01L122.56 245.282L121.215 247.477C121.162 247.561 121.087 247.618 120.992 247.639C120.896 247.66 120.804 247.646 120.719 247.597C120.634 247.547 120.578 247.469 120.556 247.374C120.535 247.279 120.549 247.187 120.599 247.102L121.944 244.907C122.05 244.738 122.199 244.628 122.393 244.582C122.588 244.536 122.769 244.565 122.939 244.667L122.946 244.671Z" fill="#297CA9"/>
<path d="M128.995 243.639L127.714 242.854L126.577 244.706L123.611 242.893C123.526 242.84 123.47 242.766 123.445 242.663C123.42 242.565 123.434 242.469 123.487 242.384C123.54 242.299 123.615 242.25 123.714 242.225C123.813 242.204 123.905 242.218 123.993 242.268L126.337 243.699L127.091 242.469L125.289 241.367C125.204 241.314 125.147 241.239 125.123 241.14C125.098 241.041 125.112 240.95 125.161 240.865C125.211 240.78 125.289 240.727 125.388 240.706C125.487 240.685 125.579 240.699 125.664 240.752L127.466 241.854C127.519 241.769 127.593 241.713 127.689 241.692C127.784 241.667 127.876 241.685 127.961 241.734C128.046 241.784 128.103 241.861 128.124 241.957C128.149 242.052 128.131 242.144 128.082 242.229L129.37 243.017C129.455 243.07 129.508 243.144 129.533 243.243C129.554 243.342 129.54 243.43 129.49 243.515C129.441 243.6 129.363 243.656 129.267 243.678C129.172 243.702 129.08 243.685 128.995 243.635V243.639Z" fill="#297CA9"/>
<path d="M130.917 239.812L131.791 238.388L130.28 237.466L129.14 239.324L126.404 237.653L127.731 235.487C127.781 235.405 127.855 235.349 127.954 235.328C128.053 235.307 128.142 235.317 128.227 235.367C128.312 235.416 128.368 235.494 128.39 235.589C128.411 235.685 128.397 235.777 128.347 235.861L127.402 237.406L128.91 238.324L129.667 237.088C129.77 236.921 129.919 236.815 130.117 236.77C130.315 236.724 130.496 236.748 130.662 236.851L132.173 237.773C132.343 237.876 132.45 238.024 132.496 238.218C132.542 238.413 132.513 238.593 132.411 238.763L131.536 240.187C131.458 240.314 131.345 240.43 131.197 240.537L130.719 240.883C130.591 240.975 130.457 240.978 130.312 240.89C130.227 240.837 130.17 240.766 130.145 240.671C130.121 240.579 130.131 240.491 130.181 240.409C130.22 240.349 130.28 240.289 130.365 240.229L130.786 239.929C130.846 239.897 130.892 239.858 130.92 239.805L130.917 239.812Z" fill="#297CA9"/>
<path d="M128.949 233.497L129.136 233.19C129.19 233.105 129.264 233.052 129.363 233.027C129.462 233.006 129.551 233.02 129.636 233.07C129.721 233.119 129.777 233.197 129.798 233.292C129.823 233.388 129.805 233.48 129.756 233.565L131.791 234.808L133.119 232.642C133.168 232.561 133.246 232.508 133.345 232.483C133.444 232.462 133.536 232.476 133.621 232.526L135.211 233.497C135.295 233.55 135.349 233.625 135.37 233.724C135.391 233.822 135.377 233.914 135.324 233.999L133.812 236.466C133.759 236.551 133.685 236.607 133.586 236.632C133.487 236.657 133.395 236.642 133.313 236.593L129.066 233.999C128.981 233.946 128.928 233.872 128.903 233.773C128.878 233.674 128.896 233.582 128.949 233.494V233.497ZM132.407 235.197L133.381 235.794L134.52 233.936L133.547 233.338L132.407 235.197Z" fill="#297CA9"/>
<path d="M132.103 229.656L131.837 229.493C131.752 229.44 131.696 229.366 131.674 229.271C131.653 229.175 131.667 229.083 131.717 228.999L133.427 226.21L135.317 227.366C135.416 227.426 135.476 227.514 135.497 227.631L135.773 229.352L137.207 230.228C137.292 230.281 137.348 230.356 137.373 230.455C137.398 230.553 137.384 230.645 137.334 230.73C137.285 230.815 137.207 230.871 137.108 230.896C137.009 230.921 136.917 230.907 136.835 230.857L135.281 229.907C135.165 229.836 135.097 229.744 135.076 229.631L134.811 227.91L133.664 227.21L132.524 229.069C132.673 229.221 132.697 229.377 132.598 229.539C132.545 229.624 132.471 229.681 132.375 229.702C132.28 229.727 132.188 229.709 132.103 229.659V229.656Z" fill="#297CA9"/>
<path d="M138.534 227.373L137.03 226.454C136.86 226.352 136.754 226.203 136.708 226.006C136.662 225.811 136.69 225.627 136.796 225.454L134.98 224.345C134.895 224.292 134.839 224.218 134.818 224.122C134.793 224.027 134.807 223.935 134.864 223.846L135.632 222.596C135.685 222.511 135.759 222.458 135.855 222.433C135.95 222.408 136.042 222.426 136.127 222.475L137.943 223.585C138.046 223.419 138.191 223.313 138.386 223.263C138.58 223.214 138.761 223.242 138.934 223.348L140.446 224.271C140.616 224.373 140.722 224.521 140.768 224.719C140.814 224.914 140.785 225.097 140.683 225.264L139.54 227.129C139.433 227.302 139.281 227.412 139.079 227.454C138.878 227.497 138.697 227.469 138.534 227.37V227.373ZM137.412 225.832L138.924 226.755L140.067 224.889L138.555 223.967L137.412 225.832ZM135.667 223.921L137.175 224.839L137.564 224.203L136.056 223.285L135.667 223.921Z" fill="#297CA9"/>
<path d="M143.646 220.415L143.458 220.722C143.408 220.804 143.334 220.86 143.235 220.885C143.139 220.91 143.047 220.896 142.962 220.843C142.877 220.79 142.821 220.715 142.8 220.62C142.775 220.525 142.792 220.433 142.842 220.348L140.807 219.104L139.479 221.27C139.43 221.352 139.355 221.408 139.256 221.429C139.157 221.454 139.069 221.44 138.984 221.39L137.387 220.415C137.306 220.366 137.249 220.291 137.228 220.192C137.207 220.093 137.218 220.005 137.271 219.92L138.786 217.447C138.835 217.365 138.909 217.309 139.009 217.288C139.108 217.263 139.196 217.277 139.281 217.33L143.529 219.924C143.614 219.977 143.67 220.051 143.692 220.146C143.713 220.242 143.699 220.334 143.649 220.419L143.646 220.415ZM140.187 218.715L139.221 218.125L138.078 219.991L139.044 220.581L140.187 218.715Z" fill="#297CA9"/>
<path d="M144.116 218.33L140.432 216.079C140.269 215.98 140.166 215.835 140.12 215.648C140.074 215.461 140.102 215.284 140.201 215.125L141.377 213.206C141.472 213.047 141.617 212.945 141.805 212.902C141.993 212.86 142.169 212.885 142.329 212.983L146.014 215.234C146.176 215.333 146.283 215.478 146.325 215.666C146.368 215.853 146.343 216.026 146.244 216.192L145.072 218.1C144.969 218.266 144.828 218.372 144.64 218.415C144.453 218.457 144.279 218.429 144.116 218.33ZM145.621 215.828L141.989 213.609L140.842 215.482L144.474 217.701L145.621 215.828Z" fill="#297CA9"/>
<path d="M146.891 213.807L143.207 211.556C143.044 211.457 142.941 211.312 142.895 211.125C142.849 210.938 142.877 210.761 142.977 210.602L144.152 208.683C144.247 208.524 144.392 208.422 144.58 208.379C144.768 208.337 144.945 208.362 145.104 208.461L148.789 210.712C148.951 210.81 149.058 210.955 149.1 211.143C149.143 211.33 149.118 211.503 149.019 211.669L147.847 213.577C147.744 213.744 147.603 213.85 147.415 213.892C147.228 213.934 147.054 213.906 146.891 213.807ZM148.396 211.305L144.764 209.086L143.617 210.959L147.249 213.178L148.396 211.305Z" fill="#297CA9"/>
<path d="M149.666 209.28L145.982 207.029C145.819 206.93 145.716 206.785 145.67 206.598C145.624 206.411 145.653 206.234 145.752 206.075L146.927 204.156C147.022 203.997 147.167 203.895 147.355 203.852C147.543 203.81 147.72 203.835 147.879 203.934L151.564 206.185C151.727 206.284 151.833 206.429 151.875 206.616C151.918 206.803 151.893 206.976 151.794 207.142L150.622 209.051C150.52 209.217 150.378 209.323 150.19 209.365C150.003 209.407 149.829 209.379 149.666 209.28ZM151.171 206.778L147.539 204.559L146.392 206.432L150.024 208.651L151.171 206.778Z" fill="#297CA9"/>
<path d="M152.442 204.753L148.757 202.502C148.594 202.403 148.491 202.259 148.445 202.071C148.399 201.884 148.428 201.707 148.527 201.548L149.702 199.629C149.797 199.47 149.943 199.368 150.13 199.326C150.318 199.283 150.495 199.308 150.654 199.407L154.339 201.658C154.502 201.757 154.608 201.902 154.65 202.089C154.693 202.276 154.668 202.449 154.569 202.615L153.397 204.524C153.295 204.69 153.153 204.796 152.965 204.838C152.778 204.881 152.604 204.852 152.442 204.753ZM153.946 202.251L150.314 200.032L149.167 201.905L152.799 204.124L153.946 202.251Z" fill="#297CA9"/>
<path d="M155.217 200.227L151.532 197.976C151.369 197.877 151.266 197.732 151.22 197.544C151.174 197.357 151.203 197.18 151.302 197.021L152.477 195.103C152.573 194.944 152.718 194.841 152.905 194.799C153.093 194.756 153.27 194.781 153.429 194.88L157.114 197.131C157.277 197.23 157.383 197.375 157.425 197.562C157.468 197.749 157.443 197.923 157.344 198.089L156.172 199.997C156.07 200.163 155.928 200.269 155.741 200.311C155.553 200.354 155.379 200.325 155.217 200.227ZM156.721 197.725L153.089 195.505L151.942 197.378L155.574 199.598L156.721 197.725Z" fill="#297CA9"/>
<path d="M157.992 195.7L154.307 193.449C154.144 193.35 154.041 193.205 153.995 193.018C153.949 192.831 153.978 192.654 154.077 192.495L155.252 190.576C155.348 190.417 155.493 190.315 155.68 190.272C155.868 190.23 156.045 190.255 156.204 190.354L159.889 192.605C160.052 192.704 160.158 192.848 160.2 193.036C160.243 193.223 160.218 193.396 160.119 193.562L158.947 195.47C158.845 195.637 158.703 195.743 158.516 195.785C158.328 195.827 158.155 195.799 157.992 195.7ZM159.496 193.198L155.864 190.979L154.718 192.852L158.349 195.071L159.496 193.198Z" fill="#297CA9"/>
<path d="M160.763 191.177L157.079 188.926C156.916 188.827 156.813 188.682 156.767 188.495C156.721 188.307 156.749 188.131 156.848 187.972L158.024 186.053C158.119 185.894 158.264 185.791 158.452 185.749C158.639 185.706 158.816 185.731 158.976 185.83L162.661 188.081C162.823 188.18 162.93 188.325 162.972 188.512C163.014 188.7 162.99 188.873 162.891 189.039L161.719 190.947C161.616 191.113 161.475 191.219 161.287 191.262C161.1 191.304 160.926 191.276 160.763 191.177ZM162.268 188.675L158.636 186.456L157.489 188.329L161.121 190.548L162.268 188.675Z" fill="#297CA9"/>
<path d="M239.821 207.574C239.821 207.574 246.883 193.658 247.18 189.509C247.478 185.36 239.694 200.662 246.161 200.167C252.628 199.672 249.488 198.439 252.607 200.799" stroke="#1B5C87" stroke-width="6.8" stroke-miterlimit="10" stroke-linecap="round"/>
<path d="M189.381 137.103L165.495 176.062L216.809 207.418L240.695 168.459L189.381 137.103Z" fill="#3496C0"/>
<path d="M228.148 165.699C225.213 166.349 212.548 177.929 212.548 177.929C212.548 177.929 208.591 194.428 208.733 197.365C208.878 200.301 217.345 206.538 217.345 206.538L240.002 169.582C240.002 169.582 231.082 165.045 228.148 165.695V165.699Z" fill="#003864"/>
<path d="M217.38 174.893C217.38 174.893 218.378 175.904 217.975 177.954C217.83 178.692 220.205 181.215 219.585 182.226C218.93 183.293 215.564 182.35 214.941 182.813C213.341 184.007 212.042 183.601 212.042 183.601C212.042 183.601 210.934 181.466 208.223 181.268C205.512 181.07 211.876 169.748 213.561 172.561C215.246 175.374 217.38 174.893 217.38 174.893Z" fill="#D89D72"/>
<path d="M212.591 164.296C210.06 161.635 206.198 157.931 206.198 157.931C202.007 150.761 190.464 148.485 189.371 156.758C178.32 161.066 179.074 179.021 191.955 180.975C191.955 180.975 196.96 183.318 200.46 184.307C204.393 185.417 211.15 179.996 212.548 177.932C213.947 175.872 215.274 167.115 212.591 164.299V164.296Z" fill="#1F0609"/>
<path d="M208.34 158.444C209.975 159.444 211.37 162.211 210.796 163.15C210.223 164.09 208.428 164.041 206.789 163.041C205.15 162.041 204.899 160.564 204.871 159.532C204.835 158.26 206.301 157.2 208.34 158.447V158.444Z" fill="#FAB587"/>
<path d="M193.424 182.774C195.059 183.774 198.163 183.756 198.737 182.816C199.31 181.876 198.454 180.304 196.818 179.304C195.183 178.303 193.749 178.749 192.815 179.194C191.664 179.738 191.385 181.523 193.427 182.77L193.424 182.774Z" fill="#FAB587"/>
<path d="M187.937 162.642C183.891 169.243 185.955 174.512 191.696 178.021C194.624 179.809 196.91 181.208 198.889 182.417C203.894 185.473 212.428 181.148 213.77 178.954C215.111 176.759 214.835 165.995 210.095 163.101C208.223 161.956 206.064 160.638 203.363 158.988C197.618 155.479 191.979 156.041 187.934 162.642H187.937Z" fill="#FAB587"/>
<path d="M207.465 161.493L203.639 158.338C197.894 154.829 191.463 155.723 187.417 162.324C183.371 168.925 185.654 174.795 191.399 178.307L196.719 181.092C196.719 181.092 196.1 179.639 194.44 178.717C190.656 176.622 192.224 173.321 193.866 169.363C196.45 163.119 194.588 159.783 194.588 159.783C194.588 159.783 196.259 158.239 199.307 158.462C201.278 158.606 203.682 159.829 204.584 160.462C205.487 161.094 207.473 161.493 207.473 161.493H207.465Z" fill="#1F0609"/>
<path d="M194.004 174.052C192.44 176.607 192.248 178.685 193.087 179.198C194.422 180.014 196.942 180.749 198.754 178.371C200.507 176.067 201.728 172.413 198.323 170.331C197.533 169.847 195.572 171.497 194.004 174.049V174.052ZM198.482 177.954C196.931 179.993 194.772 179.357 193.632 178.66C192.914 178.222 193.077 176.441 194.415 174.254C195.753 172.066 197.434 170.656 198.11 171.07C201.027 172.851 199.983 175.982 198.482 177.954Z" fill="#AE1116"/>
<path d="M200.167 169.261C200.167 169.261 199.576 169.063 199.059 169.907C198.705 170.483 199.183 170.978 199.183 170.978L197.494 170.367C197.494 170.367 198.054 170.13 198.227 169.847C198.312 169.706 198.581 169.398 198.701 169.077C198.818 168.755 198.715 168.374 198.715 168.374L200.167 169.261Z" fill="#AE1116"/>
<path d="M194.84 179.777C194.84 179.777 194.22 180.664 193.831 180.424L192.648 179.703C192.033 179.325 192.79 178.526 192.79 178.526L194.84 179.777Z" fill="#AE1116"/>
<path d="M199.052 169.144C202.457 171.225 205.161 168.476 206.418 165.872C207.717 163.179 205.912 161.274 204.577 160.458C203.738 159.945 201.968 161.059 200.404 163.613C198.839 166.168 198.259 168.66 199.052 169.144ZM199.614 168.621C198.938 168.207 199.434 166.073 200.775 163.889C202.117 161.705 203.628 160.751 204.347 161.189C205.487 161.885 207.034 163.518 205.922 165.822C204.846 168.052 202.531 170.405 199.614 168.621Z" fill="#AE1116"/>
<path d="M205.89 161.751C205.89 161.751 206.4 160.797 206.007 160.561L204.825 159.84C204.209 159.462 203.841 160.5 203.841 160.5L205.89 161.751Z" fill="#AE1116"/>
<path d="M166.182 327.573L172.051 321.583C178.412 315.092 183.392 307.385 186.695 298.925C187.987 295.614 187.445 291.868 185.265 289.059C182.136 285.023 176.486 283.945 172.087 286.546L157.27 295.31C151.882 298.494 147.306 302.872 143.869 308.091C140.424 313.321 135.589 320.103 130.906 324.792L153.171 345.535C157.776 338.984 166.186 327.577 166.186 327.577L166.182 327.573Z" fill="#FFC9A3"/>
<path d="M167.609 293.808C167.609 293.808 175.272 298.08 179.315 305.211C179.315 305.211 187.746 298.706 182.89 292.398C177.339 285.189 167.609 293.804 167.609 293.804V293.808Z" fill="#FFF3EB"/>
<path d="M346.701 256.794V277.148C346.701 279.835 350.712 279.84 350.712 277.148V256.794C350.712 254.106 346.701 254.101 346.701 256.794Z" fill="#0D562A"/>
<path d="M338.937 269.059H358.472C361.053 269.059 361.056 264.881 358.472 264.881H338.937C336.356 264.881 336.353 269.059 338.937 269.059Z" fill="#0D562A"/>
</g>
<defs>
<clipPath id="clip0_120_1663">
<rect width="412" height="288" fill="white" transform="translate(0 47)"/>
</clipPath>
<clipPath id="clip1_120_1663">
<rect width="279" height="346" fill="white" transform="translate(66 -11)"/>
</clipPath>
<clipPath id="clip2_120_1663">
<rect width="366" height="382" fill="white" transform="translate(23)"/>
</clipPath>
<clipPath id="clip3_120_1663">
<rect width="57.6142" height="55.5824" fill="white" transform="matrix(0.984508 0.175337 -0.175904 0.984407 210.822 79.8633)"/>
</clipPath>
</defs>
</svg>
