<svg width="140" height="140" viewBox="0 0 140 140" fill="none" xmlns="http://www.w3.org/2000/svg">
<circle cx="70" cy="70" r="70" fill="#F7FAF3"/>
<path d="M45.7847 82.8203C45.8841 81.1733 45.8976 79.5252 45.8252 77.876" stroke="#274B6B" stroke-opacity="0.996" stroke-width="2"/>
<path d="M45.8252 77.8761C46.1413 76.1286 47.2777 75.8887 48.9377 75.8887C63.3071 75.8919 77.6764 75.8919 92.0458 75.8887C93.6621 75.8887 94.6769 76.0994 95.2021 77.6719" stroke="#CFF09E" stroke-width="2"/>
<path d="M95.2025 77.6719C95.196 79.3497 95.1085 97.0164 95.2625 97.0391" stroke="#2D5771" stroke-opacity="0.996" stroke-width="2"/>
<path d="M95.2623 97.039C95.5378 97.2481 101.191 97.1006 101.948 97.0989C102.764 97.0989 103.406 97.0276 103.875 96.885C106.051 96.2268 107.318 94.4144 107.325 92.1254C107.345 85.9555 107.348 79.8073 107.333 73.6806C107.333 73.6518 107.321 73.6242 107.299 73.6038C107.278 73.5835 107.248 73.572 107.218 73.572L33.7418 73.5493C33.7203 73.5493 33.6996 73.5565 33.6844 73.5693C33.6692 73.582 33.6607 73.5993 33.6607 73.6174C33.6596 79.4555 33.6602 85.292 33.6623 91.1268C33.6623 92.3599 33.7439 93.238 33.9071 93.7611C34.4745 95.58 36.3015 97.1038 38.2808 97.0892C40.7303 97.073 43.2041 97.1865 45.6487 97.0795C45.6708 97.0787 45.6918 97.0695 45.7074 97.0539C45.723 97.0383 45.7322 97.0173 45.733 96.9952C45.8935 92.2843 45.6925 87.541 45.7849 82.8204" stroke="#CFF09E" stroke-width="2"/>
<path d="M95.2621 97.0391L95.2021 77.6719" stroke="#488BA6" stroke-opacity="0.996" stroke-width="2"/>
<path d="M45.8252 77.876L45.7847 82.8203" stroke="#427FA0" stroke-opacity="0.996" stroke-width="2"/>
<path d="M112 67.0648V92.6781C111.684 96.6757 109.392 99.8855 105.66 101.234C104.712 101.577 103.799 101.748 102.922 101.748C100.382 101.746 97.8457 101.745 95.3125 101.746C95.2875 101.746 95.2636 101.756 95.246 101.774C95.2283 101.792 95.2184 101.816 95.2184 101.841C95.2228 103.503 95.2238 105.155 95.2217 106.796C95.2184 108.08 95.0758 109.135 93.9037 109.674C93.5244 109.848 92.7965 109.934 91.7201 109.933C77.4199 109.932 63.1202 109.932 48.8211 109.933C48.097 109.933 47.5648 109.863 47.2243 109.724C45.7848 109.135 45.7783 107.913 45.7783 106.349C45.7783 104.835 45.7778 103.325 45.7767 101.821C45.7767 101.811 45.7747 101.801 45.7709 101.792C45.767 101.782 45.7614 101.774 45.7543 101.767C45.7472 101.76 45.7388 101.754 45.7295 101.75C45.7203 101.746 45.7104 101.745 45.7005 101.745C43.5164 101.749 41.3333 101.749 39.1513 101.743C37.9733 101.741 37.0558 101.666 36.3987 101.518C32.226 100.579 29.3113 97.0696 29 92.7802V66.8832C29.3339 62.5144 32.3962 58.9383 36.671 58.1212C37.3324 57.9948 38.4088 57.9337 39.9002 57.9381C41.9839 57.9456 44.0664 57.9375 46.1479 57.9137C46.1696 57.9133 46.1902 57.9046 46.2053 57.8894C46.2205 57.8743 46.229 57.8539 46.229 57.8327C46.2182 44.5041 46.2176 36.4478 46.2274 33.6638C46.2338 31.5661 47.5891 31.0652 49.4128 31.0652C63.4029 31.0673 77.3929 31.0673 91.3829 31.0652C92.3729 31.0652 93.0564 31.1495 93.4336 31.3181C94.6851 31.879 94.7743 33.0073 94.7743 34.3641C94.7743 42.1918 94.7753 50.0201 94.7775 57.8489C94.7775 57.8701 94.7862 57.8905 94.8016 57.9056C94.8171 57.9208 94.8381 57.9295 94.8602 57.9299C97.3642 57.9397 99.8618 57.9408 102.353 57.9332C107.654 57.9137 111.617 61.793 112 67.0648ZM90.1152 35.7712C90.1152 35.7596 90.1106 35.7485 90.1024 35.7403C90.0942 35.7321 90.0831 35.7275 90.0715 35.7275H50.9285C50.9169 35.7275 50.9058 35.7321 50.8976 35.7403C50.8894 35.7485 50.8848 35.7596 50.8848 35.7712V57.8927C50.8848 57.8984 50.8859 57.9041 50.8881 57.9094C50.8903 57.9147 50.8935 57.9195 50.8976 57.9236C50.9017 57.9277 50.9065 57.9309 50.9118 57.9331C50.9171 57.9353 50.9228 57.9364 50.9285 57.9364H90.0715C90.0831 57.9364 90.0942 57.9318 90.1024 57.9236C90.1106 57.9154 90.1152 57.9043 90.1152 57.8927V35.7712ZM107.351 68.8188C107.331 67.9483 107.419 66.9967 107.2 66.2137C106.717 64.4716 105.63 63.3363 103.94 62.8078C102.932 62.4917 101.546 62.5647 100.409 62.5663C79.8905 62.589 59.3712 62.5987 38.8514 62.5955C36.35 62.5955 34.4582 63.7659 33.7903 66.2575C33.5812 67.0405 33.6606 67.9872 33.6704 68.8383C33.6704 68.8598 33.6779 68.8804 33.6913 68.8956C33.7046 68.9108 33.7228 68.9193 33.7417 68.9193H107.258C107.271 68.9194 107.283 68.9168 107.294 68.9117C107.306 68.9066 107.316 68.8992 107.325 68.8898C107.333 68.8804 107.34 68.8693 107.345 68.8571C107.349 68.8449 107.351 68.8319 107.351 68.8188ZM45.7848 82.8202C45.8842 81.1732 45.8977 79.5251 45.8253 77.8759C46.1414 76.1283 47.2778 75.8884 48.9378 75.8884C63.3072 75.8917 77.6766 75.8917 92.046 75.8884C93.6622 75.8884 94.677 76.0992 95.2022 77.6716C95.1957 79.3495 95.1082 97.0161 95.2622 97.0388C95.5378 97.248 101.191 97.1004 101.948 97.0988C102.764 97.0988 103.406 97.0275 103.875 96.8848C106.051 96.2267 107.318 94.4143 107.325 92.1253C107.345 85.9554 107.348 79.8071 107.333 73.6805C107.333 73.6517 107.321 73.6241 107.299 73.6037C107.278 73.5833 107.248 73.5719 107.218 73.5719L33.7417 73.5492C33.7202 73.5492 33.6996 73.5564 33.6844 73.5691C33.6692 73.5819 33.6606 73.5992 33.6606 73.6173C33.6596 79.4554 33.6601 85.2918 33.6623 91.1267C33.6623 92.3598 33.7439 93.2379 33.9071 93.761C34.4744 95.5798 36.3014 97.1037 38.2808 97.0891C40.7302 97.0729 43.204 97.1863 45.6486 97.0794C45.6707 97.0786 45.6917 97.0694 45.7073 97.0538C45.723 97.0381 45.7321 97.0172 45.7329 96.9951C45.8934 92.2842 45.6924 87.5408 45.7848 82.8202ZM90.561 80.6269C90.561 80.5959 90.5487 80.5662 90.5269 80.5443C90.505 80.5225 90.4753 80.5102 90.4443 80.5102H50.5557C50.5247 80.5102 50.495 80.5225 50.4732 80.5443C50.4513 80.5662 50.439 80.5959 50.439 80.6269V105.157C50.439 105.188 50.4513 105.218 50.4732 105.24C50.495 105.262 50.5247 105.274 50.5557 105.274H90.4443C90.4753 105.274 90.505 105.262 90.5269 105.24C90.5487 105.218 90.561 105.188 90.561 105.157V80.6269Z" fill="#0D562A"/>
<path d="M101.628 68.0489C102.902 68.0489 103.934 67.0168 103.934 65.7437C103.934 64.4705 102.902 63.4385 101.628 63.4385C100.355 63.4385 99.3232 64.4705 99.3232 65.7437C99.3232 67.0168 100.355 68.0489 101.628 68.0489Z" fill="#0D562A"/>
<path d="M95.2623 97.039L95.2023 77.6718C94.677 76.0993 93.6622 75.8886 92.046 75.8886C77.6766 75.8918 63.3073 75.8918 48.9379 75.8886C47.2779 75.8886 46.1415 76.1285 45.8254 77.876L45.7849 82.8204C45.6925 87.541 45.8935 92.2843 45.733 96.9952C45.7322 97.0173 45.723 97.0383 45.7074 97.0539C45.6918 97.0695 45.6708 97.0787 45.6487 97.0795C43.2041 97.1865 40.7303 97.073 38.2808 97.0892C36.3015 97.1038 34.4745 95.58 33.9071 93.7611C33.7439 93.238 33.6623 92.3599 33.6623 91.1268C33.6602 85.292 33.6596 79.4555 33.6607 73.6174C33.6607 73.5993 33.6692 73.582 33.6844 73.5693C33.6996 73.5565 33.7203 73.5493 33.7418 73.5493L107.218 73.572C107.248 73.572 107.278 73.5835 107.299 73.6038C107.321 73.6242 107.333 73.6518 107.333 73.6806C107.348 79.8073 107.345 85.9555 107.325 92.1254C107.318 94.4144 106.051 96.2268 103.875 96.885C103.406 97.0276 102.764 97.0989 101.948 97.0989C101.191 97.1006 95.5378 97.2481 95.2623 97.039Z" fill="#DEF3BE"/>
<path d="M95.202 77.6716L95.262 97.0388C95.108 97.0161 95.1955 79.3495 95.202 77.6716Z" fill="#1C4558" fill-opacity="0.988"/>
<path d="M45.8252 77.876C45.8976 79.5252 45.8841 81.1733 45.7847 82.8203L45.8252 77.876Z" fill="#102E4C" fill-opacity="0.992"/>
<path d="M83.6323 85.6216H56.4596C55.1945 85.6216 54.1689 86.6471 54.1689 87.9122V87.9835C54.1689 89.2486 55.1945 90.2741 56.4596 90.2741H83.6323C84.8974 90.2741 85.9229 89.2486 85.9229 87.9835V87.9122C85.9229 86.6471 84.8974 85.6216 83.6323 85.6216Z" fill="#0D562A"/>
<path d="M69.166 95.5508H56.434C55.1868 95.5508 54.1758 96.5618 54.1758 97.809V97.9387C54.1758 99.1858 55.1868 100.197 56.434 100.197H69.166C70.4132 100.197 71.4242 99.1858 71.4242 97.9387V97.809C71.4242 96.5618 70.4132 95.5508 69.166 95.5508Z" fill="#0D562A"/>
</svg>
