<svg width="366" height="382" viewBox="0 0 366 382" fill="none" xmlns="http://www.w3.org/2000/svg">
<g clip-path="url(#clip0_28_642)">
<path d="M270.047 43.4653H149.798C148.442 43.4653 147.342 44.5633 147.342 45.9178V50.9463C147.342 52.3008 148.442 53.3987 149.798 53.3987H270.047C271.404 53.3987 272.504 52.3008 272.504 50.9463V45.9178C272.504 44.5633 271.404 43.4653 270.047 43.4653Z" fill="#1A1A1A"/>
<path d="M277.388 278.16H143.933C136.776 278.16 136.776 48.4338 143.933 48.4338H277.388C285.494 48.4338 285.494 278.16 277.388 278.16Z" fill="#333333"/>
<path d="M277.388 48.4338H269.088V278.16H277.388C285.494 278.16 285.494 48.4338 277.388 48.4338Z" fill="#4D4D4D"/>
<path d="M143.25 48.4338H151.55V278.16H143.25C135.144 278.16 135.144 48.4338 143.25 48.4338Z" fill="#4D4D4D"/>
<path d="M253.492 66.4878H167.146C165.529 66.4878 164.219 67.7962 164.219 69.4102V201.584C164.219 203.198 165.529 204.506 167.146 204.506H253.492C255.109 204.506 256.42 203.198 256.42 201.584V69.4102C256.42 67.7962 255.109 66.4878 253.492 66.4878Z" fill="#B7CCA1"/>
<path opacity="0.25" d="M151.55 48.4338H149.179V278.16H151.55V48.4338Z" fill="#1A1A1A"/>
<path opacity="0.25" d="M271.481 48.4338H269.084V278.16H271.481V48.4338Z" fill="#1A1A1A"/>
<path d="M123.924 347.44C123.924 347.44 128.476 343.906 131.481 341.365C134.482 338.824 144.468 341.991 144.468 341.991L149.494 343.807C149.494 343.807 152.099 356.341 162.063 357.179C162.226 357.193 162.389 357.2 162.545 357.204C166.7 357.302 169.858 353.454 169.189 349.359L168.006 342.09C167.631 339.786 166.693 337.605 165.274 335.746L159.033 327.566C158.053 326.283 156.683 325.35 155.129 324.912L125.605 316.569L151.398 308.374L159.614 316.668C159.614 316.668 167.019 330.216 175.836 331.015C184.653 331.817 186.515 327.442 186.979 325.46C187.443 323.477 173.751 301.462 172.378 300.621C171.005 299.776 156.69 285.426 156.69 285.426C156.69 285.426 177.018 301.808 187.163 288.914C187.163 288.914 188.473 285.56 179.765 278.927C177.588 277.27 175.507 275.542 173.606 273.884C166.276 267.481 157.437 263.05 147.944 260.873C137.47 258.474 125.563 255.799 124.848 255.862C123.563 255.979 117.666 255.23 115.715 258.643C113.765 262.057 89.5005 279.811 89.5005 279.811L84.4282 347.521L92.4066 353.253L123.927 347.44H123.924Z" fill="#FFB078"/>
<path d="M156.995 288.468C156.995 288.468 129.948 289.479 125.601 279.637C121.255 269.792 123.382 280.231 123.382 280.231C123.382 280.231 119.644 290.645 108.317 294.26C108.317 294.26 95.7621 288.599 93.0507 302.172C90.3393 315.745 97.7868 340.422 97.7868 340.422L156.995 288.472V288.468Z" fill="#E8975D"/>
<path d="M149.087 286.542L134.27 295.306C128.883 298.49 124.306 302.868 120.869 308.088C114.621 317.579 103.786 332.206 97.5991 330.078C88.5447 326.961 94.9586 283.168 94.9586 283.168L101.546 253.477L117.931 228.578C118.08 228.348 118.257 228.14 118.448 227.945C120.508 225.857 134.245 209.199 128.139 195.781C125.902 190.869 119.248 189.887 115.818 194.057C115.404 194.562 114.993 195.141 114.597 195.806C109.942 203.577 98.8203 217.871 98.0805 219.069C97.3443 220.266 77.639 242.692 76.471 245.342C75.3029 247.992 60.5 292.836 55.7392 299.486C50.9819 306.137 44.207 385.82 44.207 385.82L44.3026 435.787L87.7695 431.784C87.7695 431.784 123.435 410.708 123.488 392.916C123.541 375.123 125.7 352.617 127.407 349.638C129.109 346.659 143.183 327.573 143.183 327.573L149.052 321.583C155.412 315.092 160.393 307.384 163.695 298.925C164.987 295.613 164.445 291.868 162.265 289.058C159.136 285.023 153.487 283.945 149.087 286.546V286.542Z" fill="#FFC9A3"/>
<g clip-path="url(#clip1_28_642)">
<path d="M192.582 137.165C188.338 136.333 185.139 132.577 185.17 128.104L185.402 94.1729C185.419 91.7248 186.39 89.4265 188.136 87.7065C189.881 85.9866 192.197 85.0481 194.649 85.0646L206.019 85.1433C206.807 85.1495 207.441 85.7904 207.434 86.5772C207.428 87.3639 206.786 87.9965 205.998 87.9904L194.628 87.9116C192.938 87.8995 191.341 88.5458 190.138 89.7322C188.935 90.9185 188.264 92.5001 188.252 94.1901L188.019 128.124C187.995 131.609 190.817 134.464 194.308 134.49L228.298 134.723C231.789 134.746 234.651 131.93 234.675 128.444L234.751 117.174C234.757 116.388 235.399 115.755 236.187 115.761C236.975 115.767 237.609 116.408 237.603 117.195L237.526 128.465C237.491 133.521 233.345 137.605 228.279 137.573L194.289 137.34C193.706 137.336 193.134 137.278 192.581 137.17L192.582 137.165Z" fill="white"/>
<path d="M218.586 104.072C216.803 102.371 213.977 102.437 212.273 104.217C210.57 105.997 210.636 108.818 212.418 110.519C214.201 112.219 217.028 112.154 218.731 110.374C220.434 108.594 220.369 105.772 218.586 104.072ZM222.823 99.6441C220.048 96.9996 216.173 96.1985 212.733 97.2083C211.993 97.4265 211.488 98.1098 211.505 98.8831L211.507 98.9507C211.533 100.082 212.631 100.855 213.72 100.535C216.006 99.8656 218.579 100.397 220.422 102.155C222.28 103.927 222.923 106.493 222.335 108.816C222.077 109.835 222.77 110.848 223.819 110.95L223.885 110.956C224.718 111.037 225.492 110.501 225.698 109.692C226.593 106.189 225.622 102.316 222.823 99.6441ZM226.927 95.3535C223.022 91.6293 217.728 90.2283 212.777 91.1118C211.947 91.2587 211.346 91.9863 211.365 92.8271L211.367 92.9003C211.39 93.9462 212.35 94.7094 213.382 94.5256C217.281 93.8252 221.45 94.9267 224.527 97.8613C227.788 100.972 229.043 105.4 228.259 109.523C228.072 110.503 228.778 111.425 229.772 111.523L229.838 111.529C230.721 111.613 231.518 111.011 231.679 110.141C232.661 104.909 231.063 99.2967 226.927 95.3535ZM237.366 110.67C238.489 103.762 236.304 96.4311 230.862 91.2428C225.838 86.4499 219.115 84.5113 212.712 85.3726C211.852 85.488 211.217 86.2326 211.237 87.0999L211.238 87.1613C211.262 88.1694 212.152 88.9465 213.156 88.8101C218.553 88.0762 224.227 89.7109 228.464 93.7511C233.044 98.1206 234.887 104.29 233.942 110.106C233.783 111.076 234.479 111.976 235.458 112.072L235.524 112.078C236.415 112.163 237.226 111.549 237.369 110.67L237.366 110.67Z" fill="white"/>
<path d="M197.783 125.556L196.478 125.549L196.463 127.793L194.073 127.775L194.132 119.333L197.997 119.359C198.761 119.364 199.425 119.496 199.987 119.751C200.549 120.009 200.981 120.372 201.285 120.846C201.586 121.317 201.736 121.872 201.733 122.507C201.729 123.119 201.582 123.65 201.293 124.104C201.005 124.557 200.594 124.91 200.061 125.162L201.867 127.827L199.307 127.809L197.79 125.554L197.783 125.556ZM198.945 121.573C198.698 121.354 198.326 121.244 197.836 121.241L196.507 121.232L196.49 123.704L197.818 123.712C198.308 123.715 198.68 123.612 198.932 123.4C199.183 123.188 199.31 122.887 199.313 122.494C199.316 122.1 199.193 121.792 198.945 121.573Z" fill="white"/>
<path d="M207.382 121.27L207.369 123.126L211.102 123.152L211.091 124.997L207.357 124.971L207.337 127.865L204.947 127.847L205.006 119.405L211.638 119.451L211.624 121.296L207.382 121.267L207.382 121.27Z" fill="white"/>
<path d="M214.691 119.473L217.082 119.49L217.023 127.932L214.632 127.915L214.691 119.473Z" fill="white"/>
<path d="M220.719 119.513L224.719 119.54C225.644 119.547 226.465 119.726 227.18 120.075C227.895 120.427 228.447 120.919 228.839 121.558C229.23 122.196 229.422 122.939 229.415 123.793C229.409 124.644 229.206 125.387 228.807 126.019C228.408 126.651 227.85 127.138 227.129 127.48C226.41 127.821 225.588 127.987 224.66 127.982L220.66 127.956L220.719 119.513ZM224.576 126.077C225.301 126.08 225.883 125.881 226.327 125.472C226.768 125.066 226.992 124.499 226.998 123.777C227.002 123.054 226.788 122.485 226.35 122.071C225.913 121.658 225.333 121.45 224.609 121.443L223.1 121.434L223.067 126.065L224.577 126.074L224.576 126.077Z" fill="white"/>
</g>
<path d="M141.216 121.779L47.4601 274.701C44.4259 279.649 45.9848 286.117 50.9418 289.146L141.594 344.54C146.551 347.569 153.029 346.013 156.063 341.064L249.819 188.143C252.853 183.194 251.294 176.727 246.337 173.697L155.685 118.303C150.728 115.274 144.25 116.831 141.216 121.779Z" fill="#89CCE8"/>
<path d="M139.623 147.049L69.2759 261.788L74.5078 264.985L144.855 150.246L139.623 147.049Z" fill="#297CA9"/>
<path d="M136.951 169.003L87.644 249.426L90.2585 251.023L139.566 170.601L136.951 169.003Z" fill="#297CA9"/>
<path d="M143.53 198.114L105.82 259.621L108.434 261.218L146.144 199.712L143.53 198.114Z" fill="#64B4D8"/>
<path d="M136.919 220.822L111.14 262.87L113.754 264.468L139.534 222.419L136.919 220.822Z" fill="#64B4D8"/>
<path d="M142.235 224.074L116.456 266.122L119.07 267.72L144.85 225.671L142.235 224.074Z" fill="#64B4D8"/>
<path d="M138.55 242.018L121.778 269.373L124.393 270.971L141.164 243.616L138.55 242.018Z" fill="#64B4D8"/>
<path d="M149.155 236.649L127.099 272.625L129.714 274.222L151.77 238.247L149.155 236.649Z" fill="#64B4D8"/>
<path d="M155.644 237.993L132.418 275.875L135.032 277.473L158.258 239.59L155.644 237.993Z" fill="#64B4D8"/>
<path d="M155.118 250.776L137.736 279.126L140.351 280.724L157.732 252.374L155.118 250.776Z" fill="#64B4D8"/>
<path d="M156.779 259.994L143.057 282.375L145.672 283.973L159.394 261.591L156.779 259.994Z" fill="#64B4D8"/>
<path d="M163.421 261.09L148.377 285.626L150.991 287.224L166.035 262.687L163.421 261.09Z" fill="#64B4D8"/>
<path d="M172.246 258.619L153.697 288.874L156.311 290.471L174.86 260.217L172.246 258.619Z" fill="#64B4D8"/>
<path d="M176.396 263.777L159.015 292.126L161.63 293.724L179.011 265.374L176.396 263.777Z" fill="#64B4D8"/>
<path d="M215.542 177.168L200.443 201.795L203.058 203.393L218.157 178.765L215.542 177.168Z" fill="#297CA9"/>
<path d="M219.411 180.598L205.263 203.673L207.878 205.271L222.025 182.196L219.411 180.598Z" fill="#297CA9"/>
<path d="M178.058 272.994L164.335 295.376L166.95 296.973L180.672 274.591L178.058 272.994Z" fill="#64B4D8"/>
<path d="M100.421 268.426L82.7979 297.171L85.4123 298.768L103.036 270.024L100.421 268.426Z" fill="#64B4D8"/>
<path d="M76.3796 281.856L71.7544 289.4L76.5697 292.342L81.195 284.798L76.3796 281.856Z" fill="#297CA9"/>
<path d="M105.74 271.682L88.1172 300.426L90.7316 302.024L108.355 273.279L105.74 271.682Z" fill="#64B4D8"/>
<path d="M111.058 274.93L93.4351 303.675L96.0495 305.272L113.673 276.528L111.058 274.93Z" fill="#64B4D8"/>
<path d="M116.377 278.181L98.7534 306.925L101.368 308.523L118.991 279.778L116.377 278.181Z" fill="#64B4D8"/>
<path d="M121.696 281.43L109.155 301.886L111.769 303.483L124.311 283.027L121.696 281.43Z" fill="#64B4D8"/>
<path d="M127.018 284.679L114.476 305.135L117.091 306.732L129.632 286.276L127.018 284.679Z" fill="#64B4D8"/>
<path d="M132.339 287.931L119.797 308.387L122.412 309.984L134.953 289.528L132.339 287.931Z" fill="#64B4D8"/>
<path d="M137.658 291.183L120.035 319.928L122.649 321.525L140.272 292.781L137.658 291.183Z" fill="#64B4D8"/>
<path d="M142.979 294.432L125.356 323.177L127.97 324.774L145.594 296.03L142.979 294.432Z" fill="#64B4D8"/>
<path d="M148.301 297.684L130.677 326.429L133.292 328.026L150.915 299.282L148.301 297.684Z" fill="#64B4D8"/>
<path d="M153.613 300.934L135.99 329.679L138.605 331.276L156.228 302.532L153.613 300.934Z" fill="#64B4D8"/>
<path d="M158.935 304.187L141.312 332.931L143.926 334.529L161.549 305.784L158.935 304.187Z" fill="#64B4D8"/>
<path d="M96.3036 258.753L96.8841 257.809L93.2525 255.59L92.6826 256.52C92.6295 256.604 92.5551 256.661 92.4596 256.682C92.364 256.703 92.272 256.689 92.187 256.64C92.1021 256.59 92.0454 256.513 92.0242 256.417C92.003 256.322 92.0171 256.23 92.0667 256.145L93.0118 254.601L97.2593 257.195L97.6345 256.58L96.3532 255.795C96.2718 255.746 96.2151 255.672 96.1904 255.573C96.1656 255.477 96.1798 255.385 96.2328 255.301C96.2859 255.216 96.3603 255.159 96.4558 255.138C96.5514 255.117 96.6434 255.131 96.7284 255.18L98.3177 256.152C98.4027 256.205 98.4593 256.279 98.4805 256.375C98.5018 256.47 98.4876 256.562 98.4381 256.647L96.916 259.128C96.8629 259.212 96.7886 259.265 96.6895 259.287C96.5904 259.308 96.4983 259.294 96.4134 259.241C96.3284 259.188 96.2789 259.117 96.2541 259.022C96.2293 258.926 96.247 258.834 96.3001 258.749L96.3036 258.753Z" fill="#297CA9"/>
<path d="M101.231 252.099L99.5177 254.894L97.3903 253.594C97.2204 253.488 97.1107 253.339 97.0611 253.145C97.0116 252.95 97.0399 252.767 97.1426 252.601L98.2859 250.735L96.7886 249.82L95.4435 252.014C95.3904 252.102 95.3161 252.155 95.2205 252.18C95.125 252.201 95.0329 252.187 94.948 252.134C94.863 252.081 94.8064 252.007 94.7852 251.912C94.7604 251.816 94.7745 251.724 94.8312 251.636L96.1762 249.441C96.2824 249.272 96.4311 249.162 96.6258 249.113C96.8205 249.063 97.0045 249.092 97.1709 249.194L98.6681 250.109C98.8416 250.215 98.9513 250.367 98.9973 250.562C99.0433 250.756 99.015 250.94 98.9088 251.113L97.7655 252.979L99.277 253.901L100.615 251.721C100.665 251.639 100.739 251.583 100.838 251.558C100.934 251.533 101.026 251.548 101.111 251.601C101.195 251.654 101.249 251.728 101.273 251.827C101.295 251.926 101.28 252.014 101.231 252.099Z" fill="#297CA9"/>
<path d="M99.9457 244.671L101.1 245.378C101.369 245.54 101.535 245.759 101.599 246.024C101.893 245.971 102.154 246.01 102.377 246.148L103.581 246.883C103.751 246.986 103.857 247.134 103.903 247.332C103.949 247.526 103.921 247.71 103.815 247.883L102.484 250.056C102.431 250.141 102.356 250.198 102.261 250.219C102.165 250.244 102.073 250.226 101.988 250.177C101.903 250.127 101.846 250.049 101.825 249.954C101.804 249.859 101.818 249.767 101.868 249.682L103.195 247.516L101.992 246.781C101.907 246.728 101.815 246.713 101.716 246.735C101.616 246.756 101.542 246.809 101.489 246.894L100.731 248.131C100.678 248.215 100.604 248.272 100.509 248.293C100.413 248.314 100.321 248.304 100.232 248.247C100.144 248.191 100.091 248.12 100.07 248.024C100.045 247.929 100.063 247.837 100.112 247.752L100.873 246.509C100.923 246.427 100.937 246.335 100.916 246.236C100.894 246.137 100.838 246.063 100.753 246.01L99.5599 245.282L98.2148 247.477C98.1617 247.562 98.0874 247.618 97.9918 247.639C97.8962 247.661 97.8042 247.646 97.7193 247.597C97.6343 247.547 97.5777 247.47 97.5564 247.374C97.5352 247.279 97.5494 247.187 97.5989 247.102L98.944 244.908C99.0502 244.738 99.1988 244.629 99.3935 244.583C99.5882 244.537 99.7687 244.565 99.9386 244.667L99.9457 244.671Z" fill="#297CA9"/>
<path d="M105.995 243.639L104.714 242.855L103.578 244.706L100.611 242.893C100.526 242.84 100.47 242.766 100.445 242.664C100.42 242.565 100.434 242.469 100.487 242.385C100.541 242.3 100.615 242.25 100.714 242.226C100.813 242.204 100.905 242.218 100.994 242.268L103.337 243.699L104.091 242.469L102.289 241.367C102.204 241.314 102.148 241.24 102.123 241.141C102.098 241.042 102.112 240.95 102.162 240.865C102.211 240.78 102.289 240.727 102.388 240.706C102.487 240.685 102.579 240.699 102.664 240.752L104.466 241.854C104.519 241.77 104.593 241.713 104.689 241.692C104.785 241.667 104.877 241.685 104.962 241.734C105.046 241.784 105.103 241.862 105.124 241.957C105.149 242.052 105.131 242.144 105.082 242.229L106.37 243.017C106.455 243.07 106.508 243.144 106.533 243.243C106.554 243.342 106.54 243.431 106.491 243.515C106.441 243.6 106.363 243.657 106.268 243.678C106.172 243.703 106.08 243.685 105.995 243.635V243.639Z" fill="#297CA9"/>
<path d="M107.917 239.812L108.792 238.388L107.28 237.465L106.14 239.324L103.404 237.653L104.732 235.487C104.781 235.405 104.856 235.349 104.955 235.327C105.054 235.306 105.142 235.317 105.227 235.366C105.312 235.416 105.369 235.494 105.39 235.589C105.411 235.684 105.397 235.776 105.348 235.861L104.402 237.405L105.91 238.324L106.668 237.087C106.771 236.921 106.919 236.815 107.117 236.769C107.316 236.723 107.496 236.748 107.662 236.851L109.174 237.773C109.344 237.875 109.45 238.024 109.496 238.218C109.542 238.412 109.514 238.593 109.411 238.762L108.537 240.186C108.459 240.314 108.346 240.43 108.197 240.536L107.719 240.883C107.592 240.974 107.457 240.978 107.312 240.89C107.227 240.837 107.17 240.766 107.146 240.671C107.121 240.579 107.132 240.49 107.181 240.409C107.22 240.349 107.28 240.289 107.365 240.229L107.786 239.928C107.847 239.897 107.893 239.858 107.921 239.805L107.917 239.812Z" fill="#297CA9"/>
<path d="M105.949 233.497L106.137 233.19C106.19 233.105 106.264 233.052 106.363 233.027C106.462 233.006 106.551 233.02 106.636 233.07C106.721 233.119 106.777 233.197 106.799 233.292C106.823 233.388 106.806 233.479 106.756 233.564L108.791 234.808L110.119 232.642C110.168 232.561 110.246 232.508 110.345 232.483C110.444 232.462 110.537 232.476 110.621 232.525L112.211 233.497C112.296 233.55 112.349 233.624 112.37 233.723C112.391 233.822 112.377 233.914 112.324 233.999L110.813 236.465C110.76 236.55 110.685 236.607 110.586 236.632C110.487 236.656 110.395 236.642 110.314 236.593L106.066 233.999C105.981 233.946 105.928 233.872 105.903 233.773C105.878 233.674 105.896 233.582 105.949 233.494V233.497ZM109.407 235.197L110.381 235.794L111.521 233.935L110.547 233.338L109.407 235.197Z" fill="#297CA9"/>
<path d="M109.103 229.656L108.837 229.493C108.752 229.44 108.696 229.366 108.675 229.271C108.653 229.175 108.668 229.083 108.717 228.999L110.427 226.21L112.317 227.366C112.416 227.426 112.476 227.514 112.497 227.631L112.774 229.352L114.207 230.228C114.292 230.281 114.349 230.356 114.373 230.455C114.398 230.553 114.384 230.645 114.335 230.73C114.285 230.815 114.207 230.871 114.108 230.896C114.009 230.921 113.917 230.907 113.835 230.857L112.282 229.907C112.165 229.836 112.097 229.744 112.076 229.631L111.811 227.91L110.664 227.21L109.524 229.069C109.673 229.221 109.698 229.377 109.598 229.539C109.545 229.624 109.471 229.681 109.375 229.702C109.28 229.727 109.188 229.709 109.103 229.659V229.656Z" fill="#297CA9"/>
<path d="M115.535 227.373L114.03 226.454C113.86 226.352 113.754 226.203 113.708 226.006C113.662 225.811 113.69 225.627 113.797 225.454L111.981 224.345C111.896 224.292 111.839 224.218 111.818 224.122C111.793 224.027 111.807 223.935 111.864 223.846L112.632 222.596C112.685 222.511 112.759 222.458 112.855 222.433C112.951 222.408 113.043 222.426 113.128 222.475L114.943 223.585C115.046 223.419 115.191 223.313 115.386 223.263C115.581 223.214 115.761 223.242 115.934 223.348L117.446 224.271C117.616 224.373 117.722 224.521 117.768 224.719C117.814 224.914 117.786 225.097 117.683 225.264L116.54 227.129C116.434 227.302 116.281 227.412 116.08 227.454C115.878 227.497 115.697 227.469 115.535 227.37V227.373ZM114.412 225.832L115.924 226.755L117.067 224.889L115.556 223.967L114.412 225.832ZM112.667 223.921L114.175 224.839L114.565 224.203L113.057 223.285L112.667 223.921Z" fill="#297CA9"/>
<path d="M120.646 220.415L120.458 220.722C120.409 220.804 120.334 220.86 120.235 220.885C120.14 220.91 120.048 220.896 119.963 220.843C119.878 220.79 119.821 220.715 119.8 220.62C119.775 220.525 119.793 220.433 119.842 220.348L117.807 219.104L116.48 221.27C116.43 221.352 116.356 221.408 116.257 221.429C116.158 221.454 116.069 221.44 115.984 221.39L114.388 220.415C114.306 220.366 114.25 220.291 114.229 220.192C114.207 220.093 114.218 220.005 114.271 219.92L115.786 217.447C115.836 217.365 115.91 217.309 116.009 217.288C116.108 217.263 116.197 217.277 116.282 217.33L120.529 219.924C120.614 219.977 120.671 220.051 120.692 220.146C120.713 220.242 120.699 220.334 120.649 220.419L120.646 220.415ZM117.188 218.715L116.221 218.125L115.078 219.991L116.044 220.581L117.188 218.715Z" fill="#297CA9"/>
<path d="M121.116 218.33L117.432 216.079C117.269 215.98 117.166 215.835 117.12 215.648C117.074 215.461 117.102 215.284 117.202 215.125L118.377 213.206C118.472 213.047 118.617 212.945 118.805 212.902C118.993 212.86 119.17 212.885 119.329 212.984L123.014 215.235C123.176 215.334 123.283 215.479 123.325 215.666C123.368 215.853 123.343 216.026 123.244 216.192L122.072 218.101C121.969 218.267 121.828 218.373 121.64 218.415C121.453 218.458 121.279 218.429 121.116 218.33ZM122.621 215.828L118.989 213.609L117.842 215.482L121.474 217.701L122.621 215.828Z" fill="#297CA9"/>
<path d="M123.892 213.807L120.207 211.556C120.044 211.457 119.942 211.312 119.895 211.125C119.849 210.937 119.878 210.761 119.977 210.602L121.152 208.683C121.248 208.524 121.393 208.421 121.58 208.379C121.768 208.337 121.945 208.361 122.104 208.46L125.789 210.711C125.952 210.81 126.058 210.955 126.101 211.142C126.143 211.33 126.118 211.503 126.019 211.669L124.847 213.577C124.745 213.743 124.603 213.849 124.416 213.892C124.228 213.934 124.055 213.906 123.892 213.807ZM125.396 211.305L121.764 209.086L120.618 210.959L124.249 213.178L125.396 211.305Z" fill="#297CA9"/>
<path d="M126.667 209.28L122.982 207.029C122.819 206.93 122.716 206.785 122.67 206.598C122.624 206.411 122.653 206.234 122.752 206.075L123.927 204.156C124.023 203.997 124.168 203.895 124.355 203.852C124.543 203.81 124.72 203.835 124.879 203.934L128.564 206.185C128.727 206.284 128.833 206.429 128.875 206.616C128.918 206.803 128.893 206.976 128.794 207.142L127.622 209.051C127.52 209.217 127.378 209.323 127.191 209.365C127.003 209.407 126.829 209.379 126.667 209.28ZM128.171 206.778L124.539 204.559L123.392 206.432L127.024 208.651L128.171 206.778Z" fill="#297CA9"/>
<path d="M129.442 204.753L125.757 202.502C125.594 202.403 125.492 202.259 125.446 202.071C125.4 201.884 125.428 201.707 125.527 201.548L126.702 199.629C126.798 199.47 126.943 199.368 127.131 199.326C127.318 199.283 127.495 199.308 127.655 199.407L131.339 201.658C131.502 201.757 131.608 201.902 131.651 202.089C131.693 202.276 131.668 202.449 131.569 202.615L130.398 204.524C130.295 204.69 130.154 204.796 129.966 204.838C129.778 204.881 129.605 204.852 129.442 204.753ZM130.946 202.251L127.315 200.032L126.168 201.905L129.8 204.124L130.946 202.251Z" fill="#297CA9"/>
<path d="M132.217 200.227L128.532 197.976C128.369 197.877 128.267 197.732 128.221 197.545C128.175 197.357 128.203 197.181 128.302 197.022L129.477 195.103C129.573 194.944 129.718 194.841 129.906 194.799C130.093 194.757 130.27 194.781 130.429 194.88L134.114 197.131C134.277 197.23 134.383 197.375 134.426 197.562C134.468 197.75 134.443 197.923 134.344 198.089L133.173 199.997C133.07 200.163 132.928 200.269 132.741 200.312C132.553 200.354 132.38 200.326 132.217 200.227ZM133.721 197.725L130.09 195.506L128.943 197.379L132.574 199.598L133.721 197.725Z" fill="#297CA9"/>
<path d="M134.992 195.7L131.307 193.449C131.144 193.35 131.042 193.205 130.996 193.018C130.95 192.831 130.978 192.654 131.077 192.495L132.252 190.576C132.348 190.417 132.493 190.314 132.68 190.272C132.868 190.23 133.045 190.254 133.204 190.353L136.889 192.604C137.052 192.703 137.158 192.848 137.201 193.035C137.243 193.223 137.218 193.396 137.119 193.562L135.948 195.47C135.845 195.636 135.703 195.742 135.516 195.785C135.328 195.827 135.155 195.799 134.992 195.7ZM136.496 193.198L132.865 190.979L131.718 192.852L135.349 195.071L136.496 193.198Z" fill="#297CA9"/>
<path d="M137.763 191.177L134.079 188.926C133.916 188.827 133.813 188.682 133.767 188.495C133.721 188.307 133.749 188.131 133.848 187.972L135.024 186.053C135.119 185.894 135.264 185.791 135.452 185.749C135.64 185.706 135.817 185.731 135.976 185.83L139.661 188.081C139.823 188.18 139.93 188.325 139.972 188.512C140.015 188.7 139.99 188.873 139.891 189.039L138.719 190.947C138.616 191.113 138.475 191.219 138.287 191.262C138.1 191.304 137.926 191.276 137.763 191.177ZM139.268 188.675L135.636 186.456L134.489 188.329L138.121 190.548L139.268 188.675Z" fill="#297CA9"/>
<path d="M216.822 207.573C216.822 207.573 223.883 193.657 224.181 189.509C224.478 185.36 216.694 200.661 223.161 200.166C229.628 199.672 226.489 198.438 229.607 200.799" stroke="#1B5C87" stroke-width="6.8" stroke-miterlimit="10" stroke-linecap="round"/>
<path d="M166.381 137.103L142.496 176.062L193.81 207.418L217.696 168.459L166.381 137.103Z" fill="#3496C0"/>
<path d="M205.148 165.698C202.213 166.348 189.548 177.929 189.548 177.929C189.548 177.929 185.591 194.428 185.733 197.364C185.878 200.301 194.345 206.538 194.345 206.538L217.002 169.582C217.002 169.582 208.082 165.044 205.148 165.695V165.698Z" fill="#003864"/>
<path d="M194.38 174.893C194.38 174.893 195.378 175.904 194.975 177.953C194.83 178.692 197.205 181.215 196.585 182.226C195.931 183.293 192.564 182.349 191.941 182.812C190.341 184.007 189.042 183.6 189.042 183.6C189.042 183.6 187.935 181.466 185.223 181.268C182.512 181.07 188.876 169.748 190.561 172.561C192.246 175.374 194.38 174.893 194.38 174.893Z" fill="#D89D72"/>
<path d="M189.591 164.295C187.06 161.634 183.199 157.931 183.199 157.931C179.008 150.761 167.465 148.485 166.371 156.758C155.32 161.065 156.074 179.021 168.955 180.975C168.955 180.975 173.96 183.318 177.461 184.307C181.393 185.417 188.151 179.996 189.549 177.932C190.947 175.872 192.274 167.115 189.591 164.299V164.295Z" fill="#1F0609"/>
<path d="M185.34 158.443C186.975 159.443 188.37 162.21 187.797 163.15C187.223 164.09 185.429 164.041 183.79 163.041C182.151 162.041 181.9 160.564 181.871 159.532C181.836 158.26 183.301 157.199 185.34 158.447V158.443Z" fill="#FAB587"/>
<path d="M170.424 182.773C172.059 183.773 175.164 183.756 175.737 182.816C176.311 181.876 175.454 180.303 173.819 179.303C172.183 178.303 170.75 178.748 169.815 179.194C168.665 179.738 168.385 181.522 170.428 182.77L170.424 182.773Z" fill="#FAB587"/>
<path d="M164.937 162.642C160.892 169.243 162.955 174.511 168.696 178.02C171.624 179.809 173.91 181.208 175.889 182.416C180.894 185.473 189.428 181.148 190.77 178.953C192.111 176.759 191.835 165.995 187.096 163.101C185.223 161.956 183.064 160.638 180.363 158.988C174.618 155.479 168.98 156.04 164.934 162.642H164.937Z" fill="#FAB587"/>
<path d="M184.466 161.493L180.64 158.337C174.895 154.828 168.463 155.722 164.417 162.323C160.372 168.925 162.655 174.794 168.4 178.307L173.72 181.091C173.72 181.091 173.1 179.639 171.44 178.717C167.656 176.621 169.224 173.321 170.867 169.363C173.451 163.119 171.589 159.783 171.589 159.783C171.589 159.783 173.259 158.238 176.307 158.461C178.279 158.606 180.682 159.829 181.585 160.461C182.487 161.094 184.473 161.493 184.473 161.493H184.466Z" fill="#1F0609"/>
<path d="M171.004 174.052C169.44 176.607 169.249 178.685 170.088 179.197C171.422 180.014 173.942 180.749 175.754 178.37C177.507 176.066 178.728 172.412 175.323 170.331C174.533 169.847 172.572 171.497 171.004 174.049V174.052ZM175.482 177.953C173.932 179.992 171.772 179.356 170.633 178.66C169.914 178.222 170.077 176.441 171.415 174.254C172.753 172.066 174.434 170.656 175.11 171.07C178.027 172.851 176.983 175.982 175.482 177.953Z" fill="#AE1116"/>
<path d="M177.167 169.26C177.167 169.26 176.576 169.062 176.059 169.907C175.705 170.483 176.183 170.978 176.183 170.978L174.495 170.366C174.495 170.366 175.054 170.13 175.227 169.847C175.312 169.706 175.581 169.398 175.702 169.077C175.818 168.755 175.716 168.373 175.716 168.373L177.167 169.26Z" fill="#AE1116"/>
<path d="M171.84 179.777C171.84 179.777 171.221 180.664 170.831 180.424L169.649 179.703C169.033 179.325 169.791 178.526 169.791 178.526L171.84 179.777Z" fill="#AE1116"/>
<path d="M176.052 169.144C179.457 171.225 182.161 168.476 183.418 165.871C184.717 163.179 182.912 161.274 181.577 160.458C180.739 159.945 178.969 161.058 177.404 163.613C175.84 166.168 175.259 168.659 176.052 169.144ZM176.615 168.621C175.939 168.207 176.434 166.073 177.776 163.889C179.117 161.705 180.629 160.751 181.347 161.189C182.487 161.885 184.034 163.518 182.923 165.822C181.846 168.052 179.532 170.405 176.615 168.621Z" fill="#AE1116"/>
<path d="M182.891 161.751C182.891 161.751 183.4 160.797 183.008 160.56L181.825 159.839C181.209 159.461 180.841 160.5 180.841 160.5L182.891 161.751Z" fill="#AE1116"/>
<path d="M143.183 327.573L149.052 321.583C155.412 315.092 160.393 307.384 163.695 298.925C164.987 295.613 164.446 291.868 162.265 289.058C159.136 285.023 153.487 283.945 149.087 286.546L134.27 295.31C128.883 298.493 124.306 302.872 120.869 308.091C117.425 313.321 112.59 320.102 107.907 324.792L130.171 345.535C134.776 338.983 143.186 327.576 143.186 327.576L143.183 327.573Z" fill="#FFC9A3"/>
<path d="M144.609 293.808C144.609 293.808 152.273 298.08 156.315 305.211C156.315 305.211 164.746 298.705 159.89 292.398C154.34 285.189 144.609 293.804 144.609 293.804V293.808Z" fill="#FFF3EB"/>
<path d="M323.701 256.794V277.148C323.701 279.835 327.712 279.84 327.712 277.148V256.794C327.712 254.106 323.701 254.101 323.701 256.794Z" fill="#0D562A"/>
<path d="M315.937 269.059H335.472C338.053 269.059 338.056 264.881 335.472 264.881H315.937C313.356 264.881 313.353 269.059 315.937 269.059Z" fill="#0D562A"/>
</g>
<defs>
<clipPath id="clip0_28_642">
<rect width="366" height="382" fill="white"/>
</clipPath>
<clipPath id="clip1_28_642">
<rect width="57.6142" height="55.5824" fill="white" transform="matrix(0.984508 0.175337 -0.175904 0.984407 187.822 79.863)"/>
</clipPath>
</defs>
</svg>
