<svg width="342" height="7" viewBox="0 0 342 7" fill="none" xmlns="http://www.w3.org/2000/svg">
<path d="M0.333333 3.5C0.333333 4.97276 1.52724 6.16667 3 6.16667C4.47276 6.16667 5.66667 4.97276 5.66667 3.5C5.66667 2.02724 4.47276 0.833333 3 0.833333C1.52724 0.833333 0.333333 2.02724 0.333333 3.5ZM336.333 3.5C336.333 4.97276 337.527 6.16667 339 6.16667C340.473 6.16667 341.667 4.97276 341.667 3.5C341.667 2.02724 340.473 0.833333 339 0.833333C337.527 0.833333 336.333 2.02724 336.333 3.5ZM3 4H339V3H3V4Z" fill="white"/>
</svg>
