<svg width="20" height="21" viewBox="0 0 20 21" fill="none" xmlns="http://www.w3.org/2000/svg">
<g clip-path="url(#clip0_117_913)">
<path d="M2.50008 3.33984H17.5001C17.7211 3.33984 17.9331 3.42764 18.0893 3.58392C18.2456 3.7402 18.3334 3.95216 18.3334 4.17318V17.5065C18.3334 17.7275 18.2456 17.9395 18.0893 18.0958C17.9331 18.252 17.7211 18.3398 17.5001 18.3398H2.50008C2.27907 18.3398 2.06711 18.252 1.91083 18.0958C1.75455 17.9395 1.66675 17.7275 1.66675 17.5065V4.17318C1.66675 3.95216 1.75455 3.7402 1.91083 3.58392C2.06711 3.42764 2.27907 3.33984 2.50008 3.33984ZM3.33341 5.00651V16.6732H16.6667V5.00651H3.33341ZM5.83341 11.6732H7.50008V15.0065H5.83341V11.6732ZM9.16675 6.67318H10.8334V15.0065H9.16675V6.67318ZM12.5001 9.17318H14.1667V15.0065H12.5001V9.17318Z" fill="#75A69D"/>
</g>
<defs>
<clipPath id="clip0_117_913">
<rect width="20" height="20" fill="white" transform="translate(0 0.839844)"/>
</clipPath>
</defs>
</svg>
