<svg width="20" height="21" viewBox="0 0 20 21" fill="none" xmlns="http://www.w3.org/2000/svg">
<g clip-path="url(#clip0_120_2169)">
<path d="M2.49984 2.83984H17.4998C17.7208 2.83984 17.9328 2.92764 18.0891 3.08392C18.2454 3.2402 18.3332 3.45216 18.3332 3.67318V17.0065C18.3332 17.2275 18.2454 17.4395 18.0891 17.5958C17.9328 17.752 17.7208 17.8398 17.4998 17.8398H2.49984C2.27882 17.8398 2.06686 17.752 1.91058 17.5958C1.7543 17.4395 1.6665 17.2275 1.6665 17.0065V3.67318C1.6665 3.45216 1.7543 3.2402 1.91058 3.08392C2.06686 2.92764 2.27882 2.83984 2.49984 2.83984ZM3.33317 4.50651V16.1732H16.6665V4.50651H3.33317ZM5.83317 11.1732H7.49984V14.5065H5.83317V11.1732ZM9.1665 6.17318H10.8332V14.5065H9.1665V6.17318ZM12.4998 8.67318H14.1665V14.5065H12.4998V8.67318Z" fill="#75A69D"/>
</g>
<defs>
<clipPath id="clip0_120_2169">
<rect width="20" height="20" fill="white" transform="translate(0 0.339844)"/>
</clipPath>
</defs>
</svg>
