<svg width="412" height="288" viewBox="0 0 412 288" fill="none" xmlns="http://www.w3.org/2000/svg">
<g clip-path="url(#clip0_28_590)">
<path d="M165.744 246.031C167.409 247.766 169.077 249.503 170.743 251.238C172.773 253.353 175.925 250.073 173.892 247.957C172.227 246.222 170.559 244.485 168.894 242.75C166.863 240.635 163.711 243.917 165.744 246.031Z" fill="#0D562A"/>
<path d="M179.492 260.355C181.158 262.09 182.825 263.827 184.491 265.562C186.521 267.676 189.673 264.395 187.64 262.28C185.975 260.545 184.307 258.808 182.642 257.073C180.611 254.959 177.46 258.24 179.492 260.355Z" fill="#0D562A"/>
<path d="M168.893 265.562C170.559 263.827 172.226 262.09 173.892 260.355C175.923 258.24 172.773 254.957 170.742 257.073C169.077 258.808 167.409 260.545 165.744 262.28C163.713 264.395 166.863 267.678 168.893 265.562Z" fill="#0D562A"/>
<path d="M182.641 251.238C184.307 249.503 185.974 247.766 187.64 246.031C189.671 243.917 186.521 240.634 184.49 242.75C182.825 244.485 181.157 246.222 179.492 247.957C177.461 250.071 180.611 253.355 182.641 251.238Z" fill="#0D562A"/>
<path d="M82.7612 267.279C82.8799 268.274 82.9987 269.268 83.1174 270.264C83.2623 271.477 85.0676 271.242 84.9227 270.03C84.804 269.036 84.6853 268.041 84.5665 267.045C84.4216 265.833 82.6163 266.067 82.7612 267.279Z" fill="#0D562A"/>
<path d="M83.7387 275.487C83.8575 276.481 83.9762 277.475 84.0949 278.471C84.2398 279.684 86.0452 279.45 85.9003 278.237C85.7815 277.243 85.6628 276.249 85.5441 275.253C85.3992 274.04 83.5938 274.274 83.7387 275.487Z" fill="#0D562A"/>
<path d="M79.0719 274.393C80.027 274.269 80.982 274.147 81.9353 274.023C83.0982 273.872 82.8747 271.992 81.7119 272.142C80.7568 272.266 79.8018 272.389 78.8485 272.513C77.6856 272.663 77.9091 274.543 79.0719 274.393Z" fill="#0D562A"/>
<path d="M86.9499 273.374C87.9049 273.25 88.86 273.128 89.8133 273.004C90.9761 272.854 90.7526 270.974 89.5898 271.124C88.6347 271.248 87.6797 271.37 86.7264 271.494C85.5636 271.644 85.787 273.525 86.9499 273.374Z" fill="#0D562A"/>
<path d="M80.1562 71.2622V67.687C80.1562 65.2949 76.5874 65.2914 76.5874 67.687C76.5874 68.8788 76.5874 70.0705 76.5874 71.2622C76.5874 73.6544 80.1562 73.6579 80.1562 71.2622Z" fill="#0D562A"/>
<path d="M73.9267 72.4102C73.1183 71.568 72.3099 70.7257 71.4998 69.8817C70.8398 69.1932 69.6281 69.1426 68.9769 69.8817C68.3239 70.6244 68.2715 71.7759 68.9769 72.5098C69.7853 73.352 70.5936 74.1943 71.4038 75.0383C72.0637 75.7267 73.2755 75.7774 73.9267 75.0383C74.5797 74.2956 74.6321 73.1441 73.9267 72.4102Z" fill="#0D562A"/>
<path d="M70.3001 77.8132H66.8693C64.5733 77.8132 64.5698 81.5299 66.8693 81.5299H70.3001C72.5961 81.5299 72.5996 77.8132 70.3001 77.8132Z" fill="#0D562A"/>
<path d="M71.4035 84.3029C70.5951 85.1452 69.7867 85.9874 68.9765 86.8314C68.3166 87.5199 68.2659 88.7815 68.9765 89.4595C69.6889 90.141 70.7941 90.1934 71.4995 89.4595C72.3079 88.6172 73.1163 87.775 73.9264 86.931C74.5864 86.2425 74.637 84.9809 73.9264 84.3029C73.214 83.6214 72.1088 83.569 71.4035 84.3029Z" fill="#0D562A"/>
<path d="M76.5874 88.0808V91.656C76.5874 94.0482 80.1562 94.0517 80.1562 91.656V88.0808C80.1562 85.6887 76.5874 85.6852 76.5874 88.0808Z" fill="#0D562A"/>
<path d="M82.8187 86.9329C83.627 87.7751 84.4354 88.6174 85.2456 89.4614C85.9055 90.1498 87.1173 90.2005 87.7685 89.4614C88.4215 88.7187 88.4739 87.5672 87.7685 86.8333C86.9601 85.991 86.1517 85.1488 85.3416 84.3048C84.6816 83.6163 83.4699 83.5657 82.8187 84.3048C82.1657 85.0475 82.1133 86.199 82.8187 86.9329Z" fill="#0D562A"/>
<path d="M86.4435 81.5299H89.8743C92.1703 81.5299 92.1738 77.8132 89.8743 77.8132H86.4435C84.1475 77.8132 84.144 81.5299 86.4435 81.5299Z" fill="#0D562A"/>
<path d="M85.3418 75.0383C86.1502 74.1961 86.9585 73.3538 87.7687 72.5099C88.4287 71.8214 88.4793 70.5598 87.7687 69.8818C87.0563 69.2003 85.9511 69.1479 85.2457 69.8818C84.4374 70.724 83.629 71.5663 82.8188 72.4103C82.1589 73.0987 82.1082 74.3603 82.8188 75.0383C83.5312 75.7198 84.6364 75.7722 85.3418 75.0383Z" fill="#0D562A"/>
<g clip-path="url(#clip1_28_590)">
<path opacity="0.4" d="M327.102 200.14C340.694 174.192 351.178 143.448 340.799 116.058C326.697 78.842 282.081 64.9442 252.751 38.0095C238.613 25.0268 227.296 8.24818 210.034 -0.16056C187.515 -11.1303 160.248 -5.06439 137.714 5.87492C125.278 11.9121 112.913 20.0231 107.011 32.5102C100.468 46.3539 103.151 62.5151 102.782 77.8203C102.406 93.4165 98.6535 108.923 91.8592 122.971C82.4461 142.426 66.9755 160.179 66.0439 181.767C65.3036 198.909 74.1323 215.082 84.8565 228.488C105.683 254.521 136.114 274.27 169.413 276.404C188.467 277.626 208.172 273.221 226.382 278.948C234.702 281.565 242.386 286.231 250.979 287.733C280.533 292.897 315.636 222.027 327.102 200.14Z" fill="#E9EFF1"/>
<path opacity="0.4" d="M279.498 24.0524C291.347 31.1738 305.962 33.5657 319.468 30.5919C321.631 30.1149 323.826 29.4772 325.573 28.1172C328.859 25.5562 329.863 20.8672 329.082 16.7787C328.302 12.6902 326.039 9.055 323.752 5.57546C319.842 -0.373753 314.882 -6.72218 307.805 -7.55611C304.763 -7.91473 301.66 -7.17213 298.633 -7.64577C289.24 -9.11404 285.684 -20.3189 281.904 -29.0338C275.587 -43.5897 240.152 -77.5968 245.539 -42.9215C249.245 -19.0655 257.719 10.9631 279.496 24.0524H279.498Z" fill="#E9EFF1"/>
</g>
<path d="M14.7705 199.519V209.254C14.7705 210.54 16.6876 210.541 16.6876 209.254V199.519C16.6876 198.233 14.7705 198.231 14.7705 199.519Z" fill="#0D562A"/>
<path d="M11.0588 205.385H20.4033C21.6377 205.385 21.6394 203.386 20.4033 203.386H11.0588C9.82438 203.386 9.82263 205.385 11.0588 205.385Z" fill="#0D562A"/>
<path d="M253.546 275.017C253.533 276.109 253.476 276.554 253.146 277.638C252.9 278.443 252.519 279.242 251.897 280.121C252.084 279.857 251.791 280.257 251.742 280.315C251.615 280.467 251.487 280.617 251.354 280.764C251.035 281.112 250.695 281.447 250.328 281.741C250.626 281.501 250.008 281.959 250.028 281.947C249.834 282.08 249.635 282.207 249.43 282.326C248.866 282.658 248.711 282.73 248.252 282.894C246.513 283.516 244.907 283.556 243.222 283.044C242.392 282.793 242 282.607 241.189 282.078C240.507 281.631 239.868 281.059 239.204 280.224C239.07 280.054 238.853 279.731 238.612 279.312C238.494 279.102 238.38 278.889 238.274 278.672C238.282 278.69 237.968 277.966 238.113 278.335C237.963 277.956 237.842 277.559 237.741 277.163C237.568 276.49 237.537 276.313 237.502 275.791C237.367 273.849 237.724 272.273 238.612 270.72C239.45 269.256 240.605 268.17 242.213 267.367C242.405 267.271 242.764 267.126 243.222 266.986C243.45 266.916 243.683 266.855 243.917 266.802C243.897 266.806 244.671 266.661 244.28 266.718C244.767 266.647 245.268 266.633 245.76 266.645C246.007 266.65 246.255 266.666 246.499 266.69C246.977 266.739 246.44 266.662 246.869 266.752C250.824 267.568 253.5 270.952 253.546 275.013C253.581 277.998 258.035 278.007 258.001 275.013C257.939 269.483 254.626 264.653 249.659 262.741C244.894 260.907 239.208 262.558 235.979 266.617C232.627 270.832 232.051 276.907 234.764 281.652C237.493 286.422 242.857 288.798 248.053 287.752C253.827 286.588 257.932 281.043 258.001 275.013C258.036 272.025 253.581 272.023 253.546 275.013V275.017Z" fill="#0D562A"/>
<path d="M305.742 4.10809H319.535C321.625 4.10809 321.628 0.723389 319.535 0.723389H305.742C303.652 0.723389 303.648 4.10809 305.742 4.10809Z" fill="#0D562A"/>
<path d="M27.5776 146.493C26.523 144.836 25.4667 143.178 24.4121 141.521C23.1341 139.514 20.007 141.396 21.2956 143.419C22.3501 145.076 23.4064 146.734 24.461 148.39C25.7391 150.398 28.8661 148.516 27.5776 146.493Z" fill="#0D562A"/>
<path d="M18.8706 132.819C17.816 131.163 16.7597 129.505 15.7051 127.848C14.427 125.84 11.3 127.722 12.5885 129.746C13.6431 131.402 14.6994 133.06 15.754 134.717C17.032 136.725 20.1591 134.843 18.8706 132.819Z" fill="#0D562A"/>
<path d="M28.1206 130.312C26.53 131.411 24.9394 132.51 23.3488 133.609C21.423 134.941 23.2283 138.199 25.1699 136.856C26.7604 135.757 28.351 134.658 29.9416 133.558C31.8674 132.227 30.0621 128.968 28.1206 130.312Z" fill="#0D562A"/>
<path d="M14.998 139.383C13.4074 140.482 11.8168 141.581 10.2262 142.68C8.30042 144.011 10.1058 147.27 12.0473 145.927C13.6379 144.827 15.2285 143.728 16.819 142.629C18.7449 141.298 16.9395 138.039 14.998 139.383Z" fill="#0D562A"/>
<path d="M297.526 66.4952C297.418 67.0544 297.31 67.6118 297.202 68.171C297.111 68.641 297.331 69.132 297.797 69.2649C298.218 69.3854 298.756 69.1163 298.846 68.6445C298.955 68.0854 299.063 67.5279 299.171 66.9688C299.262 66.4987 299.042 66.0077 298.576 65.8749C298.155 65.7543 297.617 66.0234 297.526 66.4952Z" fill="#0D562A"/>
<path d="M300.514 66.5896C300.816 67.0649 301.118 67.5402 301.422 68.0137C301.677 68.4138 302.176 68.5851 302.59 68.3335C302.971 68.1011 303.152 67.5192 302.896 67.1173C302.594 66.642 302.292 66.1667 301.988 65.6932C301.733 65.293 301.233 65.1218 300.82 65.3734C300.439 65.6058 300.257 66.1877 300.514 66.5896Z" fill="#0D562A"/>
<path d="M302.674 64.4437C303.21 64.5573 303.746 64.6691 304.282 64.7827C304.732 64.8771 305.204 64.6464 305.331 64.1624C305.446 63.7238 305.19 63.1646 304.736 63.0685C304.2 62.9549 303.664 62.8431 303.128 62.7295C302.677 62.6352 302.206 62.8658 302.078 63.3498C301.963 63.7884 302.22 64.3476 302.674 64.4437Z" fill="#0D562A"/>
<path d="M302.763 61.3316C303.218 61.0171 303.674 60.7008 304.13 60.3862C304.514 60.1206 304.678 59.6017 304.435 59.1701C304.212 58.7734 303.653 58.5847 303.267 58.8503C302.812 59.1648 302.356 59.4811 301.9 59.7956C301.516 60.0612 301.352 60.5802 301.595 61.0118C301.818 61.4085 302.377 61.5972 302.763 61.3316Z" fill="#0D562A"/>
<path d="M300.704 59.0828C300.813 58.5236 300.921 57.9662 301.029 57.407C301.12 56.937 300.9 56.4459 300.434 56.3131C300.013 56.1926 299.475 56.4617 299.384 56.9335C299.276 57.4926 299.168 58.05 299.06 58.6092C298.969 59.0793 299.189 59.5703 299.655 59.7031C300.076 59.8237 300.614 59.5546 300.704 59.0828Z" fill="#0D562A"/>
<path d="M297.719 58.9884C297.417 58.5131 297.115 58.0378 296.811 57.5642C296.556 57.1641 296.057 56.9929 295.643 57.2445C295.262 57.4769 295.081 58.0588 295.337 58.4607C295.639 58.936 295.941 59.4112 296.245 59.8848C296.5 60.2849 297 60.4562 297.413 60.2046C297.794 59.9722 297.976 59.3903 297.719 58.9884Z" fill="#0D562A"/>
<path d="M295.559 61.1342C295.023 61.0206 294.487 60.9088 293.951 60.7952C293.5 60.7008 293.029 60.9315 292.901 61.4155C292.786 61.8541 293.043 62.4133 293.497 62.5094C294.033 62.623 294.569 62.7348 295.105 62.8484C295.555 62.9427 296.027 62.7121 296.154 62.228C296.269 61.7894 296.013 61.2303 295.559 61.1342Z" fill="#0D562A"/>
<path d="M295.468 64.2446C295.012 64.5591 294.557 64.8754 294.101 65.1899C293.717 65.4555 293.553 65.9745 293.795 66.4061C294.019 66.8028 294.577 66.9915 294.963 66.7259C295.419 66.4113 295.875 66.0951 296.33 65.7805C296.715 65.5149 296.879 64.996 296.636 64.5644C296.413 64.1677 295.854 63.979 295.468 64.2446Z" fill="#0D562A"/>
<path d="M183.134 43.2375C184.148 38.0128 185.163 32.7881 186.177 27.5634C186.326 26.8033 186.472 26.0432 186.621 25.2831C186.815 24.2888 186.345 23.2526 185.36 22.9713C184.47 22.7161 183.335 23.284 183.141 24.2835C182.127 29.5083 181.112 34.733 180.098 39.9577C179.949 40.7178 179.803 41.4779 179.654 42.238C179.46 43.2323 179.93 44.2685 180.915 44.5498C181.805 44.8049 182.94 44.237 183.134 43.2375Z" fill="#0D562A"/>
<path d="M192.234 33.7632C187.219 32.7061 182.205 31.6489 177.189 30.5917C176.459 30.4379 175.729 30.2842 175.001 30.1304C174.046 29.9295 173.053 30.417 172.782 31.4427C172.537 32.3706 173.082 33.5535 174.042 33.7545C179.057 34.8117 184.071 35.8688 189.088 36.926C189.817 37.0798 190.547 37.2336 191.275 37.3873C192.23 37.5883 193.224 37.1008 193.494 36.075C193.739 35.1472 193.194 33.9642 192.234 33.7632Z" fill="#0D562A"/>
<path d="M369.583 67.2695C370.27 63.7363 370.956 60.2013 371.642 56.6681C371.913 55.2736 369.859 54.676 369.587 56.0774C368.901 59.6107 368.215 63.1456 367.528 66.6789C367.258 68.0733 369.311 68.6709 369.583 67.2695Z" fill="#0D562A"/>
<path d="M374.958 61.6762C371.565 60.9615 368.174 60.2468 364.782 59.5304C363.443 59.2473 362.87 61.3878 364.216 61.6709C367.609 62.3856 370.999 63.1003 374.392 63.8167C375.731 64.0998 376.304 61.9592 374.958 61.6762Z" fill="#0D562A"/>
<path d="M80.5315 5.52712C80.9976 3.40054 82.8763 1.89604 85.0064 2.30318C87.0562 2.69459 88.4896 4.81942 88.1003 6.96522C87.7109 9.10753 85.6943 10.5841 83.6253 10.1892C81.5546 9.7925 80.1683 7.67816 80.5315 5.52712C80.7672 4.1292 78.7139 3.52985 78.4764 4.9365C78.0417 7.50517 78.974 10.0546 81.1076 11.4962C83.1906 12.9029 85.9911 12.7404 87.9466 11.1747C89.9405 9.57757 90.8188 6.7101 89.9632 4.21832C89.1217 1.77197 86.927 0.0822429 84.4232 0.0228316C81.5808 -0.0453167 79.105 2.08301 78.4782 4.9365C78.1726 6.32742 80.2277 6.92154 80.5332 5.52712H80.5315Z" fill="#0D562A"/>
<path d="M392.169 119.312C389.213 118.688 386.256 118.066 383.3 117.442C381.96 117.159 381.388 119.3 382.734 119.583C385.69 120.207 388.648 120.829 391.603 121.452C392.943 121.736 393.515 119.595 392.169 119.312Z" fill="#0D562A"/>
<path d="M310.077 223.843C307.121 223.219 304.163 222.597 301.207 221.973C299.868 221.69 299.295 223.83 300.642 224.114C303.598 224.737 306.555 225.359 309.511 225.983C310.85 226.266 311.423 224.126 310.077 223.843Z" fill="#0D562A"/>
</g>
<defs>
<clipPath id="clip0_28_590">
<rect width="412" height="288" fill="white"/>
</clipPath>
<clipPath id="clip1_28_590">
<rect width="279" height="346" fill="white" transform="translate(66 -58)"/>
</clipPath>
</defs>
</svg>
