<svg width="33" height="33" viewBox="0 0 33 33" fill="none" xmlns="http://www.w3.org/2000/svg">
<path d="M5.58335 21.8334V27.1667H10.9167V29.8334H2.91669V21.8334H5.58335ZM29.5834 21.8334V29.8334H21.5834V27.1667H26.9167V21.8334H29.5834ZM10.25 9.83341C10.25 13.1471 12.9363 15.8334 16.25 15.8334C19.5638 15.8334 22.25 13.1471 22.25 9.83341H24.9167C24.9167 13.1765 23.0239 16.0774 20.2515 17.523L20.25 25.8334H12.25L12.2499 17.5237C9.47678 16.0783 7.58335 13.177 7.58335 9.83341H10.25ZM16.25 7.16675C18.091 7.16675 19.5834 8.65913 19.5834 10.5001C19.5834 12.341 18.091 13.8334 16.25 13.8334C14.4091 13.8334 12.9167 12.341 12.9167 10.5001C12.9167 8.65913 14.4091 7.16675 16.25 7.16675ZM10.9167 3.16675V5.83341L5.58335 5.83208V11.1667H2.91669V3.16675H10.9167ZM29.5834 3.16675V11.1667H26.9167V5.83341H21.5834V3.16675H29.5834Z" fill="#9A9FAD"/>
</svg>
