<svg width="16" height="17" viewBox="0 0 16 17" fill="none" xmlns="http://www.w3.org/2000/svg">
<path d="M7.99998 15.1668C11.614 15.1668 14.6666 12.1142 14.6666 8.50016C14.6666 4.88616 11.614 1.8335 7.99998 1.8335C4.38598 1.8335 1.33331 4.88616 1.33331 8.50016C1.33331 12.1142 4.38598 15.1668 7.99998 15.1668ZM7.99998 3.16683C10.8913 3.16683 13.3333 5.60883 13.3333 8.50016C13.3333 11.3915 10.8913 13.8335 7.99998 13.8335C5.10865 13.8335 2.66665 11.3915 2.66665 8.50016C2.66665 5.60883 5.10865 3.16683 7.99998 3.16683Z" fill="black"/>
<path d="M8.00002 11.8332C8.60069 11.8332 9.72069 11.7212 10.4714 10.9718L9.52869 10.0278C9.23335 10.3232 8.66135 10.4998 8.00002 10.4998C6.91602 10.4998 6.00002 9.58384 6.00002 8.49984C6.00002 7.41584 6.91602 6.49984 8.00002 6.49984C8.66202 6.49984 9.23402 6.6765 9.52869 6.97117L10.4714 6.0285C9.72135 5.2785 8.60069 5.1665 8.00002 5.1665C6.16202 5.1665 4.66669 6.66184 4.66669 8.49984C4.66669 10.3378 6.16202 11.8332 8.00002 11.8332Z" fill="black"/>
</svg>
