<svg width="32" height="32" viewBox="0 0 32 32" fill="none" xmlns="http://www.w3.org/2000/svg">
<path d="M28 20.3233V28.0108C28 28.7412 27.4068 29.3332 26.6755 29.3332H5.32453C4.59301 29.3332 4 28.7346 4 27.9898V11.9998H12C12.7364 11.9998 13.3333 11.4029 13.3333 10.6665V2.6665H26.6689C27.4041 2.6665 28 3.27358 28 3.9889V9.00965L16.0016 21.0081L15.9933 26.6598L21.6552 26.6681L28 20.3233ZM29.0376 11.7433L30.9232 13.6289L20.5523 23.9998L18.6639 23.997L18.6667 22.1142L29.0376 11.7433ZM4 9.33317L10.6667 2.67074V9.33317H4Z" fill="#327A6D"/>
</svg>
