<svg width="33" height="33" viewBox="0 0 33 33" fill="none" xmlns="http://www.w3.org/2000/svg">
<path d="M28.75 20.8235V28.511C28.75 29.2414 28.1568 29.8334 27.4255 29.8334H6.07453C5.34301 29.8334 4.75 29.2349 4.75 28.4901V12.5001H12.75C13.4864 12.5001 14.0833 11.9031 14.0833 11.1667V3.16675H27.4189C28.1541 3.16675 28.75 3.77383 28.75 4.48915V9.50989L16.7516 21.5083L16.7433 27.1601L22.4052 27.1683L28.75 20.8235ZM29.7876 12.2436L31.6732 14.1291L21.3023 24.5001L19.4139 24.4973L19.4167 22.6145L29.7876 12.2436ZM4.75 9.83341L11.4167 3.17099V9.83341H4.75Z" fill="#9A9FAD"/>
</svg>
