<svg width="140" height="140" viewBox="0 0 140 140" fill="none" xmlns="http://www.w3.org/2000/svg">
<circle cx="70" cy="70" r="70" fill="#F7FAF3"/>
<path d="M74.5112 32.0366L84.6332 41.1464L85.9828 46.5448H73.8364L74.5112 32.0366Z" fill="#DEF3BE"/>
<rect x="34.6982" y="31.0244" width="20.2439" height="68.8293" fill="#DEF3BE"/>
<path d="M38.0633 29H73.2005C74.7713 29.1637 75.6694 29.7749 76.8333 30.9745C80.1793 34.4242 83.5182 37.8809 86.8501 41.3446C88.0481 42.5913 88.6171 43.5915 88.6203 45.2515C88.6268 48.4634 88.6311 51.6667 88.6333 54.8613C88.6333 54.8819 88.6415 54.9017 88.6561 54.9163C88.6633 54.9236 88.6719 54.9293 88.6813 54.9332C88.6908 54.9371 88.7009 54.9391 88.7111 54.9391C93.2739 54.9359 97.8368 54.9364 102.4 54.9407C103.431 54.9418 104.18 55.0137 104.648 55.1563C106.741 55.7967 108.075 57.7274 108.075 59.9224C108.079 75.3238 108.084 90.7248 108.088 106.125C108.088 107.149 108.013 107.923 107.863 108.45C107.282 110.493 105.827 111.677 103.495 112H64.0218C61.6929 111.674 60.2344 110.472 59.6465 108.395C59.5103 107.916 59.4444 107.258 59.4487 106.422C59.4552 104.904 59.4552 103.386 59.4487 101.867C59.4487 101.856 59.4468 101.846 59.4429 101.837C59.4391 101.827 59.4335 101.819 59.4264 101.812C59.4193 101.804 59.4109 101.799 59.4017 101.795C59.3925 101.791 59.3825 101.789 59.3725 101.789C52.6634 101.784 45.9456 101.785 39.2191 101.79C38.294 101.791 37.5791 101.72 37.0744 101.575C35.3441 101.078 34.2278 99.9607 33.7252 98.2239C33.5826 97.73 33.5112 97.0449 33.5112 96.1684C33.5166 75.7113 33.5166 55.2542 33.5112 34.797C33.5112 33.8125 33.5847 33.0625 33.7317 32.547C34.3099 30.5184 35.7537 29.3361 38.0633 29ZM36.781 96.9238C36.781 97.7846 37.4764 98.5449 38.3372 98.5449C45.3587 98.5449 52.371 98.5449 59.3742 98.5449C59.3948 98.5449 59.4146 98.5366 59.4292 98.5217C59.4438 98.5068 59.452 98.4866 59.452 98.4655C59.4509 85.875 59.4514 73.285 59.4536 60.6956C59.4536 59.603 59.5325 58.806 59.6903 58.3045C60.3128 56.3235 62.2662 54.9375 64.3153 54.9375C71.3238 54.9375 78.322 54.9375 85.31 54.9375C85.3311 54.9375 85.3513 54.929 85.3662 54.9138C85.3811 54.8986 85.3895 54.8779 85.3895 54.8564V48.5342C85.3895 48.5232 85.3874 48.5123 85.3835 48.5022C85.3796 48.492 85.3738 48.4828 85.3666 48.4751C85.3593 48.4674 85.3507 48.4614 85.3413 48.4573C85.3319 48.4533 85.3218 48.4513 85.3117 48.4515C82.8714 48.4569 80.4327 48.4558 77.9957 48.4483C77.0997 48.4461 76.4486 48.3915 76.0422 48.2845C74.4503 47.8679 73.121 46.584 72.6493 45.0294C72.4969 44.5301 72.4207 43.6163 72.4207 42.2881C72.4207 38.9584 72.4207 35.6357 72.4207 32.32C72.4207 32.2994 72.4124 32.2796 72.3975 32.265C72.3826 32.2504 72.3624 32.2422 72.3413 32.2422C61.1979 32.2422 50.055 32.2422 38.9127 32.2422C37.2754 32.2422 36.7567 32.7966 36.7567 34.4777C36.7567 55.2936 36.7648 76.109 36.781 96.9238ZM75.6726 43.5898C75.6743 44.4912 76.3908 45.185 77.2856 45.1899C79.9594 45.205 82.6233 45.212 85.2776 45.2109C85.293 45.211 85.3081 45.2079 85.3222 45.2017C85.3362 45.1956 85.3488 45.1866 85.3592 45.1753C85.3696 45.164 85.3775 45.1507 85.3824 45.1362C85.3874 45.1216 85.3892 45.1062 85.3879 45.091C85.3522 44.6436 85.1809 44.261 84.874 43.9432C81.8587 40.8253 78.8424 37.7074 75.825 34.5895C75.718 34.4793 75.6645 34.5009 75.6645 34.6544C75.6624 37.6026 75.6651 40.5811 75.6726 43.5898ZM104.843 59.8381C104.843 59.3982 104.668 58.9764 104.357 58.6654C104.046 58.3544 103.624 58.1797 103.184 58.1797H64.3525C63.9127 58.1797 63.4909 58.3544 63.1799 58.6654C62.8689 58.9764 62.6942 59.3982 62.6942 59.8381V107.099C62.6942 107.539 62.8689 107.961 63.1799 108.272C63.4909 108.583 63.9127 108.758 64.3525 108.758H103.184C103.624 108.758 104.046 108.583 104.357 108.272C104.668 107.961 104.843 107.539 104.843 107.099V59.8381Z" fill="#0D562A"/>
<path d="M41.4631 42.2934V44.7227C41.4631 44.7986 41.4957 44.8365 41.5609 44.8365H42.1476C42.718 44.8365 43.154 44.7142 43.4555 44.4696C43.757 44.2166 43.9077 43.8665 43.9077 43.4195C43.9077 42.5422 43.3496 42.1036 42.2332 42.1036C41.9806 42.1036 41.7606 42.1205 41.5731 42.1542C41.4998 42.1711 41.4631 42.2175 41.4631 42.2934ZM40.1186 49.8342C39.9312 49.8342 39.7682 49.7625 39.6297 49.6191C39.4911 49.4758 39.4219 49.3071 39.4219 49.1131V41.3824C39.4219 41.1715 39.4871 40.9902 39.6174 40.8384C39.756 40.6865 39.923 40.6022 40.1186 40.5853C40.8438 40.5094 41.5894 40.4714 42.3554 40.4714C43.5777 40.4714 44.4863 40.7118 45.0812 41.1926C45.6842 41.665 45.9857 42.3398 45.9857 43.217C45.9857 43.7822 45.8268 44.2925 45.509 44.748C45.1912 45.195 44.7756 45.5155 44.2622 45.7095C44.2541 45.7095 44.25 45.7138 44.25 45.7222C44.25 45.7391 44.2581 45.7475 44.2744 45.7475C44.6737 45.9837 45.0119 46.4813 45.2889 47.2405L45.9857 49.1637C46.0427 49.3239 46.0223 49.4758 45.9245 49.6191C45.8268 49.7625 45.6964 49.8342 45.5334 49.8342H44.7878C44.5759 49.8342 44.3844 49.771 44.2133 49.6445C44.0422 49.5179 43.924 49.3534 43.8588 49.151L43.2477 47.3291C43.1336 46.9748 42.9951 46.7344 42.8321 46.6079C42.6691 46.4813 42.4165 46.4181 42.0743 46.4181H41.5609C41.4957 46.4181 41.4631 46.456 41.4631 46.532V49.1131C41.4631 49.3071 41.3939 49.4758 41.2553 49.6191C41.1168 49.7625 40.9538 49.8342 40.7664 49.8342H40.1186Z" fill="#0D562A"/>
<path d="M49.2045 45.7602V47.3291C49.2045 47.6074 49.3268 47.8647 49.5712 48.1009C49.8238 48.3286 50.109 48.4425 50.4268 48.4425C50.8017 48.4425 51.0991 48.2864 51.3191 47.9743C51.5391 47.6538 51.6491 47.1772 51.6491 46.5446C51.6491 45.2794 51.2417 44.6467 50.4268 44.6467C50.109 44.6467 49.8238 44.7648 49.5712 45.001C49.3268 45.2288 49.2045 45.4818 49.2045 45.7602ZM47.97 52.6178C47.7826 52.6178 47.6196 52.5461 47.4811 52.4027C47.3425 52.2593 47.2733 52.0906 47.2733 51.8966V43.9762C47.2733 43.7822 47.3425 43.6135 47.4811 43.4701C47.6196 43.3267 47.7826 43.255 47.97 43.255H48.4589C48.6545 43.255 48.8215 43.3267 48.9601 43.4701C49.0986 43.605 49.1719 43.7737 49.1801 43.9762V44.0774C49.1801 44.0858 49.1842 44.09 49.1923 44.09L49.2168 44.0647C49.7383 43.4405 50.3657 43.1284 51.0991 43.1284C51.8569 43.1284 52.4599 43.4237 52.9081 44.0141C53.3644 44.6046 53.5926 45.4481 53.5926 46.5446C53.5926 47.6074 53.3563 48.4425 52.8837 49.0498C52.4192 49.6571 51.8243 49.9608 51.0991 49.9608C50.4228 49.9608 49.8198 49.7035 49.2901 49.189C49.2819 49.1805 49.2738 49.1763 49.2656 49.1763C49.2575 49.1763 49.2534 49.1805 49.2534 49.189V51.8966C49.2534 52.0906 49.1842 52.2593 49.0456 52.4027C48.9071 52.5461 48.7441 52.6178 48.5567 52.6178H47.97Z" fill="#0D562A"/>
<path d="M68.6001 41.9832L58.8329 41.9605C58.1771 41.959 57.6446 42.6661 57.6434 43.5399L57.6433 43.6113C57.6422 44.4851 58.1729 45.1947 58.8287 45.1962L68.5959 45.2189C69.2517 45.2205 69.7842 44.5133 69.7854 43.6395L69.7855 43.5682C69.7866 42.6944 69.2559 41.9848 68.6001 41.9832Z" fill="#0D562A"/>
<path d="M68.6001 48.4676L58.8329 48.4449C58.1771 48.4434 57.6446 49.1505 57.6434 50.0243L57.6433 50.0957C57.6422 50.9695 58.1729 51.6791 58.8287 51.6806L68.5959 51.7033C69.2517 51.7048 69.7842 50.9977 69.7854 50.1239L69.7855 50.0526C69.7866 49.1787 69.2559 48.4691 68.6001 48.4676Z" fill="#0D562A"/>
<rect x="68.438" y="64.0894" width="31.0407" height="12.8211" fill="#DEF3BE"/>
<path d="M54.6132 61.9131H41.5959C40.722 61.9131 40.0137 62.6215 40.0137 63.4953V63.5634C40.0137 64.4372 40.722 65.1455 41.5959 65.1455H54.6132C55.4871 65.1455 56.1954 64.4372 56.1954 63.5634V63.4953C56.1954 62.6215 55.4871 61.9131 54.6132 61.9131Z" fill="#0D562A"/>
<path d="M101.601 77.4253C101.601 77.8673 101.425 78.2912 101.112 78.6037C100.8 78.9162 100.376 79.0918 99.9341 79.0918H67.603C67.161 79.0918 66.7372 78.9162 66.4246 78.6037C66.1121 78.2912 65.9365 77.8673 65.9365 77.4253V63.5747C65.9365 63.1327 66.1121 62.7088 66.4246 62.3963C66.7372 62.0838 67.161 61.9082 67.603 61.9082H99.9341C100.376 61.9082 100.8 62.0838 101.112 62.3963C101.425 62.7088 101.601 63.1327 101.601 63.5747V77.4253ZM98.3584 65.2444C98.3584 65.2195 98.3485 65.1956 98.3309 65.1779C98.3132 65.1603 98.2893 65.1504 98.2644 65.1504H69.2727C69.2478 65.1504 69.2239 65.1603 69.2062 65.1779C69.1886 65.1956 69.1787 65.2195 69.1787 65.2444V75.7556C69.1787 75.7805 69.1886 75.8044 69.2062 75.8221C69.2239 75.8397 69.2478 75.8496 69.2727 75.8496H98.2644C98.2893 75.8496 98.3132 75.8397 98.3309 75.8221C98.3485 75.8044 98.3584 75.7805 98.3584 75.7556V65.2444Z" fill="#0D562A"/>
<path d="M44.9305 68.4087H41.5521C40.7079 68.4087 40.0234 69.0931 40.0234 69.9374V70.0898C40.0234 70.934 40.7079 71.6185 41.5521 71.6185H44.9305C45.7748 71.6185 46.4592 70.934 46.4592 70.0898V69.9374C46.4592 69.0931 45.7748 68.4087 44.9305 68.4087Z" fill="#0D562A"/>
<path d="M54.6571 68.4087H51.2787C50.4344 68.4087 49.75 69.0931 49.75 69.9374V70.0898C49.75 70.934 50.4344 71.6185 51.2787 71.6185H54.6571C55.5013 71.6185 56.1857 70.934 56.1857 70.0898V69.9374C56.1857 69.0931 55.5013 68.4087 54.6571 68.4087Z" fill="#0D562A"/>
<rect x="94.0801" y="84.3333" width="5.39837" height="18.2195" fill="#DEF3BE"/>
<path d="M74.0404 71.6218C74.9294 71.6218 75.6502 70.9011 75.6502 70.0121C75.6502 69.1231 74.9294 68.4023 74.0404 68.4023C73.1514 68.4023 72.4307 69.1231 72.4307 70.0121C72.4307 70.9011 73.1514 71.6218 74.0404 71.6218Z" fill="#0D562A"/>
<path d="M93.5195 68.3975H80.5021C79.6283 68.3975 78.9199 69.1058 78.9199 69.9796V70.0477C78.9199 70.9216 79.6283 71.6299 80.5021 71.6299H93.5195C94.3933 71.6299 95.1017 70.9216 95.1017 70.0477V69.9796C95.1017 69.1058 94.3933 68.3975 93.5195 68.3975Z" fill="#0D562A"/>
<path d="M44.9305 75.8657H41.5521C40.7079 75.8657 40.0234 76.5501 40.0234 77.3944V77.5468C40.0234 78.3911 40.7079 79.0755 41.5521 79.0755H44.9305C45.7748 79.0755 46.4592 78.3911 46.4592 77.5468V77.3944C46.4592 76.5501 45.7748 75.8657 44.9305 75.8657Z" fill="#0D562A"/>
<path d="M54.6571 75.8657H51.2787C50.4344 75.8657 49.75 76.5501 49.75 77.3944V77.5468C49.75 78.3911 50.4344 79.0755 51.2787 79.0755H54.6571C55.5013 79.0755 56.1857 78.3911 56.1857 77.5468V77.3944C56.1857 76.5501 55.5013 75.8657 54.6571 75.8657Z" fill="#0D562A"/>
<path d="M44.9305 82.3501H41.5521C40.7079 82.3501 40.0234 83.0345 40.0234 83.8788V84.0312C40.0234 84.8754 40.7079 85.5599 41.5521 85.5599H44.9305C45.7748 85.5599 46.4592 84.8754 46.4592 84.0312V83.8788C46.4592 83.0345 45.7748 82.3501 44.9305 82.3501Z" fill="#0D562A"/>
<path d="M54.6571 82.3501H51.2787C50.4344 82.3501 49.75 83.0345 49.75 83.8788V84.0312C49.75 84.8754 50.4344 85.5599 51.2787 85.5599H54.6571C55.5013 85.5599 56.1857 84.8754 56.1857 84.0312V83.8788C56.1857 83.0345 55.5013 82.3501 54.6571 82.3501Z" fill="#0D562A"/>
<path d="M75.6518 90.4305C75.6511 90.6467 75.6077 90.8608 75.5242 91.0603C75.4408 91.2598 75.3188 91.441 75.1654 91.5934C75.0119 91.7458 74.8299 91.8665 74.6298 91.9486C74.4297 92.0306 74.2153 92.0725 73.999 92.0717L67.5666 92.0493C67.3503 92.0485 67.1363 92.0052 66.9367 91.9217C66.7372 91.8382 66.556 91.7163 66.4036 91.5628C66.2512 91.4093 66.1305 91.2273 66.0485 91.0272C65.9664 90.8271 65.9245 90.6128 65.9253 90.3965L65.9478 83.964C65.9485 83.7477 65.9919 83.5337 66.0753 83.3342C66.1588 83.1346 66.2807 82.9535 66.4342 82.8011C66.5877 82.6487 66.7697 82.528 66.9698 82.4459C67.1699 82.3639 67.3842 82.322 67.6005 82.3228L74.033 82.3452C74.2493 82.346 74.4633 82.3893 74.6628 82.4728C74.8624 82.5563 75.0435 82.6782 75.1959 82.8317C75.3483 82.9852 75.469 83.1671 75.5511 83.3673C75.6332 83.5674 75.675 83.7817 75.6743 83.998L75.6518 90.4305ZM72.4182 85.6706C72.4182 85.6578 72.4157 85.6452 72.4108 85.6334C72.4058 85.6216 72.3987 85.6109 72.3896 85.6019C72.3806 85.5928 72.3698 85.5857 72.358 85.5808C72.3462 85.576 72.3336 85.5735 72.3208 85.5735L69.2731 85.5788C69.2604 85.5788 69.2477 85.5814 69.2359 85.5863C69.2241 85.5912 69.2134 85.5984 69.2044 85.6074C69.1954 85.6165 69.1882 85.6272 69.1834 85.639C69.1785 85.6508 69.176 85.6635 69.176 85.6763L69.1814 88.7239C69.1814 88.7367 69.1839 88.7493 69.1888 88.7611C69.1937 88.7729 69.2009 88.7836 69.21 88.7926C69.219 88.8016 69.2297 88.8088 69.2416 88.8137C69.2534 88.8185 69.266 88.821 69.2788 88.821L72.3264 88.8157C72.3392 88.8157 72.3519 88.8131 72.3636 88.8082C72.3754 88.8033 72.3862 88.7961 72.3952 88.7871C72.4042 88.778 72.4113 88.7673 72.4162 88.7555C72.4211 88.7437 72.4236 88.731 72.4235 88.7182L72.4182 85.6706Z" fill="#0D562A"/>
<path d="M88.6206 90.4305C88.6198 90.6467 88.5765 90.8608 88.493 91.0603C88.4095 91.2598 88.2876 91.441 88.1341 91.5934C87.9806 91.7458 87.7986 91.8665 87.5985 91.9486C87.3984 92.0306 87.1841 92.0725 86.9678 92.0717L80.5353 92.0493C80.319 92.0485 80.105 92.0052 79.9055 91.9217C79.7059 91.8382 79.5248 91.7163 79.3724 91.5628C79.22 91.4093 79.0993 91.2273 79.0172 91.0272C78.9351 90.8271 78.8933 90.6128 78.8941 90.3965L78.9165 83.964C78.9173 83.7477 78.9606 83.5337 79.0441 83.3342C79.1275 83.1346 79.2495 82.9535 79.403 82.8011C79.5564 82.6487 79.7384 82.528 79.9385 82.4459C80.1387 82.3639 80.353 82.322 80.5693 82.3228L87.0017 82.3452C87.218 82.346 87.4321 82.3893 87.6316 82.4728C87.8311 82.5563 88.0123 82.6782 88.1647 82.8317C88.3171 82.9852 88.4378 83.1671 88.5198 83.3673C88.6019 83.5674 88.6438 83.7817 88.643 83.998L88.6206 90.4305ZM85.387 85.6706C85.387 85.6578 85.3844 85.6452 85.3795 85.6334C85.3746 85.6216 85.3674 85.6109 85.3584 85.6019C85.3493 85.5928 85.3386 85.5857 85.3268 85.5808C85.315 85.576 85.3023 85.5735 85.2895 85.5735L82.2419 85.5788C82.2291 85.5788 82.2165 85.5814 82.2047 85.5863C82.1929 85.5912 82.1822 85.5984 82.1732 85.6074C82.1641 85.6165 82.157 85.6272 82.1521 85.639C82.1473 85.6508 82.1448 85.6635 82.1448 85.6763L82.1501 88.7239C82.1501 88.7367 82.1527 88.7493 82.1576 88.7611C82.1625 88.7729 82.1697 88.7836 82.1787 88.7926C82.1878 88.8016 82.1985 88.8088 82.2103 88.8137C82.2221 88.8185 82.2348 88.821 82.2475 88.821L85.2952 88.8157C85.308 88.8157 85.3206 88.8131 85.3324 88.8082C85.3442 88.8033 85.3549 88.7961 85.3639 88.7871C85.3729 88.778 85.3801 88.7673 85.3849 88.7555C85.3898 88.7437 85.3923 88.731 85.3923 88.7182L85.387 85.6706Z" fill="#0D562A"/>
<path d="M101.617 103.369C101.618 103.586 101.575 103.8 101.493 104.001C101.41 104.201 101.289 104.383 101.136 104.537C100.983 104.69 100.801 104.812 100.601 104.895C100.401 104.979 100.187 105.022 99.9699 105.022L93.5439 105.033C93.3272 105.034 93.1125 104.991 92.9122 104.909C92.7118 104.826 92.5297 104.705 92.3762 104.552C92.2227 104.399 92.1008 104.217 92.0175 104.017C91.9342 103.817 91.8911 103.603 91.8908 103.386L91.8569 83.9945C91.8566 83.7777 91.8989 83.5631 91.9815 83.3627C92.064 83.1623 92.1853 82.9802 92.3383 82.8267C92.4912 82.6732 92.6729 82.5513 92.873 82.468C93.0731 82.3847 93.2876 82.3417 93.5043 82.3413L99.9303 82.3301C100.147 82.3297 100.362 82.372 100.562 82.4546C100.762 82.5372 100.945 82.6584 101.098 82.8114C101.252 82.9644 101.373 83.1461 101.457 83.3462C101.54 83.5462 101.583 83.7608 101.583 83.9775L101.617 103.369ZM98.3582 85.6686C98.3582 85.6441 98.3485 85.6206 98.3312 85.6033C98.3138 85.586 98.2903 85.5762 98.2658 85.5762H95.2084C95.1839 85.5762 95.1604 85.586 95.1431 85.6033C95.1258 85.6206 95.116 85.6441 95.116 85.6686V101.695C95.116 101.719 95.1258 101.743 95.1431 101.76C95.1604 101.777 95.1839 101.787 95.2084 101.787H98.2658C98.2903 101.787 98.3138 101.777 98.3312 101.76C98.3485 101.743 98.3582 101.719 98.3582 101.695V85.6686Z" fill="#0D562A"/>
<path d="M44.9305 88.8345H41.5521C40.7079 88.8345 40.0234 89.5189 40.0234 90.3632V90.5155C40.0234 91.3598 40.7079 92.0442 41.5521 92.0442H44.9305C45.7748 92.0442 46.4592 91.3598 46.4592 90.5155V90.3632C46.4592 89.5189 45.7748 88.8345 44.9305 88.8345Z" fill="#0D562A"/>
<path d="M54.6571 88.8345H51.2787C50.4344 88.8345 49.75 89.5189 49.75 90.3632V90.5155C49.75 91.3598 50.4344 92.0442 51.2787 92.0442H54.6571C55.5013 92.0442 56.1857 91.3598 56.1857 90.5155V90.3632C56.1857 89.5189 55.5013 88.8345 54.6571 88.8345Z" fill="#0D562A"/>
<path d="M75.6518 103.398C75.6503 103.835 75.4751 104.254 75.1649 104.562C74.8546 104.87 74.4347 105.042 73.9974 105.04L67.5682 105.018C67.1309 105.016 66.7122 104.841 66.4041 104.531C66.096 104.221 65.9238 103.801 65.9253 103.364L65.9477 96.9344C65.9493 96.4972 66.1244 96.0784 66.4347 95.7703C66.7449 95.4622 67.1649 95.29 67.6021 95.2915L74.0314 95.3139C74.4686 95.3155 74.8873 95.4906 75.1954 95.8009C75.5035 96.1112 75.6758 96.5311 75.6742 96.9683L75.6518 103.398ZM72.4182 98.6393C72.4182 98.6266 72.4156 98.6139 72.4107 98.6021C72.4058 98.5903 72.3986 98.5796 72.3896 98.5706C72.3805 98.5616 72.3698 98.5544 72.358 98.5496C72.3462 98.5447 72.3335 98.5422 72.3208 98.5422L69.2731 98.5475C69.2603 98.5476 69.2477 98.5501 69.2359 98.555C69.2241 98.5599 69.2134 98.5671 69.2044 98.5762C69.1954 98.5852 69.1882 98.5959 69.1834 98.6078C69.1785 98.6196 69.176 98.6322 69.176 98.645L69.1813 101.693C69.1814 101.705 69.1839 101.718 69.1888 101.73C69.1937 101.742 69.2009 101.752 69.2099 101.761C69.219 101.77 69.2297 101.778 69.2415 101.782C69.2534 101.787 69.266 101.79 69.2788 101.79L72.3264 101.784C72.3392 101.784 72.3518 101.782 72.3636 101.777C72.3754 101.772 72.3861 101.765 72.3952 101.756C72.4042 101.747 72.4113 101.736 72.4162 101.724C72.4211 101.712 72.4235 101.7 72.4235 101.687L72.4182 98.6393Z" fill="#0D562A"/>
<path d="M88.6206 103.399C88.6198 103.615 88.5765 103.83 88.493 104.029C88.4095 104.229 88.2876 104.41 88.1341 104.562C87.9806 104.715 87.7986 104.835 87.5985 104.917C87.3984 104.999 87.1841 105.041 86.9678 105.04L80.5353 105.018C80.319 105.017 80.105 104.974 79.9055 104.89C79.7059 104.807 79.5248 104.685 79.3724 104.532C79.22 104.378 79.0993 104.196 79.0172 103.996C78.9351 103.796 78.8933 103.582 78.8941 103.365L78.9165 96.9328C78.9173 96.7165 78.9606 96.5025 79.0441 96.3029C79.1275 96.1034 79.2495 95.9223 79.403 95.7699C79.5564 95.6174 79.7384 95.4968 79.9385 95.4147C80.1387 95.3326 80.353 95.2908 80.5693 95.2915L87.0017 95.314C87.218 95.3147 87.4321 95.3581 87.6316 95.4415C87.8311 95.525 88.0123 95.647 88.1647 95.8004C88.3171 95.9539 88.4378 96.1359 88.5198 96.336C88.6019 96.5361 88.6438 96.7504 88.643 96.9667L88.6206 103.399ZM85.387 98.6393C85.387 98.6266 85.3844 98.6139 85.3795 98.6021C85.3746 98.5903 85.3674 98.5796 85.3584 98.5706C85.3493 98.5616 85.3386 98.5544 85.3268 98.5496C85.315 98.5447 85.3023 98.5422 85.2895 98.5422L82.2419 98.5476C82.2291 98.5476 82.2165 98.5501 82.2047 98.555C82.1929 98.5599 82.1822 98.5671 82.1732 98.5762C82.1641 98.5852 82.157 98.596 82.1521 98.6078C82.1473 98.6196 82.1448 98.6322 82.1448 98.645L82.1501 101.693C82.1501 101.705 82.1527 101.718 82.1576 101.73C82.1625 101.742 82.1697 101.752 82.1787 101.761C82.1878 101.77 82.1985 101.778 82.2103 101.782C82.2221 101.787 82.2348 101.79 82.2475 101.79L85.2952 101.784C85.308 101.784 85.3206 101.782 85.3324 101.777C85.3442 101.772 85.3549 101.765 85.3639 101.756C85.3729 101.747 85.3801 101.736 85.3849 101.724C85.3898 101.712 85.3923 101.7 85.3923 101.687L85.387 98.6393Z" fill="#0D562A"/>
</svg>
