<svg width="140" height="140" viewBox="0 0 140 140" fill="none" xmlns="http://www.w3.org/2000/svg">
<circle cx="70" cy="70" r="70" fill="#F7FAF3"/>
<g clip-path="url(#clip0_39_1368)">
<path d="M32.7495 44.5545C32.743 64.0217 32.7419 83.4877 32.7462 102.953C32.7462 105.618 33.948 107.388 36.3516 108.263C37.0405 108.515 38.0456 108.555 38.7021 108.555C60.1914 108.556 81.6811 108.556 103.171 108.554C105.766 108.554 107.533 107.435 108.472 105.196C108.813 104.383 108.855 103.34 108.855 102.476C108.864 93.0241 108.861 73.7066 108.847 44.5237" stroke="#0D562A" stroke-width="2"/>
<path d="M108.847 44.5236C108.896 42.133 108.873 39.743 108.78 37.3535C108.678 34.7046 106.547 32.6394 103.919 32.5178C102.917 32.4724 102.09 32.4492 101.439 32.4481C90.7642 32.4383 69.7743 32.4389 38.4688 32.4497C35.3919 32.4513 32.876 34.3545 32.7982 37.5107C32.7409 39.8592 32.7247 42.2071 32.7496 44.5544" stroke="#DEF3BE" stroke-width="2"/>
<path d="M108.847 44.5237L105.41 44.5561" stroke="#DEF3BE" stroke-width="2"/>
<path d="M105.41 44.556L105.358 42.9025C105.358 42.8805 105.35 42.8595 105.337 42.8441C105.324 42.8286 105.307 42.8199 105.289 42.8198H36.3112C36.2928 42.82 36.2751 42.8285 36.2619 42.8436C36.2486 42.8587 36.2407 42.8792 36.2398 42.9009L36.1831 44.522" stroke="#DEF3BE" stroke-width="2"/>
<path d="M36.183 44.522L32.7495 44.5544" stroke="#DEF3BE" stroke-width="2"/>
<path d="M105.41 44.556L105.339 46.229C105.339 46.2394 105.336 46.2497 105.332 46.2592C105.327 46.2686 105.321 46.2772 105.313 46.2842C105.305 46.2913 105.296 46.2968 105.286 46.3004C105.276 46.304 105.265 46.3056 105.255 46.3052C104.647 46.2825 103.494 46.2798 101.794 46.2971C99.6819 46.3176 95.0683 46.3268 87.9527 46.3246C73.7282 46.3203 59.5036 46.3122 45.2791 46.3003C42.4762 46.2971 39.4058 46.2322 36.4279 46.323C36.3738 46.3242 36.3214 46.3018 36.2822 46.2608C36.243 46.2197 36.2202 46.1634 36.2188 46.1042L36.1831 44.522" stroke="#0D562A" stroke-width="2"/>
<path d="M41.4146 36.0227C41.4145 36.0102 41.412 35.9977 41.4072 35.9861C41.4024 35.9745 41.3953 35.964 41.3864 35.9551C41.3775 35.9463 41.367 35.9392 41.3553 35.9345C41.3437 35.9297 41.3313 35.9272 41.3187 35.9272L38.0247 35.933C38.0121 35.933 37.9997 35.9355 37.9881 35.9403C37.9765 35.9452 37.966 35.9522 37.9571 35.9611C37.9482 35.97 37.9412 35.9806 37.9364 35.9922C37.9316 36.0038 37.9292 36.0162 37.9292 36.0288L37.9349 39.2839C37.9349 39.2965 37.9374 39.3089 37.9422 39.3205C37.947 39.3321 37.9541 39.3427 37.963 39.3515C37.9719 39.3604 37.9825 39.3674 37.9941 39.3722C38.0057 39.377 38.0181 39.3795 38.0307 39.3794L41.3247 39.3737C41.3373 39.3737 41.3497 39.3712 41.3613 39.3663C41.3729 39.3615 41.3835 39.3545 41.3923 39.3456C41.4012 39.3367 41.4082 39.3261 41.413 39.3145C41.4178 39.3029 41.4202 39.2904 41.4202 39.2779L41.4146 36.0227Z" stroke="#DEF3BE" stroke-width="2"/>
<path d="M48.3149 35.9851C48.3149 35.9782 48.3136 35.9715 48.311 35.9652C48.3084 35.9589 48.3046 35.9532 48.2998 35.9483C48.295 35.9435 48.2892 35.9397 48.283 35.9371C48.2767 35.9344 48.2699 35.9331 48.2631 35.9331L44.9172 35.9272C44.9104 35.9272 44.9036 35.9286 44.8973 35.9312C44.891 35.9338 44.8853 35.9376 44.8805 35.9424C44.8756 35.9472 44.8718 35.9529 44.8692 35.9592C44.8666 35.9655 44.8652 35.9722 44.8652 35.979L44.8594 39.3185C44.8594 39.3253 44.8607 39.332 44.8633 39.3383C44.8659 39.3446 44.8697 39.3504 44.8745 39.3552C44.8793 39.36 44.885 39.3639 44.8913 39.3665C44.8976 39.3691 44.9044 39.3704 44.9112 39.3704L48.2571 39.3763C48.2639 39.3763 48.2707 39.375 48.2769 39.3724C48.2832 39.3698 48.289 39.366 48.2938 39.3612C48.2986 39.3564 48.3025 39.3506 48.3051 39.3444C48.3077 39.3381 48.309 39.3313 48.3091 39.3245L48.3149 35.9851Z" stroke="#DEF3BE" stroke-width="2"/>
<path d="M103.665 36.0227C103.665 36.0102 103.662 35.9977 103.657 35.9861C103.652 35.9745 103.645 35.964 103.636 35.9551C103.628 35.9463 103.617 35.9392 103.605 35.9345C103.594 35.9297 103.581 35.9272 103.569 35.9272L100.275 35.933C100.262 35.933 100.25 35.9355 100.238 35.9403C100.226 35.9452 100.216 35.9522 100.207 35.9611C100.198 35.97 100.191 35.9806 100.186 35.9922C100.182 36.0038 100.179 36.0162 100.179 36.0288L100.185 39.2839C100.185 39.2965 100.187 39.3089 100.192 39.3205C100.197 39.3321 100.204 39.3427 100.213 39.3515C100.222 39.3604 100.232 39.3674 100.244 39.3722C100.256 39.377 100.268 39.3795 100.281 39.3794L103.575 39.3737C103.587 39.3737 103.6 39.3712 103.611 39.3663C103.623 39.3615 103.633 39.3545 103.642 39.3456C103.651 39.3367 103.658 39.3261 103.663 39.3145C103.668 39.3029 103.67 39.2904 103.67 39.2779L103.665 36.0227Z" stroke="#DEF3BE" stroke-width="2"/>
<path d="M38.0877 83.7347C38.6275 86.035 40.6328 87.7096 43.0337 87.755C43.0449 87.7552 43.0561 87.7535 43.0665 87.75C43.0769 87.7466 43.0864 87.7413 43.0944 87.7347C43.1024 87.728 43.1088 87.7201 43.1131 87.7113C43.1174 87.7026 43.1196 87.6932 43.1196 87.6837V84.401C43.1195 84.3813 43.1106 84.362 43.0945 84.3468C43.0784 84.3316 43.0562 84.3215 43.0321 84.3183C41.6768 84.1351 41.4191 83.2532 41.4191 81.9677C41.4158 73.1511 41.4158 64.334 41.4191 55.5163C41.4191 54.2616 41.7303 53.3862 43.0612 53.2306C43.2677 53.2068 43.4752 53.1949 43.6837 53.1949C54.7364 53.1949 65.7879 53.1933 76.8383 53.19C78.1206 53.1884 79.4305 53.477 79.4305 54.8971C79.4326 63.946 79.4326 72.9955 79.4305 82.0455C79.4305 83.2824 79.1273 84.1383 77.8272 84.315C77.8002 84.319 77.7755 84.3339 77.7576 84.3571C77.7397 84.3804 77.7299 84.4103 77.7299 84.4415V87.6837C77.7299 87.694 77.7322 87.7043 77.7366 87.7138C77.741 87.7234 77.7475 87.732 77.7556 87.7393C77.7638 87.7465 77.7734 87.7522 77.7841 87.756C77.7947 87.7598 77.8061 87.7617 77.8175 87.7615C80.0497 87.6966 81.9772 86.262 82.6451 84.1481C82.8051 83.6401 82.8883 82.8269 82.8947 81.7083C82.9542 69.7706 82.9504 60.8335 82.8834 54.8971C82.8494 51.8656 80.395 49.7549 77.4463 49.7533C66.4974 49.7479 55.5485 49.7479 44.5997 49.7533C43.1482 49.7544 42.1502 49.8382 41.6055 50.0046C39.725 50.5817 38.3033 52.2417 38.0213 54.2227C37.9224 54.9295 37.9353 55.7951 37.9353 56.4744C37.9278 64.5507 37.9294 72.6264 37.9402 80.7016C37.9424 82.3087 37.9915 83.3197 38.0877 83.7347Z" stroke="#0D562A" stroke-width="2"/>
<path d="M103.654 53.2807C103.654 52.3451 103.283 51.4479 102.621 50.7864C101.96 50.1248 101.062 49.7532 100.127 49.7532H89.8913C88.9557 49.7532 88.0585 50.1248 87.3969 50.7864C86.7354 51.4479 86.3638 52.3451 86.3638 53.2807V87.7192C86.3638 88.6547 86.7354 89.552 87.3969 90.2135C88.0585 90.875 88.9557 91.2467 89.8913 91.2467H100.127C101.062 91.2467 101.96 90.875 102.621 90.2135C103.283 89.552 103.654 88.6547 103.654 87.7192V53.2807Z" stroke="#0D562A" stroke-width="2"/>
<path d="M44.8623 105.063H50.0093" stroke="#DEF3BE" stroke-width="2"/>
<path d="M50.0093 105.063L53.4946 105.104" stroke="#0D562A" stroke-width="2"/>
<path d="M53.4946 105.104C58.1288 105.048 62.7624 105.048 67.3955 105.104" stroke="#DEF3BE" stroke-width="2"/>
<path d="M67.3955 105.104L70.7998 105.063" stroke="#0D562A" stroke-width="2"/>
<path d="M70.7998 105.063H75.9468" stroke="#DEF3BE" stroke-width="2"/>
<path d="M75.9469 105.063L79.3642 105.058C79.3857 105.058 79.4063 105.049 79.4215 105.034C79.4367 105.018 79.4452 104.996 79.4452 104.974C79.428 101.999 79.4247 99.0225 79.4355 96.0451C79.4398 94.9103 79.3674 94.0701 79.2183 93.5243C78.5391 91.0408 76.1771 88.982 73.8687 88.1795C71.088 87.2112 68.3602 86.1499 65.6854 84.9957C65.573 84.9482 65.5709 84.8963 65.6789 84.8401C69.0346 83.099 71.182 80.4637 72.1212 76.934C72.6075 75.1103 72.5507 72.9056 72.5426 70.936C72.5362 69.2922 72.5086 68.212 72.46 67.6954C71.9736 62.5274 68.2111 58.0807 63.0884 56.9751C56.5716 55.5696 50.1894 59.5218 48.6623 66.0241C48.471 66.84 48.357 67.9126 48.3203 69.2419C48.2716 70.9819 48.2916 72.7202 48.3802 74.457C48.6153 79.0301 51.0648 82.7148 55.1402 84.8223C55.2731 84.8914 55.2704 84.9552 55.1321 85.0135C52.9555 85.9451 50.7573 86.8157 48.5375 87.6251C45.5482 88.7161 42.5816 90.1184 41.6462 93.4432C41.4927 93.9901 41.416 94.832 41.416 95.9689C41.4182 98.9614 41.4187 101.956 41.4176 104.951C41.4172 104.973 41.4252 104.994 41.44 105.01C41.4548 105.026 41.4753 105.036 41.4971 105.037C42.6199 105.115 43.7417 105.124 44.8625 105.063" stroke="#0D562A" stroke-width="2"/>
<path d="M75.9468 105.063C75.9976 101.784 76.0084 98.5043 75.9792 95.2233C75.95 92.0686 71.68 91.036 68.7783 89.9871C66.9529 89.3257 65.2621 88.5638 63.5276 87.7873C61.6649 86.9541 62.1561 85.3557 62.1966 83.7119C62.2274 82.5187 63.0185 82.2237 64.0431 81.7552C66.6255 80.5734 68.3536 78.2844 68.8837 75.5529C69.0015 74.9434 69.0604 74.0042 69.0604 72.7354C69.0587 70.7545 69.2127 68.3439 68.801 66.6823C67.9985 63.4336 65.1341 60.7426 61.84 60.2498C56.6071 59.4652 51.8346 63.3623 51.7941 68.7167C51.7811 70.4157 51.5688 73.8556 52.0308 75.869C52.6338 78.4903 54.3716 80.6901 56.8973 81.7974C57.8635 82.2221 58.6805 82.6598 58.6821 83.7102C58.6837 85.0233 59.0906 86.9686 57.6333 87.6446C54.8018 88.9577 51.9108 90.1233 48.9604 91.1413C47.0297 91.8076 44.8542 92.9829 44.8574 95.3513C44.8628 98.5903 44.8645 101.828 44.8623 105.063" stroke="#DEF3BE" stroke-width="2"/>
<path d="M70.8 105.063L70.7984 96.5267C70.7984 96.503 70.79 96.4803 70.7751 96.4636C70.7602 96.4469 70.74 96.4375 70.7189 96.4375H67.4362C67.4156 96.4375 67.3958 96.4484 67.3812 96.4679C67.3666 96.4873 67.3584 96.5137 67.3584 96.5413L67.3957 105.104" stroke="#DEF3BE" stroke-width="2"/>
<path d="M53.4946 105.104L53.4914 96.525C53.4914 96.5018 53.4832 96.4796 53.4686 96.4631C53.454 96.4467 53.4342 96.4375 53.4136 96.4375H50.1714C50.1357 96.4375 50.1015 96.45 50.0762 96.4722C50.051 96.4944 50.0368 96.5245 50.0368 96.5558L50.0093 105.063" stroke="#DEF3BE" stroke-width="2"/>
<path d="M86.3636 94.7822C86.3636 94.772 86.3616 94.7618 86.3577 94.7524C86.3538 94.7429 86.3481 94.7344 86.3409 94.7271C86.3337 94.7199 86.3251 94.7141 86.3156 94.7102C86.3062 94.7063 86.2961 94.7042 86.2859 94.7042L82.9983 94.6985C82.9881 94.6985 82.978 94.7005 82.9685 94.7044C82.9591 94.7083 82.9505 94.714 82.9432 94.7212C82.936 94.7284 82.9303 94.737 82.9263 94.7464C82.9224 94.7558 82.9204 94.7659 82.9204 94.7762L82.9146 98.0994C82.9145 98.1096 82.9165 98.1197 82.9204 98.1292C82.9243 98.1386 82.93 98.1472 82.9372 98.1545C82.9445 98.1617 82.953 98.1674 82.9625 98.1714C82.9719 98.1753 82.982 98.1773 82.9922 98.1774L86.2798 98.1831C86.29 98.1831 86.3002 98.1811 86.3096 98.1772C86.319 98.1733 86.3276 98.1676 86.3349 98.1604C86.3421 98.1532 86.3479 98.1446 86.3518 98.1352C86.3557 98.1257 86.3577 98.1156 86.3578 98.1054L86.3636 94.7822Z" stroke="#0D562A" stroke-width="2"/>
<path d="M93.2863 94.7924C93.2863 94.7796 93.2838 94.767 93.2788 94.7552C93.2739 94.7434 93.2668 94.7327 93.2577 94.7237C93.2487 94.7147 93.2379 94.7075 93.2261 94.7027C93.2143 94.6978 93.2017 94.6953 93.1889 94.6953L89.9013 94.7011C89.8885 94.7011 89.8759 94.7036 89.8641 94.7085C89.8523 94.7134 89.8416 94.7206 89.8326 94.7297C89.8235 94.7387 89.8164 94.7494 89.8115 94.7613C89.8067 94.7731 89.8042 94.7857 89.8042 94.7985L89.8099 98.0828C89.81 98.0956 89.8125 98.1082 89.8174 98.12C89.8223 98.1318 89.8295 98.1425 89.8385 98.1515C89.8476 98.1606 89.8583 98.1677 89.8701 98.1726C89.8819 98.1774 89.8946 98.1799 89.9074 98.1799L93.1949 98.1742C93.2077 98.1742 93.2204 98.1716 93.2322 98.1667C93.244 98.1618 93.2547 98.1546 93.2637 98.1456C93.2727 98.1365 93.2798 98.1258 93.2847 98.114C93.2896 98.1022 93.2921 98.0895 93.292 98.0767L93.2863 94.7924Z" stroke="#0D562A" stroke-width="2"/>
<path d="M103.659 94.7621C103.659 94.7564 103.657 94.7507 103.655 94.7454C103.653 94.7401 103.65 94.7353 103.646 94.7312C103.642 94.7272 103.637 94.724 103.632 94.7218C103.626 94.7196 103.62 94.7185 103.615 94.7185L96.777 94.7424C96.7654 94.7424 96.7543 94.7471 96.7461 94.7553C96.7379 94.7635 96.7334 94.7747 96.7334 94.7863L96.745 98.116C96.745 98.1218 96.7462 98.1274 96.7484 98.1328C96.7506 98.1381 96.7539 98.1429 96.7579 98.1469C96.762 98.151 96.7669 98.1542 96.7722 98.1564C96.7775 98.1585 96.7832 98.1597 96.7889 98.1596L103.627 98.1358C103.638 98.1357 103.649 98.1311 103.658 98.1228C103.666 98.1146 103.67 98.1034 103.67 98.0918L103.659 94.7621Z" stroke="#0D562A" stroke-width="2"/>
<path d="M103.642 101.67C103.642 101.659 103.637 101.648 103.629 101.64C103.621 101.631 103.609 101.627 103.598 101.627H82.9612C82.9496 101.627 82.9385 101.631 82.9303 101.64C82.9221 101.648 82.9175 101.659 82.9175 101.67V105.026C82.9175 105.038 82.9221 105.049 82.9303 105.057C82.9385 105.065 82.9496 105.07 82.9612 105.07H103.598C103.609 105.07 103.621 105.065 103.629 105.057C103.637 105.049 103.642 105.038 103.642 105.026V101.67Z" stroke="#0D562A" stroke-width="2"/>
<path d="M100.184 53.2418C100.184 53.2302 100.179 53.219 100.171 53.2108C100.163 53.2026 100.151 53.198 100.14 53.198H89.8524C89.8408 53.198 89.8296 53.2026 89.8214 53.2108C89.8132 53.219 89.8086 53.2302 89.8086 53.2418V58.3385C89.8086 58.3501 89.8132 58.3612 89.8214 58.3694C89.8296 58.3776 89.8408 58.3823 89.8524 58.3823H100.14C100.151 58.3823 100.163 58.3776 100.171 58.3694C100.179 58.3612 100.184 58.3501 100.184 58.3385V53.2418Z" stroke="#0D562A" stroke-width="2"/>
<path d="M100.182 72.2912C100.182 72.2846 100.181 72.2781 100.178 72.272C100.176 72.2659 100.172 72.2604 100.167 72.2557C100.163 72.251 100.157 72.2473 100.151 72.2448C100.145 72.2423 100.138 72.241 100.132 72.241H89.8574C89.8508 72.241 89.8442 72.2423 89.8382 72.2448C89.8321 72.2473 89.8265 72.251 89.8218 72.2557C89.8172 72.2604 89.8135 72.2659 89.811 72.272C89.8084 72.2781 89.8071 72.2846 89.8071 72.2912V79.0836C89.8071 79.0969 89.8124 79.1097 89.8218 79.1191C89.8313 79.1286 89.8441 79.1339 89.8574 79.1339H100.132C100.145 79.1339 100.158 79.1286 100.167 79.1191C100.177 79.1097 100.182 79.0969 100.182 79.0836V72.2912Z" stroke="#0D562A" stroke-width="2"/>
<path d="M100.182 82.6808C100.182 82.6623 100.175 82.6446 100.162 82.6315C100.149 82.6184 100.131 82.6111 100.112 82.6111H89.8768C89.8677 82.6111 89.8586 82.6129 89.8502 82.6164C89.8417 82.6199 89.834 82.625 89.8275 82.6315C89.8211 82.638 89.8159 82.6457 89.8124 82.6541C89.8089 82.6626 89.8071 82.6716 89.8071 82.6808V87.7062C89.8071 87.7153 89.8089 87.7244 89.8124 87.7329C89.8159 87.7413 89.8211 87.749 89.8275 87.7555C89.834 87.7619 89.8417 87.7671 89.8502 87.7706C89.8586 87.7741 89.8677 87.7759 89.8768 87.7759H100.112C100.131 87.7759 100.149 87.7685 100.162 87.7555C100.175 87.7424 100.182 87.7247 100.182 87.7062V82.6808Z" stroke="#DEF3BE" stroke-width="2"/>
<path d="M37.6987 29H103.92C108.565 29.2983 112.134 32.8015 112.3 37.4799V103.54C112.084 108.221 108.539 111.771 103.86 112H37.6792C32.9537 111.757 29.6256 108.226 29.2998 103.561V37.3389C29.5981 32.7512 33.0802 29.2059 37.6987 29ZM32.7495 44.5544C32.743 64.0216 32.7419 83.4877 32.7463 102.953C32.7463 105.618 33.948 107.388 36.3516 108.263C37.0405 108.515 38.0456 108.555 38.7021 108.555C60.1914 108.556 81.6811 108.556 103.171 108.554C105.766 108.554 107.533 107.434 108.472 105.196C108.813 104.382 108.855 103.34 108.855 102.476C108.864 93.024 108.861 73.7065 108.847 44.5236C108.896 42.133 108.873 39.743 108.78 37.3535C108.678 34.7046 106.547 32.6394 103.919 32.5178C102.917 32.4724 102.09 32.4491 101.438 32.4481C90.7641 32.4383 69.7742 32.4389 38.4687 32.4497C35.3919 32.4513 32.8759 34.3545 32.7981 37.5107C32.7408 39.8592 32.7246 42.2071 32.7495 44.5544Z" fill="#0D562A"/>
<path d="M108.847 44.5236L105.41 44.556L105.358 42.9025C105.358 42.8805 105.35 42.8595 105.337 42.8441C105.324 42.8286 105.307 42.8199 105.289 42.8198H36.3111C36.2927 42.82 36.2751 42.8285 36.2618 42.8436C36.2485 42.8587 36.2406 42.8792 36.2398 42.9009L36.183 44.522L32.7496 44.5544C32.7247 42.2071 32.7409 39.8592 32.7982 37.5107C32.876 34.3545 35.3919 32.4513 38.4688 32.4497C69.7743 32.4389 90.7642 32.4383 101.439 32.4481C102.09 32.4492 102.917 32.4724 103.919 32.5178C106.547 32.6394 108.678 34.7046 108.78 37.3535C108.873 39.743 108.896 42.133 108.847 44.5236ZM41.4147 36.0228C41.4147 36.0102 41.4122 35.9978 41.4074 35.9862C41.4025 35.9746 41.3955 35.9641 41.3866 35.9552C41.3777 35.9463 41.3671 35.9393 41.3555 35.9345C41.3439 35.9297 41.3315 35.9273 41.3189 35.9273L38.0248 35.9331C38.0123 35.9331 37.9999 35.9356 37.9883 35.9404C37.9767 35.9452 37.9661 35.9523 37.9573 35.9612C37.9484 35.9701 37.9414 35.9806 37.9366 35.9923C37.9318 36.0039 37.9293 36.0163 37.9294 36.0289L37.935 39.284C37.9351 39.2966 37.9376 39.309 37.9424 39.3206C37.9472 39.3322 37.9543 39.3427 37.9632 39.3516C37.9721 39.3605 37.9826 39.3675 37.9942 39.3723C38.0059 39.3771 38.0183 39.3795 38.0309 39.3795L41.3249 39.3738C41.3375 39.3737 41.3499 39.3712 41.3615 39.3664C41.3731 39.3616 41.3836 39.3545 41.3925 39.3456C41.4014 39.3367 41.4084 39.3262 41.4132 39.3146C41.418 39.3029 41.4204 39.2905 41.4204 39.2779L41.4147 36.0228ZM48.315 35.9851C48.315 35.9783 48.3137 35.9715 48.3111 35.9652C48.3085 35.9589 48.3047 35.9532 48.2999 35.9484C48.295 35.9435 48.2893 35.9397 48.283 35.9371C48.2767 35.9345 48.27 35.9331 48.2632 35.9331L44.9173 35.9273C44.9105 35.9273 44.9037 35.9286 44.8974 35.9312C44.8911 35.9338 44.8854 35.9376 44.8806 35.9424C44.8757 35.9472 44.8719 35.9529 44.8693 35.9592C44.8667 35.9655 44.8653 35.9722 44.8653 35.979L44.8595 39.3185C44.8594 39.3253 44.8608 39.3321 44.8634 39.3384C44.866 39.3447 44.8698 39.3504 44.8746 39.3552C44.8794 39.36 44.8851 39.3639 44.8914 39.3665C44.8977 39.3691 44.9044 39.3705 44.9113 39.3705L48.2572 39.3763C48.264 39.3763 48.2707 39.375 48.277 39.3724C48.2833 39.3698 48.2891 39.366 48.2939 39.3612C48.2987 39.3564 48.3025 39.3507 48.3052 39.3444C48.3078 39.3381 48.3091 39.3313 48.3091 39.3245L48.315 35.9851ZM103.665 36.0228C103.665 36.0102 103.662 35.9978 103.657 35.9862C103.653 35.9746 103.645 35.9641 103.637 35.9552C103.628 35.9463 103.617 35.9393 103.606 35.9345C103.594 35.9297 103.581 35.9273 103.569 35.9273L100.275 35.9331C100.262 35.9331 100.25 35.9356 100.238 35.9404C100.227 35.9452 100.216 35.9523 100.207 35.9612C100.198 35.9701 100.191 35.9806 100.187 35.9923C100.182 36.0039 100.179 36.0163 100.179 36.0289L100.185 39.284C100.185 39.2966 100.188 39.309 100.192 39.3206C100.197 39.3322 100.204 39.3427 100.213 39.3516C100.222 39.3605 100.233 39.3675 100.244 39.3723C100.256 39.3771 100.268 39.3795 100.281 39.3795L103.575 39.3738C103.587 39.3737 103.6 39.3712 103.612 39.3664C103.623 39.3616 103.634 39.3545 103.642 39.3456C103.651 39.3367 103.658 39.3262 103.663 39.3146C103.668 39.3029 103.67 39.2905 103.67 39.2779L103.665 36.0228Z" fill="#DEF3BE"/>
<path d="M41.3189 35.9272L38.0248 35.9329C37.972 35.933 37.9293 35.9759 37.9294 36.0287L37.935 39.2839C37.9351 39.3367 37.978 39.3795 38.0309 39.3794L41.3249 39.3736C41.3777 39.3735 41.4205 39.3306 41.4204 39.2778L41.4147 36.0227C41.4146 35.9698 41.3717 35.9271 41.3189 35.9272Z" fill="#0D562A"/>
<path d="M48.263 35.9332L44.9171 35.9273C44.8885 35.9273 44.8652 35.9505 44.8651 35.9791L44.8593 39.3186C44.8593 39.3472 44.8825 39.3705 44.9111 39.3705L48.257 39.3764C48.2857 39.3764 48.3089 39.3532 48.309 39.3246L48.3148 35.9851C48.3149 35.9565 48.2917 35.9332 48.263 35.9332Z" fill="#0D562A"/>
<path d="M103.569 35.9272L100.275 35.9329C100.222 35.933 100.179 35.9759 100.179 36.0287L100.185 39.2839C100.185 39.3367 100.228 39.3795 100.281 39.3794L103.575 39.3736C103.628 39.3735 103.67 39.3306 103.67 39.2778L103.665 36.0227C103.665 35.9698 103.622 35.9271 103.569 35.9272Z" fill="#0D562A"/>
<path d="M105.41 44.556L105.339 46.229C105.339 46.2394 105.336 46.2497 105.332 46.2592C105.327 46.2686 105.321 46.2772 105.313 46.2842C105.305 46.2913 105.296 46.2968 105.286 46.3004C105.276 46.304 105.265 46.3056 105.255 46.3052C104.647 46.2825 103.494 46.2798 101.794 46.2971C99.6819 46.3176 95.0683 46.3268 87.9527 46.3246C73.7282 46.3203 59.5036 46.3122 45.2791 46.3003C42.4762 46.2971 39.4058 46.2322 36.4279 46.323C36.3738 46.3242 36.3214 46.3018 36.2822 46.2608C36.243 46.2197 36.2202 46.1634 36.2188 46.1042L36.1831 44.522L36.2398 42.9009C36.2407 42.8792 36.2486 42.8587 36.2619 42.8436C36.2751 42.8285 36.2928 42.82 36.3112 42.8198H105.289C105.307 42.8199 105.324 42.8286 105.337 42.8441C105.35 42.8595 105.358 42.8805 105.358 42.9025L105.41 44.556Z" fill="#0D562A"/>
<path d="M36.183 44.522L36.2186 46.1042C36.22 46.1634 36.2428 46.2197 36.282 46.2608C36.3212 46.3018 36.3736 46.3242 36.4278 46.323C39.4057 46.2322 42.4761 46.2971 45.2789 46.3003C59.5035 46.3122 73.728 46.3203 87.9526 46.3246C95.0681 46.3268 99.6817 46.3176 101.793 46.2971C103.493 46.2798 104.647 46.2825 105.255 46.3052C105.265 46.3056 105.276 46.304 105.286 46.3004C105.296 46.2968 105.305 46.2913 105.313 46.2842C105.321 46.2772 105.327 46.2686 105.331 46.2592C105.336 46.2497 105.338 46.2394 105.339 46.229L105.41 44.556L108.847 44.5236C108.861 73.7065 108.864 93.024 108.855 102.476C108.855 103.34 108.813 104.382 108.472 105.196C107.533 107.434 105.766 108.554 103.171 108.554C81.6811 108.556 60.1914 108.556 38.7021 108.555C38.0456 108.555 37.0405 108.515 36.3516 108.263C33.948 107.388 32.7462 105.618 32.7462 102.953C32.7419 83.4877 32.743 64.0216 32.7495 44.5544L36.183 44.522ZM38.0877 83.7346C38.6276 86.0349 40.6329 87.7095 43.0337 87.7549C43.0449 87.7551 43.0561 87.7534 43.0665 87.75C43.077 87.7465 43.0865 87.7413 43.0945 87.7346C43.1025 87.728 43.1088 87.72 43.1131 87.7113C43.1175 87.7025 43.1197 87.6931 43.1196 87.6836V84.4009C43.1196 84.3812 43.1107 84.3619 43.0945 84.3467C43.0784 84.3315 43.0562 84.3214 43.0321 84.3182C41.6769 84.135 41.4191 83.2531 41.4191 81.9676C41.4159 73.151 41.4159 64.3339 41.4191 55.5162C41.4191 54.2615 41.7303 53.3861 43.0613 53.2305C43.2677 53.2067 43.4752 53.1948 43.6838 53.1948C54.7364 53.1948 65.7879 53.1932 76.8384 53.19C78.1207 53.1883 79.4305 53.4769 79.4305 54.897C79.4327 63.9459 79.4327 72.9954 79.4305 82.0454C79.4305 83.2823 79.1274 84.1383 77.8272 84.315C77.8002 84.3189 77.7755 84.3338 77.7576 84.3571C77.7398 84.3803 77.73 84.4102 77.73 84.4414V87.6836C77.73 87.6939 77.7322 87.7042 77.7366 87.7137C77.741 87.7233 77.7475 87.7319 77.7556 87.7392C77.7638 87.7464 77.7735 87.7521 77.7841 87.756C77.7947 87.7598 77.8061 87.7616 77.8175 87.7614C80.0498 87.6966 81.9772 86.2619 82.6451 84.148C82.8051 83.64 82.8883 82.8268 82.8948 81.7082C82.9542 69.7705 82.9504 60.8334 82.8834 54.897C82.8494 51.8655 80.3951 49.7549 77.4463 49.7532C66.4974 49.7478 55.5485 49.7478 44.5997 49.7532C43.1483 49.7543 42.1502 49.8381 41.6055 50.0045C39.7251 50.5816 38.3034 52.2416 38.0213 54.2226C37.9224 54.9294 37.9354 55.7951 37.9354 56.4743C37.9278 64.5506 37.9294 72.6263 37.9402 80.7015C37.9424 82.3086 37.9916 83.3196 38.0877 83.7346ZM103.655 53.2807C103.655 52.3452 103.283 51.448 102.621 50.7864C101.96 50.1249 101.063 49.7532 100.127 49.7532H89.8914C88.9559 49.7532 88.0586 50.1249 87.3971 50.7864C86.7356 51.448 86.3639 52.3452 86.3639 53.2807V87.7193C86.3639 88.6548 86.7356 89.552 87.3971 90.2136C88.0586 90.8751 88.9559 91.2468 89.8914 91.2468H100.127C101.063 91.2468 101.96 90.8751 102.621 90.2136C103.283 89.552 103.655 88.6548 103.655 87.7193V53.2807ZM44.8623 105.063H50.0093L53.4946 105.104C58.1288 105.048 62.7624 105.048 67.3955 105.104L70.7998 105.063H75.9468L79.364 105.058C79.3855 105.058 79.4062 105.05 79.4214 105.034C79.4366 105.018 79.4451 104.997 79.4451 104.974C79.4278 101.999 79.4246 99.0226 79.4354 96.0452C79.4397 94.9104 79.3673 94.0702 79.2181 93.5244C78.5389 91.0409 76.177 88.9821 73.8685 88.1796C71.0878 87.2113 68.3601 86.15 65.6852 84.9958C65.5729 84.9483 65.5707 84.8964 65.6788 84.8402C69.0344 83.0991 71.1818 80.4638 72.121 76.9341C72.6073 75.1104 72.5506 72.9057 72.5425 70.9361C72.536 69.2923 72.5084 68.2121 72.4598 67.6955C71.9735 62.5275 68.2109 58.0808 63.0883 56.9752C56.5715 55.5697 50.1892 59.522 48.6621 66.0242C48.4709 66.8401 48.3568 67.9127 48.3201 69.242C48.2715 70.982 48.2915 72.7204 48.3801 74.4571C48.6151 79.0302 51.0646 82.7149 55.14 84.8224C55.273 84.8915 55.2703 84.9553 55.1319 85.0136C52.9553 85.9452 50.7571 86.8158 48.5373 87.6252C45.548 88.7162 42.5814 90.1185 41.6461 93.4433C41.4926 93.9902 41.4159 94.8321 41.4159 95.969C41.418 98.9615 41.4186 101.956 41.4175 104.951C41.417 104.973 41.425 104.994 41.4399 105.01C41.4547 105.026 41.4751 105.036 41.4969 105.037C42.6198 105.115 43.7416 105.124 44.8623 105.063ZM86.3636 94.7821C86.3636 94.7719 86.3616 94.7618 86.3577 94.7523C86.3538 94.7429 86.3481 94.7343 86.3409 94.7271C86.3337 94.7198 86.3251 94.7141 86.3157 94.7101C86.3062 94.7062 86.2961 94.7042 86.2859 94.7042L82.9983 94.6984C82.9881 94.6984 82.978 94.7004 82.9685 94.7043C82.9591 94.7082 82.9505 94.7139 82.9433 94.7211C82.936 94.7283 82.9303 94.7369 82.9264 94.7463C82.9224 94.7558 82.9204 94.7659 82.9204 94.7761L82.9146 98.0993C82.9146 98.1096 82.9166 98.1197 82.9204 98.1291C82.9243 98.1386 82.9301 98.1472 82.9373 98.1544C82.9445 98.1617 82.9531 98.1674 82.9625 98.1713C82.9719 98.1753 82.982 98.1773 82.9923 98.1773L86.2798 98.183C86.2901 98.1831 86.3002 98.1811 86.3096 98.1772C86.3191 98.1733 86.3277 98.1676 86.3349 98.1603C86.3421 98.1531 86.3479 98.1446 86.3518 98.1351C86.3557 98.1257 86.3578 98.1156 86.3578 98.1054L86.3636 94.7821ZM93.2864 94.7923C93.2863 94.7795 93.2838 94.7669 93.2789 94.7551C93.274 94.7433 93.2668 94.7326 93.2578 94.7236C93.2487 94.7146 93.238 94.7074 93.2262 94.7025C93.2144 94.6977 93.2017 94.6952 93.1889 94.6952L89.9014 94.7009C89.8886 94.701 89.8759 94.7035 89.8641 94.7084C89.8524 94.7133 89.8416 94.7205 89.8326 94.7295C89.8236 94.7386 89.8165 94.7493 89.8116 94.7611C89.8067 94.7729 89.8042 94.7856 89.8043 94.7984L89.81 98.0827C89.81 98.0955 89.8126 98.1081 89.8175 98.1199C89.8224 98.1317 89.8296 98.1424 89.8386 98.1514C89.8476 98.1604 89.8584 98.1676 89.8702 98.1725C89.882 98.1773 89.8947 98.1798 89.9074 98.1798L93.195 98.1741C93.2078 98.174 93.2204 98.1715 93.2322 98.1666C93.244 98.1617 93.2547 98.1545 93.2637 98.1455C93.2728 98.1364 93.2799 98.1257 93.2848 98.1139C93.2896 98.102 93.2921 98.0894 93.2921 98.0766L93.2864 94.7923ZM103.658 94.7622C103.658 94.7564 103.657 94.7507 103.655 94.7454C103.653 94.7401 103.65 94.7353 103.645 94.7313C103.641 94.7272 103.637 94.724 103.631 94.7218C103.626 94.7196 103.62 94.7185 103.614 94.7186L96.7767 94.7424C96.7651 94.7425 96.754 94.7471 96.7458 94.7554C96.7377 94.7636 96.7331 94.7747 96.7331 94.7863L96.7448 98.1161C96.7448 98.1218 96.7459 98.1275 96.7481 98.1328C96.7504 98.1381 96.7536 98.1429 96.7577 98.147C96.7618 98.151 96.7666 98.1542 96.7719 98.1564C96.7772 98.1586 96.7829 98.1597 96.7887 98.1597L103.626 98.1358C103.638 98.1358 103.649 98.1311 103.657 98.1229C103.665 98.1146 103.67 98.1035 103.67 98.0919L103.658 94.7622ZM103.642 101.67C103.642 101.659 103.637 101.648 103.629 101.639C103.621 101.631 103.609 101.627 103.598 101.627H82.9612C82.9496 101.627 82.9385 101.631 82.9303 101.639C82.9221 101.648 82.9175 101.659 82.9175 101.67V105.026C82.9175 105.038 82.9221 105.049 82.9303 105.057C82.9385 105.065 82.9496 105.07 82.9612 105.07H103.598C103.609 105.07 103.621 105.065 103.629 105.057C103.637 105.049 103.642 105.038 103.642 105.026V101.67Z" fill="white"/>
<path d="M43.0337 87.755C40.6328 87.7096 38.6275 86.035 38.0877 83.7347C37.9915 83.3197 37.9424 82.3087 37.9402 80.7016C37.9294 72.6264 37.9278 64.5507 37.9353 56.4744C37.9353 55.7951 37.9224 54.9295 38.0213 54.2227C38.3033 52.2417 39.725 50.5817 41.6055 50.0046C42.1502 49.8382 43.1482 49.7544 44.5997 49.7533C55.5485 49.7479 66.4974 49.7479 77.4463 49.7533C80.395 49.7549 82.8494 51.8656 82.8834 54.897C82.9504 60.8335 82.9542 69.7706 82.8947 81.7083C82.8883 82.8269 82.805 83.6401 82.6451 84.1481C81.9772 86.262 80.0497 87.6966 77.8175 87.7615C77.8061 87.7617 77.7947 87.7598 77.7841 87.756C77.7734 87.7522 77.7638 87.7465 77.7556 87.7393C77.7475 87.732 77.741 87.7234 77.7366 87.7138C77.7322 87.7043 77.7299 87.694 77.7299 87.6837V84.4415C77.7299 84.4103 77.7397 84.3804 77.7576 84.3571C77.7755 84.3339 77.8002 84.319 77.8272 84.315C79.1273 84.1383 79.4305 83.2824 79.4305 82.0455C79.4326 72.9955 79.4326 63.946 79.4305 54.897C79.4305 53.477 78.1206 53.1884 76.8383 53.19C65.7879 53.1933 54.7364 53.1949 43.6837 53.1949C43.4752 53.1949 43.2677 53.2068 43.0612 53.2306C41.7303 53.3862 41.4191 54.2616 41.4191 55.5163C41.4158 64.334 41.4158 73.1511 41.4191 81.9677C41.4191 83.2532 41.6768 84.1351 43.0321 84.3183C43.0562 84.3215 43.0784 84.3316 43.0945 84.3468C43.1106 84.362 43.1195 84.3813 43.1196 84.401V87.6837C43.1196 87.6932 43.1174 87.7026 43.1131 87.7113C43.1088 87.7201 43.1024 87.728 43.0944 87.7347C43.0864 87.7413 43.0769 87.7466 43.0665 87.75C43.0561 87.7535 43.0449 87.7552 43.0337 87.755Z" fill="#0D562A"/>
<path d="M103.654 87.7192C103.654 88.6547 103.283 89.552 102.621 90.2135C101.96 90.875 101.062 91.2467 100.127 91.2467H89.8913C88.9557 91.2467 88.0585 90.875 87.3969 90.2135C86.7354 89.552 86.3638 88.6547 86.3638 87.7192V53.2807C86.3638 52.3451 86.7354 51.4479 87.3969 50.7864C88.0585 50.1248 88.9557 49.7532 89.8913 49.7532H100.127C101.062 49.7532 101.96 50.1248 102.621 50.7864C103.283 51.4479 103.654 52.3451 103.654 53.2807V87.7192ZM100.184 53.2418C100.184 53.2302 100.179 53.219 100.171 53.2108C100.163 53.2026 100.151 53.198 100.14 53.198H89.8524C89.8408 53.198 89.8296 53.2026 89.8214 53.2108C89.8132 53.219 89.8086 53.2302 89.8086 53.2418V58.3385C89.8086 58.3501 89.8132 58.3612 89.8214 58.3694C89.8296 58.3776 89.8408 58.3823 89.8524 58.3823H100.14C100.151 58.3823 100.163 58.3776 100.171 58.3694C100.179 58.3612 100.184 58.3501 100.184 58.3385V53.2418ZM100.182 61.9179C100.182 61.9028 100.176 61.8884 100.165 61.8777C100.155 61.8671 100.14 61.8611 100.125 61.8611H89.8637C89.8487 61.8611 89.8342 61.8671 89.8236 61.8777C89.8129 61.8884 89.807 61.9028 89.807 61.9179V68.7005C89.807 68.7156 89.8129 68.73 89.8236 68.7406C89.8342 68.7513 89.8487 68.7573 89.8637 68.7573H100.125C100.14 68.7573 100.155 68.7513 100.165 68.7406C100.176 68.73 100.182 68.7156 100.182 68.7005V61.9179ZM100.182 72.2912C100.182 72.2846 100.181 72.2781 100.178 72.272C100.176 72.2659 100.172 72.2604 100.167 72.2557C100.163 72.251 100.157 72.2473 100.151 72.2448C100.145 72.2423 100.138 72.241 100.132 72.241H89.8572C89.8506 72.241 89.8441 72.2423 89.838 72.2448C89.8319 72.2473 89.8264 72.251 89.8217 72.2557C89.817 72.2604 89.8133 72.2659 89.8108 72.272C89.8083 72.2781 89.807 72.2846 89.807 72.2912V79.0836C89.807 79.097 89.8123 79.1097 89.8217 79.1192C89.8311 79.1286 89.8439 79.1339 89.8572 79.1339H100.132C100.145 79.1339 100.158 79.1286 100.167 79.1192C100.177 79.1097 100.182 79.097 100.182 79.0836V72.2912ZM100.182 82.6808C100.182 82.6623 100.175 82.6446 100.162 82.6315C100.148 82.6185 100.131 82.6111 100.112 82.6111H89.8767C89.8675 82.6111 89.8585 82.6129 89.85 82.6164C89.8415 82.6199 89.8339 82.6251 89.8274 82.6315C89.8209 82.638 89.8158 82.6457 89.8123 82.6542C89.8088 82.6626 89.807 82.6717 89.807 82.6808V87.7062C89.807 87.7154 89.8088 87.7244 89.8123 87.7329C89.8158 87.7414 89.8209 87.749 89.8274 87.7555C89.8339 87.762 89.8415 87.7671 89.85 87.7706C89.8585 87.7741 89.8675 87.7759 89.8767 87.7759H100.112C100.131 87.7759 100.148 87.7686 100.162 87.7555C100.175 87.7424 100.182 87.7247 100.182 87.7062V82.6808Z" fill="#0D562A"/>
<path d="M100.14 53.198H89.8524C89.8282 53.198 89.8086 53.2176 89.8086 53.2418V58.3385C89.8086 58.3627 89.8282 58.3823 89.8524 58.3823H100.14C100.164 58.3823 100.184 58.3627 100.184 58.3385V53.2418C100.184 53.2176 100.164 53.198 100.14 53.198Z" fill="white"/>
<path d="M75.9469 105.063C75.9977 101.784 76.0085 98.5043 75.9794 95.2232C75.9502 92.0685 71.6802 91.0359 68.7785 89.9871C66.9531 89.3257 65.2623 88.5637 63.5277 87.7872C61.6651 86.954 62.1563 85.3556 62.1968 83.7118C62.2276 82.5187 63.0187 82.2236 64.0432 81.7551C66.6256 80.5734 68.3537 78.2844 68.8838 75.5528C69.0016 74.9433 69.0605 74.0042 69.0605 72.7354C69.0589 70.7544 69.2129 68.3438 68.8011 66.6822C67.9987 63.4335 65.1342 60.7425 61.8402 60.2497C56.6073 59.4651 51.8348 63.3622 51.7943 68.7167C51.7813 70.4156 51.5689 73.8556 52.0309 75.869C52.634 78.4903 54.3718 80.6901 56.8975 81.7973C57.8636 82.222 58.6807 82.6597 58.6823 83.7102C58.6839 85.0233 59.0908 86.9686 57.6334 87.6446C54.8019 88.9577 51.911 90.1232 48.9606 91.1413C47.0299 91.8075 44.8544 92.9828 44.8576 95.3513C44.863 98.5902 44.8646 101.828 44.8625 105.063C43.7417 105.124 42.6199 105.115 41.4971 105.037C41.4753 105.036 41.4548 105.026 41.44 105.01C41.4252 104.994 41.4172 104.973 41.4176 104.951C41.4187 101.956 41.4182 98.9614 41.416 95.9689C41.416 94.832 41.4927 93.9901 41.6462 93.4432C42.5816 90.1184 45.5482 88.7161 48.5375 87.6251C50.7573 86.8157 52.9555 85.9451 55.1321 85.0135C55.2704 84.9552 55.2731 84.8914 55.1402 84.8223C51.0648 82.7148 48.6153 79.0301 48.3802 74.457C48.2916 72.7202 48.2716 70.9819 48.3203 69.2419C48.357 67.9126 48.471 66.84 48.6623 66.0241C50.1894 59.5218 56.5716 55.5696 63.0884 56.9751C68.2111 58.0807 71.9736 62.5274 72.46 67.6954C72.5086 68.212 72.5362 69.2922 72.5426 70.936C72.5507 72.9056 72.6075 75.1103 72.1212 76.934C71.182 80.4637 69.0346 83.099 65.6789 84.8401C65.5709 84.8963 65.573 84.9482 65.6854 84.9957C68.3602 86.1499 71.088 87.2112 73.8687 88.1795C76.1771 88.982 78.5391 91.0408 79.2183 93.5243C79.3674 94.0701 79.4398 94.9103 79.4355 96.0451C79.4247 99.0225 79.428 101.999 79.4453 104.974C79.4453 104.996 79.4367 105.018 79.4215 105.034C79.4063 105.049 79.3857 105.058 79.3642 105.058L75.9469 105.063Z" fill="#0D562A"/>
<path d="M75.9468 105.063H70.7998L70.7982 96.5266C70.7982 96.503 70.7898 96.4803 70.7749 96.4636C70.76 96.4468 70.7398 96.4375 70.7187 96.4375H67.436C67.4154 96.4375 67.3956 96.4484 67.381 96.4678C67.3664 96.4873 67.3582 96.5137 67.3582 96.5412L67.3955 105.104C62.7624 105.048 58.1288 105.048 53.4946 105.104L53.4914 96.525C53.4914 96.5018 53.4832 96.4795 53.4686 96.4631C53.454 96.4467 53.4342 96.4375 53.4136 96.4375H50.1714C50.1357 96.4375 50.1015 96.4499 50.0762 96.4721C50.051 96.4943 50.0368 96.5244 50.0368 96.5558L50.0093 105.063H44.8623C44.8645 101.828 44.8628 98.5903 44.8574 95.3513C44.8542 92.9829 47.0297 91.8076 48.9604 91.1413C51.9108 90.1233 54.8018 88.9577 57.6333 87.6446C59.0906 86.9686 58.6837 85.0233 58.6821 83.7102C58.6805 82.6598 57.8635 82.2221 56.8973 81.7974C54.3716 80.6901 52.6338 78.4903 52.0308 75.869C51.5688 73.8556 51.7811 70.4157 51.7941 68.7167C51.8346 63.3623 56.6071 59.4652 61.84 60.2498C65.1341 60.7426 67.9985 63.4336 68.801 66.6823C69.2127 68.3439 69.0587 70.7545 69.0604 72.7354C69.0604 74.0042 69.0015 74.9434 68.8837 75.5529C68.3536 78.2844 66.6255 80.5734 64.0431 81.7552C63.0185 82.2237 62.2274 82.5187 62.1966 83.7119C62.1561 85.3557 61.6649 86.9541 63.5276 87.7873C65.2621 88.5638 66.9529 89.3257 68.7783 89.9871C71.68 91.036 75.95 92.0686 75.9792 95.2233C76.0084 98.5043 75.9976 101.784 75.9468 105.063Z" fill="#DEF3BE"/>
<path d="M100.132 72.241H89.8574C89.8296 72.241 89.8071 72.2635 89.8071 72.2912V79.0836C89.8071 79.1114 89.8296 79.1339 89.8574 79.1339H100.132C100.16 79.1339 100.182 79.1114 100.182 79.0836V72.2912C100.182 72.2635 100.16 72.241 100.132 72.241Z" fill="white"/>
<path d="M100.112 82.6111H89.8768C89.8383 82.6111 89.8071 82.6423 89.8071 82.6808V87.7062C89.8071 87.7447 89.8383 87.7759 89.8768 87.7759H100.112C100.151 87.7759 100.182 87.7447 100.182 87.7062V82.6808C100.182 82.6423 100.151 82.6111 100.112 82.6111Z" fill="#DEF3BE"/>
<path d="M86.2858 94.7041L82.9982 94.6984C82.9552 94.6983 82.9203 94.7331 82.9203 94.7761L82.9145 98.0993C82.9144 98.1423 82.9492 98.1772 82.9922 98.1772L86.2797 98.183C86.3227 98.1831 86.3576 98.1483 86.3577 98.1053L86.3635 94.7821C86.3635 94.7391 86.3288 94.7042 86.2858 94.7041Z" fill="#0D562A"/>
<path d="M93.189 94.6953L89.9015 94.701C89.8477 94.7011 89.8043 94.7447 89.8044 94.7984L89.8101 98.0828C89.8102 98.1365 89.8538 98.18 89.9075 98.1799L93.1951 98.1741C93.2488 98.174 93.2923 98.1304 93.2922 98.0767L93.2865 94.7924C93.2864 94.7386 93.2428 94.6952 93.189 94.6953Z" fill="#0D562A"/>
<path d="M103.614 94.7187L96.7767 94.7425C96.7525 94.7426 96.733 94.7623 96.7331 94.7864L96.7447 98.1162C96.7448 98.1403 96.7644 98.1599 96.7886 98.1598L103.626 98.1359C103.651 98.1358 103.67 98.1162 103.67 98.092L103.658 94.7623C103.658 94.7381 103.639 94.7186 103.614 94.7187Z" fill="#0D562A"/>
<path d="M53.4946 105.104L50.0093 105.063L50.0368 96.5558C50.0368 96.5245 50.051 96.4944 50.0762 96.4722C50.1015 96.45 50.1357 96.4375 50.1714 96.4375H53.4136C53.4342 96.4375 53.454 96.4467 53.4686 96.4631C53.4832 96.4796 53.4914 96.5018 53.4914 96.525L53.4946 105.104Z" fill="#0D562A"/>
<path d="M70.8 105.063L67.3957 105.104L67.3584 96.5413C67.3584 96.5137 67.3666 96.4873 67.3812 96.4679C67.3958 96.4484 67.4156 96.4375 67.4362 96.4375H70.7189C70.74 96.4375 70.7602 96.4469 70.7751 96.4636C70.79 96.4803 70.7984 96.503 70.7984 96.5267L70.8 105.063Z" fill="#0D562A"/>
<path d="M103.598 101.627H82.9612C82.9371 101.627 82.9175 101.646 82.9175 101.67V105.026C82.9175 105.05 82.9371 105.07 82.9612 105.07H103.598C103.622 105.07 103.642 105.05 103.642 105.026V101.67C103.642 101.646 103.622 101.627 103.598 101.627Z" fill="#0D562A"/>
</g>
<defs>
<clipPath id="clip0_39_1368">
<rect width="83" height="83" fill="white" transform="translate(29.2998 29)"/>
</clipPath>
</defs>
</svg>
