<svg width="140" height="140" viewBox="0 0 140 140" fill="none" xmlns="http://www.w3.org/2000/svg">
<circle cx="70" cy="70" r="70" fill="#F7F7F7"/>
<path d="M45.7847 82.8203C45.8841 81.1733 45.8976 79.5252 45.8252 77.876" stroke="#274B6B" stroke-opacity="0.996" stroke-width="2"/>
<path d="M45.8252 77.8761C46.1413 76.1286 47.2777 75.8887 48.9377 75.8887C63.3071 75.8919 77.6764 75.8919 92.0458 75.8887C93.6621 75.8887 94.6769 76.0994 95.2021 77.6719" stroke="#CFF09E" stroke-width="2"/>
<path d="M95.2025 77.6719C95.196 79.3497 95.1085 97.0164 95.2625 97.0391" stroke="#2D5771" stroke-opacity="0.996" stroke-width="2"/>
<path d="M95.2623 97.039C95.5378 97.2481 101.191 97.1006 101.948 97.0989C102.764 97.0989 103.406 97.0276 103.875 96.885C106.051 96.2268 107.318 94.4144 107.325 92.1254C107.345 85.9555 107.348 79.8073 107.333 73.6806C107.333 73.6518 107.321 73.6242 107.299 73.6038C107.278 73.5835 107.248 73.572 107.218 73.572L33.7418 73.5493C33.7203 73.5493 33.6996 73.5565 33.6844 73.5693C33.6692 73.582 33.6607 73.5993 33.6607 73.6174C33.6596 79.4555 33.6602 85.292 33.6623 91.1268C33.6623 92.3599 33.7439 93.238 33.9071 93.7611C34.4745 95.58 36.3015 97.1038 38.2808 97.0892C40.7303 97.073 43.2041 97.1865 45.6487 97.0795C45.6708 97.0787 45.6918 97.0695 45.7074 97.0539C45.723 97.0383 45.7322 97.0173 45.733 96.9952C45.8935 92.2843 45.6925 87.541 45.7849 82.8204" stroke="#CFF09E" stroke-width="2"/>
<path d="M95.2621 97.0391L95.2021 77.6719" stroke="#488BA6" stroke-opacity="0.996" stroke-width="2"/>
<path d="M45.8252 77.876L45.7847 82.8203" stroke="#427FA0" stroke-opacity="0.996" stroke-width="2"/>
<path d="M112 67.0651V92.6783C111.684 96.6759 109.392 99.8857 105.66 101.234C104.712 101.577 103.799 101.748 102.922 101.748C100.382 101.746 97.8457 101.746 95.3125 101.747C95.2875 101.747 95.2636 101.757 95.246 101.774C95.2283 101.792 95.2184 101.816 95.2184 101.841C95.2228 103.503 95.2238 105.155 95.2217 106.796C95.2184 108.08 95.0758 109.136 93.9037 109.674C93.5244 109.848 92.7965 109.934 91.7201 109.933C77.4199 109.932 63.1202 109.932 48.8211 109.933C48.097 109.933 47.5648 109.864 47.2243 109.724C45.7848 109.136 45.7783 107.913 45.7783 106.349C45.7783 104.835 45.7778 103.326 45.7767 101.821C45.7767 101.811 45.7747 101.801 45.7709 101.792C45.767 101.782 45.7614 101.774 45.7543 101.767C45.7472 101.76 45.7388 101.754 45.7295 101.75C45.7203 101.747 45.7104 101.745 45.7005 101.745C43.5164 101.749 41.3333 101.749 39.1513 101.743C37.9733 101.741 37.0558 101.666 36.3987 101.518C32.226 100.58 29.3113 97.0699 29 92.7805V66.8835C29.3339 62.5146 32.3962 58.9385 36.671 58.1215C37.3324 57.995 38.4088 57.934 39.9002 57.9383C41.9839 57.9459 44.0664 57.9378 46.1479 57.914C46.1696 57.9136 46.1902 57.9048 46.2053 57.8897C46.2205 57.8745 46.229 57.8541 46.229 57.8329C46.2182 44.5043 46.2176 36.448 46.2274 33.664C46.2338 31.5663 47.5891 31.0654 49.4128 31.0654C63.4029 31.0676 77.3929 31.0676 91.3829 31.0654C92.3729 31.0654 93.0564 31.1497 93.4336 31.3183C94.6851 31.8792 94.7743 33.0075 94.7743 34.3644C94.7743 42.1921 94.7753 50.0203 94.7775 57.8491C94.7775 57.8704 94.7862 57.8907 94.8016 57.9059C94.8171 57.921 94.8381 57.9298 94.8602 57.9302C97.3642 57.9399 99.8618 57.941 102.353 57.9334C107.654 57.914 111.617 61.7933 112 67.0651ZM90.1152 35.7715C90.1152 35.7599 90.1106 35.7487 90.1024 35.7405C90.0942 35.7323 90.0831 35.7277 90.0715 35.7277H50.9285C50.9169 35.7277 50.9058 35.7323 50.8976 35.7405C50.8894 35.7487 50.8848 35.7599 50.8848 35.7715V57.8929C50.8848 57.8987 50.8859 57.9043 50.8881 57.9097C50.8903 57.915 50.8935 57.9198 50.8976 57.9239C50.9017 57.9279 50.9065 57.9311 50.9118 57.9333C50.9171 57.9355 50.9228 57.9367 50.9285 57.9367H90.0715C90.0831 57.9367 90.0942 57.9321 90.1024 57.9239C90.1106 57.9156 90.1152 57.9045 90.1152 57.8929V35.7715ZM107.351 68.8191C107.331 67.9486 107.419 66.997 107.2 66.214C106.717 64.4718 105.63 63.3365 103.94 62.8081C102.932 62.4919 101.546 62.5649 100.409 62.5665C79.8905 62.5892 59.3712 62.5989 38.8514 62.5957C36.35 62.5957 34.4582 63.7661 33.7903 66.2578C33.5812 67.0407 33.6606 67.9875 33.6704 68.8385C33.6704 68.86 33.6779 68.8806 33.6913 68.8958C33.7046 68.911 33.7228 68.9196 33.7417 68.9196H107.258C107.271 68.9196 107.283 68.917 107.294 68.9119C107.306 68.9069 107.316 68.8994 107.325 68.89C107.333 68.8806 107.34 68.8695 107.345 68.8573C107.349 68.8451 107.351 68.8321 107.351 68.8191ZM45.7848 82.8205C45.8842 81.1734 45.8977 79.5253 45.8253 77.8761C46.1414 76.1286 47.2778 75.8887 48.9378 75.8887C63.3072 75.8919 77.6766 75.8919 92.046 75.8887C93.6622 75.8887 94.677 76.0994 95.2022 77.6719C95.1957 79.3497 95.1082 97.0164 95.2622 97.0391C95.5378 97.2482 101.191 97.1007 101.948 97.0991C102.764 97.0991 103.406 97.0277 103.875 96.8851C106.051 96.2269 107.318 94.4145 107.325 92.1255C107.345 85.9557 107.348 79.8074 107.333 73.6807C107.333 73.6519 107.321 73.6243 107.299 73.6039C107.278 73.5836 107.248 73.5721 107.218 73.5721L33.7417 73.5494C33.7202 73.5494 33.6996 73.5566 33.6844 73.5694C33.6692 73.5821 33.6606 73.5995 33.6606 73.6175C33.6596 79.4556 33.6601 85.2921 33.6623 91.1269C33.6623 92.3601 33.7439 93.2382 33.9071 93.7612C34.4744 95.5801 36.3014 97.1039 38.2808 97.0893C40.7302 97.0731 43.204 97.1866 45.6486 97.0796C45.6707 97.0788 45.6917 97.0697 45.7073 97.054C45.723 97.0384 45.7321 97.0174 45.7329 96.9953C45.8934 92.2844 45.6924 87.5411 45.7848 82.8205ZM90.561 80.6271C90.561 80.5962 90.5487 80.5665 90.5269 80.5446C90.505 80.5227 90.4753 80.5104 90.4443 80.5104H50.5557C50.5247 80.5104 50.495 80.5227 50.4732 80.5446C50.4513 80.5665 50.439 80.5962 50.439 80.6271V105.158C50.439 105.188 50.4513 105.218 50.4732 105.24C50.495 105.262 50.5247 105.274 50.5557 105.274H90.4443C90.4753 105.274 90.505 105.262 90.5269 105.24C90.5487 105.218 90.561 105.188 90.561 105.158V80.6271Z" fill="#327A6D"/>
<path d="M101.628 68.0489C102.902 68.0489 103.934 67.0168 103.934 65.7437C103.934 64.4705 102.902 63.4385 101.628 63.4385C100.355 63.4385 99.3232 64.4705 99.3232 65.7437C99.3232 67.0168 100.355 68.0489 101.628 68.0489Z" fill="#327A6D"/>
<path d="M95.2623 97.039L95.2023 77.6718C94.677 76.0993 93.6622 75.8886 92.046 75.8886C77.6766 75.8918 63.3073 75.8918 48.9379 75.8886C47.2779 75.8886 46.1415 76.1285 45.8254 77.876L45.7849 82.8204C45.6925 87.541 45.8935 92.2843 45.733 96.9952C45.7322 97.0173 45.723 97.0383 45.7074 97.0539C45.6918 97.0695 45.6708 97.0787 45.6487 97.0795C43.2041 97.1865 40.7303 97.073 38.2808 97.0892C36.3015 97.1038 34.4745 95.58 33.9071 93.7611C33.7439 93.238 33.6623 92.3599 33.6623 91.1268C33.6602 85.292 33.6596 79.4555 33.6607 73.6174C33.6607 73.5993 33.6692 73.582 33.6844 73.5693C33.6996 73.5565 33.7203 73.5493 33.7418 73.5493L107.218 73.572C107.248 73.572 107.278 73.5835 107.299 73.6038C107.321 73.6242 107.333 73.6518 107.333 73.6806C107.348 79.8073 107.345 85.9555 107.325 92.1254C107.318 94.4144 106.051 96.2268 103.875 96.885C103.406 97.0276 102.764 97.0989 101.948 97.0989C101.191 97.1006 95.5378 97.2481 95.2623 97.039Z" fill="#DEF3BE"/>
<path d="M95.202 77.6719L95.262 97.0391C95.108 97.0164 95.1955 79.3497 95.202 77.6719Z" fill="#1C4558" fill-opacity="0.988"/>
<path d="M45.8252 77.876C45.8976 79.5252 45.8841 81.1733 45.7847 82.8203L45.8252 77.876Z" fill="#102E4C" fill-opacity="0.992"/>
<path d="M83.6323 85.6216H56.4596C55.1945 85.6216 54.1689 86.6471 54.1689 87.9122V87.9835C54.1689 89.2486 55.1945 90.2741 56.4596 90.2741H83.6323C84.8974 90.2741 85.9229 89.2486 85.9229 87.9835V87.9122C85.9229 86.6471 84.8974 85.6216 83.6323 85.6216Z" fill="#327A6D"/>
<path d="M69.166 95.5508H56.434C55.1868 95.5508 54.1758 96.5618 54.1758 97.809V97.9387C54.1758 99.1858 55.1868 100.197 56.434 100.197H69.166C70.4132 100.197 71.4242 99.1858 71.4242 97.9387V97.809C71.4242 96.5618 70.4132 95.5508 69.166 95.5508Z" fill="#327A6D"/>
</svg>
