<svg width="140" height="140" viewBox="0 0 140 140" fill="none" xmlns="http://www.w3.org/2000/svg">
<circle cx="70" cy="70" r="70" fill="#F7F7F7"/>
<g clip-path="url(#clip0_117_1291)">
<path d="M38.0185 47.3167C38.0201 48.7952 38.7301 50.1958 40.4047 50.1958C46.9669 50.1947 53.5291 50.1953 60.0913 50.1974C60.6992 50.1974 61.3622 50.4649 61.834 50.9302C64.8243 53.873 67.7931 56.8353 70.7402 59.817C70.7545 59.8311 70.7737 59.8389 70.7937 59.8389C70.8138 59.8389 70.833 59.8311 70.8472 59.817C73.7857 56.8731 76.7296 53.9367 79.679 51.008C80.2236 50.4676 80.871 50.1974 81.621 50.1974C87.9249 50.1963 94.2294 50.1958 100.534 50.1958C101.817 50.1958 102.825 49.9656 103.345 48.7919C103.51 48.4223 103.591 47.7804 103.588 46.8661C103.585 43.5104 103.585 40.1553 103.588 36.8007C103.592 34.515 102.702 33.7012 100.437 33.7012C80.6478 33.7012 60.8581 33.7012 41.0677 33.7012C38.735 33.7012 38.0136 34.669 38.012 36.9466C38.0109 40.4039 38.0131 43.8606 38.0185 47.3167Z" stroke="#DEF3BE" stroke-width="2"/>
<path d="M75.2988 45.292H78.4599C78.4884 45.2921 78.5156 45.3001 78.5373 45.3148C78.559 45.3294 78.574 45.35 78.5799 45.3731L79.0824 47.226C79.143 47.4486 79.2581 47.5799 79.4277 47.6199C80.1172 47.7799 80.7176 47.6302 81.2288 47.1709C81.4298 46.9893 81.4914 46.771 81.4136 46.516C80.5079 43.5472 79.5942 40.5692 78.6723 37.5821C78.2768 36.2998 77.6948 35.9999 76.3412 36.2058C75.7619 36.2944 75.3734 36.6613 75.1756 37.3065C74.2537 40.312 73.3362 43.3186 72.423 46.3263C72.0615 47.5129 73.6437 47.8372 74.438 47.5875C74.4842 47.5726 74.5256 47.548 74.5585 47.5161C74.5913 47.4841 74.6145 47.4457 74.6261 47.4043L75.1999 45.3601C75.205 45.3407 75.2175 45.3234 75.2354 45.3111C75.2533 45.2988 75.2756 45.2921 75.2988 45.292Z" stroke="#DEF3BE" stroke-width="2"/>
<path d="M86.1196 38.4024L88.146 38.404C88.4151 38.404 88.6096 38.2862 88.7296 38.0506C88.9749 37.5653 88.9803 37.0768 88.7458 36.5851C88.6291 36.342 88.4253 36.2204 88.1346 36.2204L81.4282 36.2188C81.158 36.2188 80.964 36.3403 80.8462 36.5835C80.5317 37.2271 80.5706 38.3408 81.5303 38.4056C82.1809 38.4499 82.8282 38.4456 83.4724 38.3926C83.4844 38.3917 83.4965 38.3933 83.5079 38.3973C83.5192 38.4013 83.5297 38.4076 83.5385 38.4159C83.5473 38.4241 83.5544 38.434 83.5592 38.4451C83.564 38.4562 83.5664 38.4681 83.5664 38.4802C83.5664 41.2522 83.5658 44.0227 83.5648 46.7915C83.5648 47.9587 85.9753 48.1224 85.9915 46.738C86.0229 43.9897 86.0418 41.2414 86.0483 38.4931C86.0483 38.4691 86.0558 38.446 86.0692 38.429C86.0825 38.4119 86.1007 38.4024 86.1196 38.4024Z" stroke="#DEF3BE" stroke-width="2"/>
<path d="M92.3606 45.4947V42.982C92.3606 42.9622 92.37 42.9432 92.3867 42.9292C92.4035 42.9153 92.4261 42.9074 92.4498 42.9074C93.0647 42.8988 93.6823 42.8971 94.3027 42.9025C95.1359 42.909 95.5833 42.5978 95.4099 41.7127C95.298 41.1485 94.9949 41.0286 94.434 41.0367C93.7823 41.0453 93.1241 41.0399 92.4595 41.0205C92.433 41.0196 92.4078 41.0081 92.3893 40.9885C92.3709 40.9688 92.3606 40.9425 92.3606 40.9151V38.4429C92.3606 38.4214 92.3692 38.4008 92.3844 38.3856C92.3996 38.3704 92.4202 38.3619 92.4417 38.3619L96.4944 38.3586C96.8013 38.3586 97.0142 38.2354 97.1331 37.989C97.3601 37.52 97.3606 37.0526 97.1347 36.5868C97.018 36.3458 96.8154 36.2242 96.5268 36.222C94.6809 36.2069 92.8367 36.208 90.994 36.2253C90.5736 36.2285 90.2462 36.3766 90.0117 36.6694C89.9799 36.7096 89.9608 36.7598 89.9565 36.8137C89.9198 37.34 89.9041 37.8669 89.9095 38.3943C89.9387 41.2069 89.8965 44.0179 89.9063 46.8321C89.9074 47.2103 90.0646 47.4611 90.378 47.5843C90.6136 47.6761 90.8579 47.7221 91.1108 47.7221C92.855 47.7253 94.5766 47.7248 96.2756 47.7204C97.2952 47.7172 97.5578 46.6991 97.1461 45.9697C97.0002 45.7092 96.7689 45.579 96.4523 45.579L92.4417 45.5773C92.4202 45.5773 92.3996 45.5686 92.3844 45.5531C92.3692 45.5376 92.3606 45.5166 92.3606 45.4947Z" stroke="#DEF3BE" stroke-width="2"/>
<path d="M58.5739 36.2623C56.0272 36.0256 54.265 37.0372 54.1126 39.725C54.0327 41.1277 54.0246 42.5311 54.0883 43.9349C54.1807 45.9954 54.8535 47.4333 57.0565 47.7494C59.2191 48.059 61.4627 47.2549 61.7188 44.8055C61.8463 43.5821 61.8642 41.9891 61.7723 40.0265C61.6734 37.932 60.8791 36.4763 58.5739 36.2623Z" stroke="#DEF3BE" stroke-width="2"/>
<path d="M65.8252 41.8036C65.8262 41.6837 65.8554 41.6761 65.9127 41.7809C66.8313 43.4442 67.7478 45.1107 68.6621 46.7804C69.1614 47.6915 70.1308 48.0043 71.0564 47.4807C71.2909 47.3489 71.4082 47.1478 71.4082 46.8777C71.4071 43.6571 71.4077 40.4754 71.4098 37.3327C71.4098 36.8269 71.3061 36.4605 70.8068 36.3162C70.2556 36.1541 69.5326 36.1979 69.0738 36.6437C69.0363 36.6791 69.0132 36.7282 69.009 36.7815C68.8566 38.5631 68.9506 40.3884 68.9668 42.1651C68.9679 42.2873 68.9404 42.2943 68.8842 42.1862C68.0077 40.4992 67.1204 38.8187 66.2223 37.1446C65.6841 36.1428 64.6369 36.0325 63.7096 36.4411C63.4924 36.5372 63.3838 36.7048 63.3838 36.9436V46.9944C63.3838 47.2095 63.4816 47.3678 63.6772 47.4694C64.5104 47.9054 65.8203 47.8584 65.8154 46.6005C65.81 44.9934 65.8133 43.3945 65.8252 41.8036Z" stroke="#DEF3BE" stroke-width="2"/>
<path d="M76.8081 39.4592L75.7706 43.2947C75.7674 43.3071 75.7664 43.32 75.7676 43.3325C75.7687 43.345 75.7721 43.3567 75.7774 43.3667C75.7828 43.3768 75.7899 43.3848 75.7983 43.3903C75.8066 43.3958 75.816 43.3986 75.8257 43.3984L77.9332 43.3887C77.9438 43.3888 77.9544 43.3866 77.9641 43.3824C77.9738 43.3781 77.9823 43.3719 77.9889 43.3641C77.9956 43.3564 78.0001 43.3474 78.0023 43.3379C78.0044 43.3283 78.0041 43.3185 78.0013 43.3093L76.9411 39.4284C76.9 39.276 76.8557 39.2862 76.8081 39.4592Z" stroke="#DEF3BE" stroke-width="2"/>
<path d="M49.5688 38.5986C49.4319 38.4887 49.2873 38.4265 49.1619 38.4235L47.4565 38.3716C47.446 38.3714 47.4354 38.3731 47.4256 38.3766C47.4158 38.38 47.4068 38.3853 47.3993 38.3919C47.3917 38.3986 47.3857 38.4065 47.3816 38.4153C47.3776 38.424 47.3755 38.4334 47.3755 38.4429V45.4947C47.3753 45.5135 47.3839 45.5317 47.3996 45.5456C47.4153 45.5595 47.4369 45.568 47.4598 45.5693C48.6302 45.639 50.1508 45.7573 50.1589 44.0746C50.1697 41.9315 50.1692 40.4969 50.1573 39.7706C50.1497 39.2972 49.9536 38.9066 49.5688 38.5986Z" stroke="#DEF3BE" stroke-width="2"/>
<path d="M59.3246 39.7074C59.3246 39.3531 59.1839 39.0133 58.9333 38.7628C58.6828 38.5123 58.3431 38.3716 57.9888 38.3716H57.8753C57.5211 38.3716 57.1813 38.5123 56.9308 38.7628C56.6803 39.0133 56.5396 39.3531 56.5396 39.7074V44.321C56.5396 44.6753 56.6803 45.015 56.9308 45.2655C57.1813 45.516 57.5211 45.6568 57.8753 45.6568H57.9888C58.3431 45.6568 58.6828 45.516 58.9333 45.2655C59.1839 45.015 59.3246 44.6753 59.3246 44.321V39.7074Z" stroke="#DEF3BE" stroke-width="2"/>
<path d="M40.3334 29H101.327C104.581 29.1929 107.341 31.3441 108.068 34.4971C108.207 35.1002 108.279 36.176 108.283 37.7247C108.294 40.9626 108.296 44.2005 108.29 47.4383C108.285 50.1358 107.226 52.2124 105.112 53.6682C103.567 54.7332 101.995 54.8889 99.9199 54.8921C94.1164 54.9008 88.3124 54.9002 82.5078 54.8905C82.4821 54.8905 82.4566 54.8955 82.433 54.9052C82.4094 54.915 82.3879 54.9292 82.37 54.9472C79.3007 58.0046 76.2363 61.0669 73.1768 64.134C71.353 65.9626 70.2928 66.0015 68.4837 64.1923C65.4069 61.1166 62.3306 58.0387 59.2548 54.9586C59.2184 54.9222 59.1694 54.9018 59.1186 54.9018C53.4891 54.8953 47.8591 54.8937 42.2285 54.897C40.6798 54.8981 39.6044 54.8348 39.0025 54.7073C36.1866 54.1124 33.8361 51.825 33.4113 48.813C33.3508 48.3894 33.3195 47.7631 33.3173 46.9342C33.3087 43.4553 33.307 39.9764 33.3124 36.4976C33.3189 32.3346 36.1137 29.3015 40.3334 29ZM38.0185 47.3167C38.0201 48.7952 38.7301 50.1958 40.4047 50.1958C46.9669 50.1947 53.5291 50.1953 60.0913 50.1974C60.6992 50.1974 61.3622 50.4649 61.834 50.9302C64.8243 53.873 67.7931 56.8353 70.7403 59.817C70.7545 59.831 70.7737 59.8389 70.7938 59.8389C70.8138 59.8389 70.833 59.831 70.8472 59.817C73.7858 56.8731 76.7297 53.9367 79.679 51.008C80.2237 50.4676 80.871 50.1974 81.621 50.1974C87.9249 50.1963 94.2294 50.1958 100.534 50.1958C101.817 50.1958 102.825 49.9656 103.345 48.7919C103.51 48.4223 103.591 47.7804 103.588 46.8661C103.585 43.5104 103.585 40.1553 103.588 36.8007C103.592 34.515 102.702 33.7012 100.437 33.7012C80.6478 33.7012 60.8581 33.7012 41.0678 33.7012C38.735 33.7012 38.0136 34.669 38.012 36.9466C38.0109 40.4039 38.0131 43.8606 38.0185 47.3167Z" fill="#327A6D"/>
<path d="M40.4047 50.1958C38.7301 50.1958 38.0201 48.7952 38.0185 47.3167C38.0131 43.8606 38.0109 40.4039 38.012 36.9466C38.0136 34.669 38.735 33.7012 41.0677 33.7012C60.8581 33.7012 80.6478 33.7012 100.437 33.7012C102.702 33.7012 103.592 34.515 103.588 36.8007C103.585 40.1553 103.585 43.5104 103.588 46.8661C103.591 47.7804 103.51 48.4223 103.345 48.7919C102.825 49.9656 101.817 50.1958 100.534 50.1958C94.2294 50.1958 87.9249 50.1963 81.621 50.1974C80.871 50.1974 80.2236 50.4676 79.679 51.008C76.7296 53.9367 73.7857 56.8731 70.8472 59.817C70.833 59.8311 70.8138 59.8389 70.7937 59.8389C70.7737 59.8389 70.7545 59.8311 70.7402 59.817C67.7931 56.8353 64.8243 53.873 61.834 50.9302C61.3622 50.4649 60.6992 50.1974 60.0913 50.1974C53.5291 50.1953 46.9669 50.1947 40.4047 50.1958Z" fill="#DEF3BE"/>
<path d="M49.5688 38.5986C49.9536 38.9066 50.1497 39.2972 50.1573 39.7706C50.1692 40.4969 50.1697 41.9315 50.1589 44.0746C50.1508 45.7573 48.6302 45.639 47.4598 45.5693C47.4369 45.568 47.4153 45.5595 47.3996 45.5456C47.3839 45.5317 47.3753 45.5135 47.3755 45.4947V38.4429C47.3755 38.4334 47.3776 38.424 47.3816 38.4153C47.3857 38.4065 47.3917 38.3986 47.3993 38.3919C47.4068 38.3853 47.4158 38.38 47.4256 38.3766C47.4354 38.3731 47.446 38.3714 47.4565 38.3716L49.1619 38.4235C49.2873 38.4265 49.4319 38.4887 49.5688 38.5986Z" fill="#DEF3BE"/>
<path d="M57.9888 38.3716H57.8753C57.1376 38.3716 56.5396 38.9696 56.5396 39.7074V44.321C56.5396 45.0587 57.1376 45.6568 57.8753 45.6568H57.9888C58.7265 45.6568 59.3246 45.0587 59.3246 44.321V39.7074C59.3246 38.9696 58.7265 38.3716 57.9888 38.3716Z" fill="#DEF3BE"/>
<path d="M76.8081 39.4592C76.8557 39.2862 76.9 39.276 76.9411 39.4284L78.0013 43.3093C78.0041 43.3185 78.0044 43.3283 78.0023 43.3379C78.0001 43.3474 77.9956 43.3564 77.9889 43.3641C77.9823 43.3719 77.9738 43.3781 77.9641 43.3824C77.9544 43.3866 77.9438 43.3888 77.9332 43.3887L75.8257 43.3984C75.816 43.3986 75.8066 43.3958 75.7983 43.3903C75.7899 43.3848 75.7828 43.3767 75.7774 43.3667C75.7721 43.3567 75.7687 43.345 75.7676 43.3325C75.7664 43.32 75.7674 43.3071 75.7706 43.2947L76.8081 39.4592Z" fill="#DEF3BE"/>
<path d="M97.6197 112L44.002 112.003C40.9414 111.682 39.0739 110.172 38.3995 107.471C38.2493 106.872 38.1747 105.994 38.1758 104.835C38.1769 95.3905 38.1769 85.9455 38.1758 76.4999C38.1759 76.4761 38.1691 76.4526 38.1562 76.4322C38.1433 76.4119 38.1248 76.3954 38.1029 76.3848C30.7771 72.7697 31.8941 62.1208 39.9331 60.3797C40.6183 60.2317 41.693 60.1593 43.1574 60.1625C46.8622 60.169 50.5658 60.169 54.2684 60.1625C55.0606 60.1614 55.6415 60.2371 56.0111 60.3895C57.9775 61.2049 57.8413 64.0693 55.802 64.7259C55.5188 64.8177 55.0498 64.8637 54.3949 64.8637C50.1768 64.8669 45.9592 64.868 41.7422 64.8669C37.4447 64.8653 36.3586 70.8552 40.387 72.2445C40.856 72.4066 41.6336 72.4877 42.7197 72.4877C61.3321 72.4855 79.9449 72.485 98.5583 72.4861C99.9027 72.4861 100.814 72.4007 101.291 72.2299C104.564 71.0611 104.519 66.2692 101.22 65.1052C100.775 64.9485 100.066 64.8696 99.0949 64.8685C94.9589 64.8675 90.823 64.868 86.687 64.8702C84.0495 64.8734 83.1806 61.3362 85.5944 60.3635C85.9143 60.2349 86.4693 60.1701 87.2593 60.169C91.4309 60.1625 95.6036 60.1598 99.7774 60.1609C103.953 60.1609 107.469 63.0513 108.28 67.1137C109.188 71.6577 106.035 76.1708 101.51 77.017C100.893 77.1326 99.8157 77.1899 98.2779 77.1888C79.8395 77.1845 61.4018 77.1856 42.9645 77.1921C42.943 77.1921 42.9224 77.2005 42.9072 77.2154C42.892 77.2302 42.8835 77.2505 42.8835 77.2715C42.8737 86.7474 42.8727 96.2178 42.8802 105.683C42.8802 106.753 43.2061 107.299 44.3068 107.299C61.8827 107.299 79.4591 107.299 97.0361 107.299C97.9228 107.299 98.7237 107.09 98.7237 106.083C98.7226 99.8831 98.7264 93.6824 98.735 87.4812C98.7383 84.7723 102.421 84.0979 103.279 86.6317C103.375 86.9138 103.423 87.3839 103.423 88.0421C103.425 93.8888 103.426 99.7356 103.425 105.582C103.423 109.223 101.274 111.674 97.6197 112Z" fill="#327A6D"/>
<path d="M49.5654 42.514V44.731C49.5654 44.8065 49.6022 44.8527 49.6757 44.8695C49.8472 44.9031 50.0554 44.9199 50.3004 44.9199C50.8802 44.9199 51.3048 44.8107 51.5743 44.5924C51.8438 44.3657 51.9786 44.0214 51.9786 43.5595C51.9786 42.7869 51.3661 42.4007 50.1411 42.4007H49.6634C49.5981 42.4007 49.5654 42.4384 49.5654 42.514ZM49.5654 38.9115V40.7632C49.5654 40.8303 49.5981 40.8639 49.6634 40.8639H49.9697C51.1619 40.8639 51.7581 40.4986 51.7581 39.7681C51.7581 39.0711 51.2599 38.7226 50.2636 38.7226C50.0268 38.7226 49.8267 38.7394 49.6634 38.773C49.5981 38.7897 49.5654 38.8359 49.5654 38.9115ZM48.2057 46.444C48.0098 46.4272 47.8464 46.3391 47.7158 46.1795C47.5851 46.02 47.5198 45.8394 47.5198 45.6379V38.0046C47.5198 37.7946 47.5851 37.6141 47.7158 37.4629C47.8546 37.3034 48.022 37.2152 48.218 37.1984C48.855 37.1312 49.4797 37.0977 50.0922 37.0977C52.4604 37.0977 53.6445 37.8828 53.6445 39.4531C53.6445 39.9822 53.4771 40.4315 53.1423 40.8009C52.8156 41.1704 52.3746 41.4056 51.8193 41.5063C51.8112 41.5063 51.8071 41.5147 51.8071 41.5315C51.8071 41.5399 51.8152 41.5441 51.8316 41.5441C52.4767 41.6365 52.9871 41.8884 53.3627 42.2999C53.7466 42.7114 53.9385 43.2026 53.9385 43.7736C53.9385 44.7058 53.6363 45.4028 53.032 45.8646C52.4359 46.3181 51.4968 46.5448 50.2146 46.5448C49.5695 46.5448 48.8999 46.5112 48.2057 46.444Z" fill="#327A6D"/>
<path d="M58.3725 39.0879L57.4783 42.703C57.4701 42.7282 57.4742 42.7534 57.4905 42.7785C57.515 42.7953 57.5395 42.8037 57.564 42.8037H59.2054C59.2299 42.8037 59.2503 42.7953 59.2667 42.7785C59.2912 42.7534 59.2993 42.7282 59.2912 42.703L58.397 39.0879C58.397 39.0795 58.3929 39.0753 58.3847 39.0753C58.3766 39.0753 58.3725 39.0795 58.3725 39.0879ZM55.1019 46.4188C54.9304 46.4188 54.7916 46.3475 54.6854 46.2047C54.5874 46.062 54.567 45.9066 54.6241 45.7387L57.0985 37.9038C57.1639 37.7023 57.2782 37.5385 57.4415 37.4126C57.613 37.2866 57.8008 37.2236 58.005 37.2236H58.8134C59.0258 37.2236 59.2177 37.2866 59.3892 37.4126C59.5607 37.5385 59.675 37.7023 59.7322 37.9038L62.1943 45.7387C62.2514 45.9066 62.2269 46.062 62.1208 46.2047C62.0228 46.3475 61.888 46.4188 61.7166 46.4188H60.8958C60.6917 46.4188 60.5079 46.3559 60.3446 46.2299C60.1813 46.0955 60.0751 45.9276 60.0261 45.7261L59.7322 44.5294C59.724 44.4622 59.6832 44.4286 59.6097 44.4286H57.1598C57.0944 44.4286 57.0536 44.4622 57.0373 44.5294L56.7433 45.7261C56.6943 45.9276 56.5881 46.0955 56.4248 46.2299C56.2615 46.3559 56.0777 46.4188 55.8736 46.4188H55.1019Z" fill="#327A6D"/>
<path d="M64.0202 46.4188C63.8324 46.4188 63.6691 46.3475 63.5302 46.2047C63.3914 46.062 63.322 45.894 63.322 45.7009V37.9416C63.322 37.7485 63.3914 37.5805 63.5302 37.4378C63.6691 37.295 63.8324 37.2236 64.0202 37.2236H64.6204C65.0859 37.2236 65.4248 37.4336 65.6371 37.8534L68.2095 42.8541C68.2095 42.8625 68.2136 42.8667 68.2218 42.8667C68.2299 42.8667 68.234 42.8625 68.234 42.8541V37.9416C68.234 37.7485 68.3034 37.5805 68.4423 37.4378C68.5811 37.295 68.7444 37.2236 68.9322 37.2236H69.5324C69.7203 37.2236 69.8836 37.295 70.0224 37.4378C70.1613 37.5805 70.2307 37.7485 70.2307 37.9416V45.7009C70.2307 45.894 70.1613 46.062 70.0224 46.2047C69.8836 46.3475 69.7203 46.4188 69.5324 46.4188H68.9322C68.4667 46.4188 68.1278 46.2089 67.9155 45.789L65.3431 40.7883C65.3431 40.7799 65.3391 40.7757 65.3309 40.7757C65.3227 40.7757 65.3186 40.7799 65.3186 40.7883V45.7009C65.3186 45.894 65.2492 46.062 65.1104 46.2047C64.9716 46.3475 64.8083 46.4188 64.6204 46.4188H64.0202Z" fill="#327A6D"/>
<path d="M74.6995 42.7408C73.6705 42.4049 72.9274 41.9892 72.4701 41.4937C72.0128 40.9899 71.7841 40.3769 71.7841 39.6547C71.7841 38.8653 72.0495 38.2439 72.5804 37.7904C73.1193 37.3286 73.887 37.0977 74.8832 37.0977C75.6345 37.0977 76.3164 37.1858 76.9289 37.3622C77.1249 37.421 77.28 37.5427 77.3944 37.7275C77.5169 37.9038 77.5781 38.1012 77.5781 38.3195V38.6848C77.5781 38.8527 77.5087 38.9829 77.3699 39.0753C77.231 39.1676 77.0841 39.1844 76.9289 39.1256C76.2348 38.8737 75.5937 38.7478 75.0057 38.7478C74.2544 38.7478 73.8788 39.0501 73.8788 39.6547C73.8788 40.1669 74.2054 40.5322 74.8587 40.7506C75.9857 41.1032 76.7656 41.5147 77.1984 41.985C77.6394 42.4552 77.8598 43.0725 77.8598 43.8366C77.8598 45.6421 76.7533 46.5448 74.5403 46.5448C73.838 46.5448 73.201 46.4314 72.6293 46.2047C72.4334 46.1291 72.2782 45.999 72.1639 45.8142C72.0577 45.6211 72.0046 45.4112 72.0046 45.1844V44.7813C72.0046 44.6302 72.07 44.5168 72.2006 44.4412C72.3313 44.3573 72.4619 44.3489 72.5926 44.4161C73.1887 44.7184 73.7971 44.8695 74.4178 44.8695C74.8506 44.8695 75.1772 44.7855 75.3977 44.6176C75.6264 44.4412 75.7407 44.1935 75.7407 43.8744C75.7407 43.5973 75.6631 43.3706 75.508 43.1942C75.3528 43.0179 75.0833 42.8667 74.6995 42.7408Z" fill="#327A6D"/>
<path d="M84.9877 41.8212C84.9877 39.8478 84.3017 38.8611 82.9298 38.8611C81.5578 38.8611 80.8719 39.8478 80.8719 41.8212C80.8719 43.7946 81.5578 44.7813 82.9298 44.7813C84.3017 44.7813 84.9877 43.7946 84.9877 41.8212ZM85.9921 45.2978C85.2408 46.1291 84.22 46.5448 82.9298 46.5448C81.6395 46.5448 80.6187 46.1291 79.8674 45.2978C79.1161 44.458 78.7405 43.2992 78.7405 41.8212C78.7405 40.3433 79.1161 39.1886 79.8674 38.3573C80.6187 37.5175 81.6395 37.0977 82.9298 37.0977C84.22 37.0977 85.2408 37.5175 85.9921 38.3573C86.7434 39.1886 87.1191 40.3433 87.1191 41.8212C87.1191 43.2992 86.7434 44.458 85.9921 45.2978Z" fill="#327A6D"/>
<path d="M90.9204 42.7408C89.8915 42.4049 89.1483 41.9892 88.691 41.4937C88.2337 40.9899 88.005 40.3769 88.005 39.6547C88.005 38.8653 88.2704 38.2439 88.8013 37.7904C89.3402 37.3286 90.1079 37.0977 91.1041 37.0977C91.8554 37.0977 92.5373 37.1858 93.1498 37.3622C93.3458 37.421 93.5009 37.5427 93.6153 37.7275C93.7378 37.9038 93.799 38.1012 93.799 38.3195V38.6848C93.799 38.8527 93.7296 38.9829 93.5908 39.0753C93.4519 39.1676 93.305 39.1844 93.1498 39.1256C92.4557 38.8737 91.8146 38.7478 91.2266 38.7478C90.4753 38.7478 90.0997 39.0501 90.0997 39.6547C90.0997 40.1669 90.4263 40.5322 91.0796 40.7506C92.2066 41.1032 92.9865 41.5147 93.4193 41.985C93.8603 42.4552 94.0807 43.0725 94.0807 43.8366C94.0807 45.6421 92.9742 46.5448 90.7612 46.5448C90.0589 46.5448 89.4219 46.4314 88.8503 46.2047C88.6543 46.1291 88.4991 45.999 88.3848 45.8142C88.2786 45.6211 88.2255 45.4112 88.2255 45.1844V44.7813C88.2255 44.6302 88.2909 44.5168 88.4215 44.4412C88.5522 44.3573 88.6828 44.3489 88.8135 44.4161C89.4096 44.7184 90.018 44.8695 90.6387 44.8695C91.0715 44.8695 91.3981 44.7855 91.6186 44.6176C91.8473 44.4412 91.9616 44.1935 91.9616 43.8744C91.9616 43.5973 91.884 43.3706 91.7289 43.1942C91.5737 43.0179 91.3042 42.8667 90.9204 42.7408Z" fill="#327A6D"/>
</g>
<defs>
<clipPath id="clip0_117_1291">
<rect width="83" height="83" fill="white" transform="translate(29.3003 29)"/>
</clipPath>
</defs>
</svg>
