<svg width="140" height="140" viewBox="0 0 140 140" fill="none" xmlns="http://www.w3.org/2000/svg">
<circle cx="70" cy="70" r="70" fill="#F7FAF3"/>
<g clip-path="url(#clip0_39_1316)">
<path d="M38.0185 47.3167C38.0201 48.7952 38.7301 50.1958 40.4047 50.1958C46.9669 50.1947 53.5291 50.1953 60.0913 50.1974C60.6992 50.1974 61.3622 50.4649 61.834 50.9302C64.8243 53.873 67.7931 56.8353 70.7402 59.817C70.7545 59.8311 70.7737 59.8389 70.7937 59.8389C70.8138 59.8389 70.833 59.8311 70.8472 59.817C73.7857 56.8731 76.7296 53.9367 79.679 51.008C80.2236 50.4676 80.871 50.1974 81.621 50.1974C87.9249 50.1963 94.2294 50.1958 100.534 50.1958C101.817 50.1958 102.825 49.9656 103.345 48.7919C103.51 48.4223 103.591 47.7804 103.588 46.8661C103.585 43.5104 103.585 40.1553 103.588 36.8007C103.592 34.515 102.702 33.7012 100.437 33.7012C80.6478 33.7012 60.8581 33.7012 41.0677 33.7012C38.735 33.7012 38.0136 34.669 38.012 36.9466C38.0109 40.4039 38.0131 43.8606 38.0185 47.3167Z" stroke="#DEF3BE" stroke-width="2"/>
<path d="M75.2988 45.292H78.4599C78.4884 45.2921 78.5156 45.3001 78.5373 45.3148C78.559 45.3294 78.574 45.35 78.5799 45.3731L79.0824 47.226C79.143 47.4486 79.2581 47.5799 79.4277 47.6199C80.1172 47.7799 80.7176 47.6302 81.2288 47.1709C81.4298 46.9893 81.4914 46.771 81.4136 46.516C80.5079 43.5472 79.5942 40.5692 78.6723 37.5821C78.2768 36.2998 77.6948 35.9999 76.3412 36.2058C75.7619 36.2944 75.3734 36.6613 75.1756 37.3065C74.2537 40.312 73.3362 43.3186 72.423 46.3263C72.0615 47.5129 73.6437 47.8372 74.438 47.5875C74.4842 47.5726 74.5256 47.548 74.5585 47.5161C74.5913 47.4841 74.6145 47.4457 74.6261 47.4043L75.1999 45.3601C75.205 45.3407 75.2175 45.3234 75.2354 45.3111C75.2533 45.2988 75.2756 45.2921 75.2988 45.292Z" stroke="#DEF3BE" stroke-width="2"/>
<path d="M86.1194 38.4024L88.1457 38.404C88.4148 38.404 88.6094 38.2862 88.7293 38.0506C88.9747 37.5653 88.9801 37.0768 88.7455 36.5851C88.6288 36.342 88.4251 36.2204 88.1344 36.2204L81.4279 36.2188C81.1577 36.2188 80.9637 36.3403 80.8459 36.5835C80.5315 37.2271 80.5704 38.3408 81.53 38.4056C82.1806 38.4499 82.828 38.4456 83.4721 38.3926C83.4841 38.3917 83.4962 38.3933 83.5076 38.3973C83.519 38.4013 83.5294 38.4076 83.5383 38.4159C83.5471 38.4241 83.5541 38.434 83.5589 38.4451C83.5637 38.4562 83.5662 38.4681 83.5661 38.4802C83.5661 41.2522 83.5656 44.0227 83.5645 46.7915C83.5645 47.9587 85.9751 48.1224 85.9913 46.738C86.0226 43.9897 86.0416 41.2414 86.048 38.4931C86.048 38.4691 86.0556 38.446 86.0689 38.429C86.0823 38.4119 86.1004 38.4024 86.1194 38.4024Z" stroke="#DEF3BE" stroke-width="2"/>
<path d="M92.3606 45.4947V42.982C92.3606 42.9622 92.37 42.9432 92.3867 42.9292C92.4035 42.9153 92.4261 42.9074 92.4498 42.9074C93.0647 42.8988 93.6823 42.8971 94.3027 42.9025C95.1359 42.909 95.5833 42.5978 95.4099 41.7127C95.298 41.1485 94.9949 41.0286 94.434 41.0367C93.7823 41.0453 93.1241 41.0399 92.4595 41.0205C92.433 41.0196 92.4078 41.0081 92.3893 40.9885C92.3709 40.9688 92.3606 40.9425 92.3606 40.9151V38.4429C92.3606 38.4214 92.3692 38.4008 92.3844 38.3856C92.3996 38.3704 92.4202 38.3619 92.4417 38.3619L96.4944 38.3586C96.8013 38.3586 97.0142 38.2354 97.1331 37.989C97.3601 37.52 97.3606 37.0526 97.1347 36.5868C97.018 36.3458 96.8154 36.2242 96.5268 36.222C94.6809 36.2069 92.8367 36.208 90.994 36.2253C90.5736 36.2285 90.2462 36.3766 90.0117 36.6694C89.9799 36.7096 89.9608 36.7598 89.9565 36.8137C89.9198 37.34 89.9041 37.8669 89.9095 38.3943C89.9387 41.2069 89.8965 44.0179 89.9063 46.8321C89.9074 47.2103 90.0646 47.4611 90.378 47.5843C90.6136 47.6761 90.8579 47.7221 91.1108 47.7221C92.855 47.7253 94.5766 47.7248 96.2756 47.7204C97.2952 47.7172 97.5578 46.6991 97.1461 45.9697C97.0002 45.7092 96.7689 45.579 96.4523 45.579L92.4417 45.5773C92.4202 45.5773 92.3996 45.5686 92.3844 45.5531C92.3692 45.5376 92.3606 45.5166 92.3606 45.4947Z" stroke="#DEF3BE" stroke-width="2"/>
<path d="M58.5739 36.2625C56.0272 36.0259 54.265 37.0374 54.1126 39.7252C54.0327 41.128 54.0246 42.5313 54.0883 43.9352C54.1807 45.9956 54.8535 47.4335 57.0565 47.7496C59.2191 48.0592 61.4627 47.2552 61.7188 44.8057C61.8463 43.5823 61.8642 41.9893 61.7723 40.0267C61.6734 37.9323 60.8791 36.4765 58.5739 36.2625Z" stroke="#DEF3BE" stroke-width="2"/>
<path d="M65.8252 41.8034C65.8262 41.6834 65.8554 41.6759 65.9127 41.7807C66.8313 43.4439 67.7478 45.1104 68.6621 46.7802C69.1614 47.6912 70.1308 48.0041 71.0564 47.4805C71.2909 47.3486 71.4082 47.1476 71.4082 46.8774C71.4071 43.6568 71.4077 40.4752 71.4098 37.3324C71.4098 36.8266 71.3061 36.4603 70.8068 36.316C70.2556 36.1539 69.5326 36.1977 69.0738 36.6435C69.0363 36.6788 69.0132 36.728 69.009 36.7813C68.8566 38.5628 68.9506 40.3882 68.9668 42.1649C68.9679 42.287 68.9404 42.294 68.8842 42.186C68.0077 40.499 67.1204 38.8184 66.2223 37.1444C65.6841 36.1425 64.6369 36.0323 63.7096 36.4408C63.4924 36.537 63.3838 36.7045 63.3838 36.9434V46.9941C63.3838 47.2092 63.4816 47.3675 63.6772 47.4691C64.5104 47.9052 65.8203 47.8582 65.8154 46.6002C65.81 44.9932 65.8133 43.3942 65.8252 41.8034Z" stroke="#DEF3BE" stroke-width="2"/>
<path d="M76.8081 39.4594L75.7706 43.2949C75.7674 43.3073 75.7664 43.3203 75.7676 43.3328C75.7687 43.3453 75.7721 43.357 75.7774 43.367C75.7828 43.377 75.7899 43.3851 75.7983 43.3905C75.8066 43.396 75.816 43.3988 75.8257 43.3987L77.9332 43.3889C77.9438 43.3891 77.9544 43.3869 77.9641 43.3826C77.9738 43.3783 77.9823 43.3721 77.9889 43.3644C77.9956 43.3566 78.0001 43.3476 78.0023 43.3381C78.0044 43.3286 78.0041 43.3188 78.0013 43.3095L76.9411 39.4286C76.9 39.2762 76.8557 39.2865 76.8081 39.4594Z" stroke="#DEF3BE" stroke-width="2"/>
<path d="M49.5688 38.5986C49.4319 38.4887 49.2873 38.4265 49.1619 38.4235L47.4565 38.3716C47.446 38.3714 47.4354 38.3731 47.4256 38.3766C47.4158 38.38 47.4068 38.3853 47.3993 38.3919C47.3917 38.3986 47.3857 38.4065 47.3816 38.4153C47.3776 38.424 47.3755 38.4334 47.3755 38.4429V45.4947C47.3753 45.5135 47.3839 45.5317 47.3996 45.5456C47.4153 45.5595 47.4369 45.568 47.4598 45.5693C48.6302 45.639 50.1508 45.7573 50.1589 44.0746C50.1697 41.9315 50.1692 40.4969 50.1573 39.7706C50.1497 39.2972 49.9536 38.9066 49.5688 38.5986Z" stroke="#DEF3BE" stroke-width="2"/>
<path d="M59.3246 39.7074C59.3246 39.3531 59.1839 39.0133 58.9333 38.7628C58.6828 38.5123 58.3431 38.3716 57.9888 38.3716H57.8753C57.5211 38.3716 57.1813 38.5123 56.9308 38.7628C56.6803 39.0133 56.5396 39.3531 56.5396 39.7074V44.321C56.5396 44.6753 56.6803 45.015 56.9308 45.2655C57.1813 45.516 57.5211 45.6568 57.8753 45.6568H57.9888C58.3431 45.6568 58.6828 45.516 58.9333 45.2655C59.1839 45.015 59.3246 44.6753 59.3246 44.321V39.7074Z" stroke="#DEF3BE" stroke-width="2"/>
<path d="M40.3336 29H101.327C104.581 29.1929 107.342 31.3441 108.068 34.4971C108.207 35.1002 108.279 36.176 108.283 37.7247C108.294 40.9626 108.296 44.2005 108.29 47.4383C108.286 50.1358 107.226 52.2124 105.113 53.6682C103.568 54.7332 101.995 54.8889 99.9202 54.8921C94.1167 54.9008 88.3126 54.9002 82.508 54.8905C82.4823 54.8905 82.4569 54.8955 82.4332 54.9052C82.4096 54.915 82.3882 54.9292 82.3702 54.9472C79.301 58.0046 76.2365 61.0669 73.177 64.134C71.3533 65.9626 70.2931 66.0015 68.4839 64.1923C65.4071 61.1166 62.3308 58.0387 59.2551 54.9586C59.2187 54.9222 59.1697 54.9018 59.1189 54.9018C53.4894 54.8953 47.8593 54.8937 42.2287 54.897C40.68 54.8981 39.6047 54.8348 39.0027 54.7073C36.1869 54.1124 33.8363 51.825 33.4116 48.813C33.3511 48.3894 33.3197 47.7631 33.3176 46.9342C33.3089 43.4553 33.3073 39.9764 33.3127 36.4976C33.3192 32.3346 36.1139 29.3015 40.3336 29ZM38.0187 47.3167C38.0203 48.7952 38.7304 50.1958 40.405 50.1958C46.9672 50.1947 53.5293 50.1953 60.0915 50.1974C60.6994 50.1974 61.3625 50.4649 61.8342 50.9302C64.8246 53.873 67.7934 56.8353 70.7405 59.817C70.7548 59.831 70.774 59.8389 70.794 59.8389C70.814 59.8389 70.8332 59.831 70.8475 59.817C73.786 56.8731 76.7299 53.9367 79.6792 51.008C80.2239 50.4676 80.8713 50.1974 81.6213 50.1974C87.9252 50.1963 94.2296 50.1958 100.535 50.1958C101.817 50.1958 102.825 49.9656 103.346 48.7919C103.51 48.4223 103.591 47.7804 103.589 46.8661C103.585 43.5104 103.585 40.1553 103.589 36.8007C103.592 34.515 102.702 33.7012 100.437 33.7012C80.6481 33.7012 60.8583 33.7012 41.068 33.7012C38.7352 33.7012 38.0139 34.669 38.0122 36.9466C38.0112 40.4039 38.0133 43.8606 38.0187 47.3167Z" fill="#0D562A"/>
<path d="M40.4047 50.1958C38.7301 50.1958 38.0201 48.7952 38.0185 47.3167C38.0131 43.8606 38.0109 40.4039 38.012 36.9466C38.0136 34.669 38.735 33.7012 41.0677 33.7012C60.8581 33.7012 80.6478 33.7012 100.437 33.7012C102.702 33.7012 103.592 34.515 103.588 36.8007C103.585 40.1553 103.585 43.5104 103.588 46.8661C103.591 47.7804 103.51 48.4223 103.345 48.7919C102.825 49.9656 101.817 50.1958 100.534 50.1958C94.2294 50.1958 87.9249 50.1963 81.621 50.1974C80.871 50.1974 80.2236 50.4676 79.679 51.008C76.7296 53.9367 73.7857 56.8731 70.8472 59.817C70.833 59.8311 70.8138 59.8389 70.7937 59.8389C70.7737 59.8389 70.7545 59.8311 70.7402 59.817C67.7931 56.8353 64.8243 53.873 61.834 50.9302C61.3622 50.4649 60.6992 50.1974 60.0913 50.1974C53.5291 50.1953 46.9669 50.1947 40.4047 50.1958Z" fill="#DEF3BE"/>
<path d="M49.5688 38.5986C49.9536 38.9066 50.1497 39.2972 50.1573 39.7706C50.1692 40.4969 50.1697 41.9315 50.1589 44.0746C50.1508 45.7573 48.6302 45.639 47.4598 45.5693C47.4369 45.568 47.4153 45.5595 47.3996 45.5456C47.3839 45.5317 47.3753 45.5135 47.3755 45.4947V38.4429C47.3755 38.4334 47.3776 38.424 47.3816 38.4153C47.3857 38.4065 47.3917 38.3986 47.3993 38.3919C47.4068 38.3853 47.4158 38.38 47.4256 38.3766C47.4354 38.3731 47.446 38.3714 47.4565 38.3716L49.1619 38.4235C49.2873 38.4265 49.4319 38.4887 49.5688 38.5986Z" fill="#DEF3BE"/>
<path d="M57.9888 38.3716H57.8753C57.1376 38.3716 56.5396 38.9696 56.5396 39.7074V44.321C56.5396 45.0587 57.1376 45.6568 57.8753 45.6568H57.9888C58.7265 45.6568 59.3246 45.0587 59.3246 44.321V39.7074C59.3246 38.9696 58.7265 38.3716 57.9888 38.3716Z" fill="#DEF3BE"/>
<path d="M76.8081 39.4594C76.8557 39.2865 76.9 39.2762 76.9411 39.4286L78.0013 43.3095C78.0041 43.3188 78.0044 43.3286 78.0023 43.3381C78.0001 43.3476 77.9956 43.3566 77.9889 43.3644C77.9823 43.3721 77.9738 43.3783 77.9641 43.3826C77.9544 43.3869 77.9438 43.3891 77.9332 43.3889L75.8257 43.3987C75.816 43.3988 75.8066 43.396 75.7983 43.3905C75.7899 43.3851 75.7828 43.377 75.7774 43.367C75.7721 43.357 75.7687 43.3453 75.7676 43.3328C75.7664 43.3203 75.7674 43.3073 75.7706 43.2949L76.8081 39.4594Z" fill="#DEF3BE"/>
<path d="M97.6195 112L44.0018 112.003C40.9412 111.682 39.0737 110.171 38.3993 107.471C38.2491 106.872 38.1745 105.993 38.1756 104.835C38.1767 95.3902 38.1767 85.9452 38.1756 76.4996C38.1756 76.4758 38.1688 76.4524 38.1559 76.432C38.143 76.4116 38.1246 76.3952 38.1026 76.3845C30.7769 72.7695 31.8938 62.1205 39.9328 60.3795C40.618 60.2314 41.6928 60.159 43.1572 60.1623C46.8619 60.1687 50.5656 60.1687 54.2682 60.1623C55.0603 60.1612 55.6412 60.2368 56.0108 60.3892C57.9772 61.2046 57.8411 64.0691 55.8017 64.7256C55.5186 64.8175 55.0495 64.8634 54.3946 64.8634C50.1765 64.8667 45.959 64.8677 41.742 64.8667C37.4445 64.865 36.3583 70.855 40.3867 72.2443C40.8558 72.4064 41.6334 72.4874 42.7195 72.4874C61.3318 72.4853 79.9447 72.4847 98.5581 72.4858C99.9025 72.4858 100.814 72.4004 101.291 72.2297C104.564 71.0609 104.519 66.2689 101.22 65.105C100.775 64.9483 100.066 64.8694 99.0947 64.8683C94.9587 64.8672 90.8228 64.8677 86.6868 64.8699C84.0493 64.8732 83.1804 61.3359 85.5942 60.3633C85.9141 60.2347 86.469 60.1698 87.259 60.1687C91.4307 60.1623 95.6034 60.1596 99.7771 60.1606C103.953 60.1606 107.469 63.051 108.28 67.1135C109.188 71.6574 106.035 76.1706 101.51 77.0168C100.893 77.1324 99.8155 77.1897 98.2776 77.1886C79.8393 77.1843 61.4015 77.1854 42.9643 77.1918C42.9428 77.1918 42.9222 77.2002 42.907 77.2151C42.8918 77.23 42.8832 77.2502 42.8832 77.2713C42.8735 86.7471 42.8724 96.2175 42.88 105.683C42.88 106.752 43.2058 107.299 44.3065 107.299C61.8824 107.299 79.4589 107.299 97.0359 107.299C97.9226 107.299 98.7234 107.09 98.7234 106.083C98.7223 99.8828 98.7261 93.6821 98.7348 87.4809C98.738 84.7721 102.421 84.0977 103.279 86.6315C103.375 86.9135 103.423 87.3837 103.423 88.0418C103.425 93.8886 103.426 99.7353 103.425 105.582C103.423 109.223 101.273 111.674 97.6195 112Z" fill="#0D562A"/>
<path d="M49.5657 42.514V44.731C49.5657 44.8065 49.6024 44.8527 49.6759 44.8695C49.8474 44.9031 50.0556 44.9199 50.3006 44.9199C50.8804 44.9199 51.3051 44.8107 51.5746 44.5924C51.8441 44.3657 51.9788 44.0214 51.9788 43.5595C51.9788 42.7869 51.3663 42.4007 50.1414 42.4007H49.6637C49.5983 42.4007 49.5657 42.4384 49.5657 42.514ZM49.5657 38.9115V40.7632C49.5657 40.8303 49.5983 40.8639 49.6637 40.8639H49.9699C51.1622 40.8639 51.7583 40.4986 51.7583 39.7681C51.7583 39.0711 51.2602 38.7226 50.2639 38.7226C50.0271 38.7226 49.827 38.7394 49.6637 38.773C49.5983 38.7897 49.5657 38.8359 49.5657 38.9115ZM48.206 46.444C48.01 46.4272 47.8467 46.3391 47.716 46.1795C47.5853 46.02 47.52 45.8394 47.52 45.6379V38.0046C47.52 37.7946 47.5853 37.6141 47.716 37.4629C47.8548 37.3034 48.0222 37.2152 48.2182 37.1984C48.8552 37.1312 49.4799 37.0977 50.0924 37.0977C52.4606 37.0977 53.6447 37.8828 53.6447 39.4531C53.6447 39.9822 53.4773 40.4315 53.1425 40.8009C52.8158 41.1704 52.3749 41.4056 51.8196 41.5063C51.8114 41.5063 51.8073 41.5147 51.8073 41.5315C51.8073 41.5399 51.8155 41.5441 51.8318 41.5441C52.4769 41.6365 52.9873 41.8884 53.363 42.2999C53.7468 42.7114 53.9387 43.2026 53.9387 43.7736C53.9387 44.7058 53.6366 45.4028 53.0323 45.8646C52.4361 46.3181 51.497 46.5448 50.2149 46.5448C49.5698 46.5448 48.9001 46.5112 48.206 46.444Z" fill="#0D562A"/>
<path d="M58.3727 39.0879L57.4785 42.703C57.4703 42.7282 57.4744 42.7534 57.4908 42.7785C57.5153 42.7953 57.5398 42.8037 57.5643 42.8037H59.2057C59.2302 42.8037 59.2506 42.7953 59.2669 42.7785C59.2914 42.7534 59.2996 42.7282 59.2914 42.703L58.3972 39.0879C58.3972 39.0795 58.3931 39.0753 58.385 39.0753C58.3768 39.0753 58.3727 39.0795 58.3727 39.0879ZM55.1021 46.4188C54.9306 46.4188 54.7918 46.3475 54.6856 46.2047C54.5876 46.062 54.5672 45.9066 54.6244 45.7387L57.0988 37.9038C57.1641 37.7023 57.2784 37.5385 57.4418 37.4126C57.6132 37.2866 57.8011 37.2236 58.0052 37.2236H58.8137C59.026 37.2236 59.2179 37.2866 59.3894 37.4126C59.5609 37.5385 59.6752 37.7023 59.7324 37.9038L62.1945 45.7387C62.2517 45.9066 62.2272 46.062 62.121 46.2047C62.023 46.3475 61.8883 46.4188 61.7168 46.4188H60.8961C60.6919 46.4188 60.5082 46.3559 60.3449 46.2299C60.1815 46.0955 60.0754 45.9276 60.0264 45.7261L59.7324 44.5294C59.7242 44.4622 59.6834 44.4286 59.6099 44.4286H57.16C57.0947 44.4286 57.0539 44.4622 57.0375 44.5294L56.7435 45.7261C56.6945 45.9276 56.5884 46.0955 56.4251 46.2299C56.2617 46.3559 56.078 46.4188 55.8738 46.4188H55.1021Z" fill="#0D562A"/>
<path d="M64.0205 46.4188C63.8326 46.4188 63.6693 46.3475 63.5305 46.2047C63.3917 46.062 63.3222 45.894 63.3222 45.7009V37.9416C63.3222 37.7485 63.3917 37.5805 63.5305 37.4378C63.6693 37.295 63.8326 37.2236 64.0205 37.2236H64.6207C65.0862 37.2236 65.4251 37.4336 65.6374 37.8534L68.2098 42.8541C68.2098 42.8625 68.2138 42.8667 68.222 42.8667C68.2302 42.8667 68.2343 42.8625 68.2343 42.8541V37.9416C68.2343 37.7485 68.3037 37.5805 68.4425 37.4378C68.5813 37.295 68.7446 37.2236 68.9325 37.2236H69.5327C69.7205 37.2236 69.8838 37.295 70.0227 37.4378C70.1615 37.5805 70.2309 37.7485 70.2309 37.9416V45.7009C70.2309 45.894 70.1615 46.062 70.0227 46.2047C69.8838 46.3475 69.7205 46.4188 69.5327 46.4188H68.9325C68.467 46.4188 68.1281 46.2089 67.9158 45.789L65.3434 40.7883C65.3434 40.7799 65.3393 40.7757 65.3311 40.7757C65.323 40.7757 65.3189 40.7799 65.3189 40.7883V45.7009C65.3189 45.894 65.2495 46.062 65.1107 46.2047C64.9718 46.3475 64.8085 46.4188 64.6207 46.4188H64.0205Z" fill="#0D562A"/>
<path d="M74.6997 42.7408C73.6708 42.4049 72.9277 41.9892 72.4704 41.4937C72.013 40.9899 71.7844 40.3769 71.7844 39.6547C71.7844 38.8653 72.0498 38.2439 72.5806 37.7904C73.1196 37.3286 73.8872 37.0977 74.8835 37.0977C75.6348 37.0977 76.3167 37.1858 76.9291 37.3622C77.1251 37.421 77.2803 37.5427 77.3946 37.7275C77.5171 37.9038 77.5784 38.1012 77.5784 38.3195V38.6848C77.5784 38.8527 77.5089 38.9829 77.3701 39.0753C77.2313 39.1676 77.0843 39.1844 76.9291 39.1256C76.235 38.8737 75.594 38.7478 75.006 38.7478C74.2547 38.7478 73.879 39.0501 73.879 39.6547C73.879 40.1669 74.2057 40.5322 74.859 40.7506C75.9859 41.1032 76.7658 41.5147 77.1986 41.985C77.6396 42.4552 77.8601 43.0725 77.8601 43.8366C77.8601 45.6421 76.7536 46.5448 74.5405 46.5448C73.8382 46.5448 73.2012 46.4314 72.6296 46.2047C72.4336 46.1291 72.2784 45.999 72.1641 45.8142C72.058 45.6211 72.0049 45.4112 72.0049 45.1844V44.7813C72.0049 44.6302 72.0702 44.5168 72.2009 44.4412C72.3315 44.3573 72.4622 44.3489 72.5928 44.4161C73.189 44.7184 73.7974 44.8695 74.418 44.8695C74.8508 44.8695 75.1775 44.7855 75.398 44.6176C75.6266 44.4412 75.7409 44.1935 75.7409 43.8744C75.7409 43.5973 75.6634 43.3706 75.5082 43.1942C75.353 43.0179 75.0836 42.8667 74.6997 42.7408Z" fill="#0D562A"/>
<path d="M84.9879 41.8212C84.9879 39.8478 84.3019 38.8611 82.93 38.8611C81.5581 38.8611 80.8721 39.8478 80.8721 41.8212C80.8721 43.7946 81.5581 44.7813 82.93 44.7813C84.3019 44.7813 84.9879 43.7946 84.9879 41.8212ZM85.9924 45.2978C85.2411 46.1291 84.2203 46.5448 82.93 46.5448C81.6397 46.5448 80.619 46.1291 79.8677 45.2978C79.1164 44.458 78.7407 43.2992 78.7407 41.8212C78.7407 40.3433 79.1164 39.1886 79.8677 38.3573C80.619 37.5175 81.6397 37.0977 82.93 37.0977C84.2203 37.0977 85.2411 37.5175 85.9924 38.3573C86.7437 39.1886 87.1193 40.3433 87.1193 41.8212C87.1193 43.2992 86.7437 44.458 85.9924 45.2978Z" fill="#0D562A"/>
<path d="M90.9206 42.7408C89.8917 42.4049 89.1486 41.9892 88.6913 41.4937C88.2339 40.9899 88.0053 40.3769 88.0053 39.6547C88.0053 38.8653 88.2707 38.2439 88.8015 37.7904C89.3405 37.3286 90.1081 37.0977 91.1044 37.0977C91.8557 37.0977 92.5376 37.1858 93.15 37.3622C93.346 37.421 93.5012 37.5427 93.6155 37.7275C93.738 37.9038 93.7993 38.1012 93.7993 38.3195V38.6848C93.7993 38.8527 93.7298 38.9829 93.591 39.0753C93.4522 39.1676 93.3052 39.1844 93.15 39.1256C92.4559 38.8737 91.8149 38.7478 91.2269 38.7478C90.4756 38.7478 90.0999 39.0501 90.0999 39.6547C90.0999 40.1669 90.4266 40.5322 91.0799 40.7506C92.2068 41.1032 92.9867 41.5147 93.4195 41.985C93.8605 42.4552 94.081 43.0725 94.081 43.8366C94.081 45.6421 92.9745 46.5448 90.7614 46.5448C90.0591 46.5448 89.4221 46.4314 88.8505 46.2047C88.6545 46.1291 88.4993 45.999 88.385 45.8142C88.2789 45.6211 88.2258 45.4112 88.2258 45.1844V44.7813C88.2258 44.6302 88.2911 44.5168 88.4218 44.4412C88.5524 44.3573 88.6831 44.3489 88.8137 44.4161C89.4099 44.7184 90.0183 44.8695 90.6389 44.8695C91.0717 44.8695 91.3984 44.7855 91.6189 44.6176C91.8475 44.4412 91.9618 44.1935 91.9618 43.8744C91.9618 43.5973 91.8843 43.3706 91.7291 43.1942C91.5739 43.0179 91.3045 42.8667 90.9206 42.7408Z" fill="#0D562A"/>
</g>
<defs>
<clipPath id="clip0_39_1316">
<rect width="83" height="83" fill="white" transform="translate(29.3003 29)"/>
</clipPath>
</defs>
</svg>
