<svg width="20" height="21" viewBox="0 0 20 21" fill="none" xmlns="http://www.w3.org/2000/svg">
<g clip-path="url(#clip0_117_902)">
<g clip-path="url(#clip1_117_902)">
<path d="M3.5966 4.46647V16.1331H16.9299V4.46647H3.5966ZM2.76326 2.7998H17.7633C17.9843 2.7998 18.1962 2.8876 18.3525 3.04388C18.5088 3.20016 18.5966 3.41212 18.5966 3.63314V16.9665C18.5966 17.1875 18.5088 17.3994 18.3525 17.5557C18.1962 17.712 17.9843 17.7998 17.7633 17.7998H2.76326C2.54225 17.7998 2.33029 17.712 2.17401 17.5557C2.01773 17.3994 1.92993 17.1875 1.92993 16.9665V3.63314C1.92993 3.41212 2.01773 3.20016 2.17401 3.04388C2.33029 2.8876 2.54225 2.7998 2.76326 2.7998ZM12.5908 8.46064L11.0966 6.96647H15.2633V11.1331L13.7691 9.63897L10.5491 12.859L8.7816 11.0915L6.4241 13.4481L5.24576 12.2698L8.7816 8.73397L10.5491 10.5023L12.5908 8.46064Z" fill="white"/>
</g>
</g>
<defs>
<clipPath id="clip0_117_902">
<rect width="20" height="20" fill="white" transform="translate(0 0.839844)"/>
</clipPath>
<clipPath id="clip1_117_902">
<rect width="20" height="20" fill="white" transform="translate(0.263184 0.299805)"/>
</clipPath>
</defs>
</svg>
