<svg width="20" height="21" viewBox="0 0 20 21" fill="none" xmlns="http://www.w3.org/2000/svg">
<g clip-path="url(#clip0_120_2158)">
<g clip-path="url(#clip1_120_2158)">
<path d="M3.59635 3.96647V15.6331H16.9297V3.96647H3.59635ZM2.76302 2.2998H17.763C17.984 2.2998 18.196 2.3876 18.3523 2.54388C18.5086 2.70016 18.5964 2.91212 18.5964 3.13314V16.4665C18.5964 16.6875 18.5086 16.8994 18.3523 17.0557C18.196 17.212 17.984 17.2998 17.763 17.2998H2.76302C2.54201 17.2998 2.33005 17.212 2.17377 17.0557C2.01748 16.8994 1.92969 16.6875 1.92969 16.4665V3.13314C1.92969 2.91212 2.01748 2.70016 2.17377 2.54388C2.33005 2.3876 2.54201 2.2998 2.76302 2.2998ZM12.5905 7.96064L11.0964 6.46647H15.263V10.6331L13.7689 9.13897L10.5489 12.359L8.78135 10.5915L6.42385 12.9481L5.24552 11.7698L8.78135 8.23397L10.5489 10.0023L12.5905 7.96064Z" fill="white"/>
</g>
</g>
<defs>
<clipPath id="clip0_120_2158">
<rect width="20" height="20" fill="white" transform="translate(0 0.339844)"/>
</clipPath>
<clipPath id="clip1_120_2158">
<rect width="20" height="20" fill="white" transform="translate(0.263184 -0.200195)"/>
</clipPath>
</defs>
</svg>
